<?xml version="1.0" encoding="UTF-8" standalone="no"?><svg xmlns="http://www.w3.org/2000/svg" xmlns:xlink="http://www.w3.org/1999/xlink" clip-rule="evenodd" stroke-miterlimit="10" viewBox="0 0 1920 1080"><desc>SVG generated by Keynote</desc><defs></defs><g transform="matrix(1.00, 0.00, -0.00, -1.00, 0.0, 1080.0)"><path d="M 0.0 1080.0 L 1920.0 1080.0 L 1920.0 0.0 L 0.0 0.0 Z M 0.0 1080.0 " fill="#383838"></path><image xlink:href="../../69DBEAFD-7575-49C3-AFBA-EAF946709D05/assets/A5750D761A4FFD4190EE6DDFC0E98BC7.png" width="1148.00" height="278.00" transform="matrix(1.63, 0.00, -0.00, -1.63, 22.6, 767.0)"></image><path d="M 1387.5 657.8 C 1395.0 657.6 1427.0 656.2 1427.3 656.0 C 1415.4 656.6 1389.8 657.6 1387.5 657.8 C 1387.5 657.8 1387.5 657.8 1387.5 657.8 Z M 1322.0 660.3 C 1334.0 660.1 1360.1 659.0 1368.3 658.6 C 1354.5 659.2 1326.3 660.0 1322.0 660.3 C 1322.0 660.3 1322.0 660.3 1322.0 660.3 Z M 1421.8 655.9 C 1438.8 655.0 1469.8 653.5 1477.2 652.9 C 1460.7 653.9 1429.5 655.3 1421.8 655.9 C 1421.8 655.9 1421.8 655.9 1421.8 655.9 Z M 498.1 646.7 C 504.6 647.4 533.2 649.6 533.2 649.5 C 522.7 648.7 500.1 646.7 498.1 646.7 C 498.1 646.7 498.1 646.7 498.1 646.7 Z M 664.7 657.3 C 676.1 658.0 701.5 659.1 709.6 659.4 C 696.0 658.8 668.8 657.4 664.7 657.3 C 664.7 657.3 664.7 657.3 664.7 657.3 Z M 768.9 661.8 C 793.7 662.7 820.6 663.5 815.6 663.1 C 807.5 663.1 771.5 661.7 768.9 661.8 C 768.9 661.8 768.9 661.8 768.9 661.8 Z M 1400.8 649.2 C 1375.0 650.4 1355.8 651.0 1338.0 651.6 C 1248.2 654.7 1383.7 650.3 1400.8 649.2 C 1400.8 649.2 1400.8 649.2 1400.8 649.2 Z M 960.8 665.6 C 942.2 665.4 927.4 665.2 918.5 665.2 C 935.7 665.5 959.8 665.8 960.8 665.6 C 960.8 665.6 960.8 665.6 960.8 665.6 Z M 1121.7 665.7 C 1125.8 665.8 1221.0 664.6 1272.7 663.1 C 1228.7 664.2 1117.5 665.7 1121.7 665.7 C 1121.7 665.7 1121.7 665.7 1121.7 665.7 Z M 1184.2 655.4 C 1122.8 656.4 1023.7 656.5 978.8 656.2 C 934.3 655.8 1058.9 657.4 1172.2 655.9 C 1229.1 655.1 1233.8 654.7 1230.4 654.7 C 1227.0 654.6 1215.3 654.8 1238.2 654.2 C 1283.7 653.2 1194.3 655.0 1148.1 655.6 C 1102.3 656.2 1178.7 655.3 1184.2 655.4 C 1184.2 655.4 1184.2 655.4 1184.2 655.4 Z M 1187.0 654.6 C 1209.3 654.3 1228.3 653.9 1240.9 653.5 C 1218.1 654.0 1196.2 654.3 1187.0 654.6 C 1187.0 654.6 1187.0 654.6 1187.0 654.6 Z M 1700.9 631.6 C 1707.4 631.9 1733.5 629.9 1764.8 626.3 C 1796.1 622.8 1831.7 617.6 1860.1 611.6 C 1874.3 608.6 1886.6 605.6 1897.2 602.3 C 1916.2 596.3 1928.8 590.4 1935.6 582.7 C 1939.1 578.8 1941.0 574.0 1940.3 569.1 C 1939.5 564.3 1936.4 560.1 1932.0 556.4 C 1914.5 541.7 1872.6 529.8 1803.9 518.5 C 1776.7 514.0 1745.5 509.7 1708.8 505.5 C 1702.0 504.7 1694.9 503.9 1687.7 503.2 C 1684.1 502.8 1679.4 502.3 1677.8 502.1 C 1676.2 502.0 1674.6 501.8 1673.0 501.6 C 1666.5 501.0 1660.0 500.3 1653.5 499.7 C 1640.3 498.4 1626.8 497.2 1613.1 496.0 C 1585.6 493.7 1557.0 491.6 1527.4 489.6 C 1507.8 488.4 1487.9 487.2 1466.9 486.0 C 1393.4 481.8 1318.9 479.4 1240.6 477.6 C 1201.5 476.8 1161.2 476.1 1119.8 475.5 C 1099.0 475.2 1010.0 475.3 978.5 475.7 C 993.7 475.4 964.9 475.5 933.2 476.0 C 901.5 476.4 867.2 477.2 870.5 477.2 C 854.5 477.7 837.9 478.2 821.4 478.7 C 804.9 479.2 825.7 478.6 846.7 478.1 C 828.1 478.7 809.6 479.3 790.9 479.9 C 771.4 480.5 751.9 481.2 732.2 482.0 C 667.8 484.4 601.3 488.3 547.4 492.4 C 528.9 493.7 506.9 495.4 483.2 497.5 C 471.3 498.5 459.1 499.7 446.7 500.9 C 443.6 501.2 440.5 501.5 437.4 501.8 C 436.6 501.9 435.8 502.0 435.0 502.1 C 434.2 502.1 432.6 502.3 430.8 502.5 C 427.3 502.9 423.7 503.2 420.2 503.6 C 406.1 505.1 392.5 506.7 379.4 508.3 C 326.8 514.7 282.6 522.1 249.7 529.7 C 216.8 537.4 195.3 545.2 183.2 553.7 C 177.1 557.9 173.1 562.6 171.8 568.1 C 170.5 573.7 172.7 579.2 176.1 583.2 C 183.0 591.2 194.5 596.2 205.3 600.3 C 216.2 604.5 226.2 607.2 230.3 608.3 C 234.5 609.5 232.6 609.0 224.3 606.6 C 205.6 601.0 198.2 597.4 193.9 595.3 C 189.6 593.2 188.9 592.6 189.7 593.1 C 191.4 593.9 200.9 598.4 209.4 601.5 C 219.3 605.0 234.7 609.6 257.4 614.6 C 256.7 614.5 254.9 614.2 251.6 613.5 C 272.3 618.3 301.6 623.9 341.0 629.5 C 360.7 632.4 382.8 635.2 407.3 637.9 C 413.5 638.6 419.8 639.3 426.1 639.9 C 429.3 640.3 433.5 640.7 434.9 640.8 C 436.3 641.0 437.7 641.1 439.2 641.2 C 444.9 641.8 450.7 642.4 456.5 642.9 C 452.2 642.5 447.3 642.0 443.0 641.5 C 438.6 641.1 435.9 640.8 431.4 640.3 C 434.7 640.6 435.7 640.7 436.8 640.8 C 438.0 640.9 439.0 641.0 439.8 641.1 C 441.6 641.3 442.8 641.4 443.7 641.5 C 445.5 641.6 445.9 641.6 446.0 641.6 C 446.2 641.6 445.3 641.4 453.0 642.2 C 474.5 644.2 491.2 645.6 495.7 645.9 C 500.1 646.3 492.2 645.7 466.9 643.4 C 513.9 647.5 545.9 649.6 597.5 652.6 C 617.0 653.9 606.4 653.2 600.5 652.9 C 617.7 654.0 646.3 655.7 672.2 657.0 C 698.1 658.3 721.0 659.3 724.9 659.5 C 728.8 659.7 672.0 657.3 622.1 654.5 C 572.2 651.6 529.0 648.3 547.9 649.7 C 563.2 650.9 595.9 653.0 608.5 653.8 C 580.5 652.2 547.2 649.8 530.3 648.6 C 548.6 650.0 575.2 651.9 590.1 652.9 C 571.6 651.7 559.1 650.8 553.8 650.5 C 580.2 652.4 600.5 653.8 633.6 655.6 C 648.2 656.4 620.9 654.8 652.4 656.5 C 658.1 656.7 631.7 655.3 633.6 655.3 C 658.9 656.7 710.6 659.1 723.6 659.6 C 736.3 660.1 691.9 658.2 690.9 658.1 C 791.4 662.7 914.0 665.0 951.8 665.4 C 990.1 665.8 954.2 665.4 938.1 665.2 C 982.4 665.7 1016.1 666.0 1069.1 665.9 C 1103.0 665.8 1089.5 665.8 1076.7 665.7 C 1085.7 665.7 1093.6 665.7 1098.8 665.6 C 1102.6 665.6 1112.3 665.5 1118.9 665.4 C 1098.2 665.5 1059.4 665.7 1042.4 665.6 C 1073.6 665.5 1147.6 665.1 1174.4 664.6 C 1131.8 665.1 1085.7 665.4 1037.5 665.3 C 1131.4 665.4 1227.5 664.2 1300.6 661.7 C 1287.5 662.1 1281.8 662.1 1270.9 662.4 C 1299.0 661.7 1340.0 660.5 1364.3 659.4 C 1377.8 658.8 1404.3 657.7 1430.2 656.4 C 1384.8 658.5 1353.3 659.6 1320.3 660.8 C 1321.0 660.7 1324.0 660.6 1329.6 660.4 C 1255.8 662.5 1212.0 663.8 1157.5 664.5 C 1153.3 664.6 1149.1 664.6 1144.8 664.6 C 1127.2 664.6 1189.2 664.0 1195.3 663.7 C 1115.1 665.0 1026.4 665.0 986.7 664.4 C 1082.7 665.2 1168.0 664.3 1239.1 662.6 C 1220.7 662.8 1148.6 664.1 1114.0 664.2 C 1192.7 663.6 1235.3 662.4 1260.0 661.8 C 1284.7 661.1 1291.7 660.9 1297.9 660.7 C 1286.1 661.0 1274.3 661.3 1262.1 661.6 C 1265.1 661.5 1268.2 661.4 1271.3 661.3 C 1338.8 659.5 1415.1 656.2 1411.2 656.3 C 1408.3 656.4 1349.1 659.0 1284.1 660.8 C 1290.8 660.5 1297.6 660.2 1304.5 659.9 C 1380.2 657.6 1463.0 653.5 1531.3 649.1 C 1520.1 649.7 1525.9 649.3 1540.0 648.3 C 1518.7 649.6 1487.6 651.5 1463.7 652.7 C 1471.9 652.2 1486.5 651.4 1491.2 651.0 C 1479.4 651.7 1460.6 652.7 1454.6 652.9 C 1488.4 651.1 1523.8 648.9 1557.2 646.5 C 1564.0 645.8 1542.6 647.5 1544.4 647.2 C 1576.4 645.0 1619.3 641.6 1640.8 639.4 C 1616.0 641.6 1565.0 645.6 1548.6 646.7 C 1559.2 645.9 1569.7 645.1 1580.4 644.2 C 1601.7 642.6 1611.7 641.7 1587.9 643.5 C 1575.2 644.4 1575.4 644.4 1578.6 644.1 C 1593.2 642.9 1642.1 638.7 1640.7 638.6 C 1634.7 639.2 1619.5 640.5 1604.0 641.8 C 1588.4 643.0 1572.5 644.2 1566.0 644.5 C 1575.7 643.7 1601.4 641.7 1604.0 641.4 C 1576.4 643.7 1562.5 644.6 1554.1 645.2 C 1545.6 645.8 1542.6 646.0 1535.3 646.5 C 1541.7 646.2 1558.0 645.0 1557.4 645.1 C 1522.3 647.6 1485.7 649.8 1446.9 651.8 C 1446.9 651.8 1446.9 651.8 1446.9 651.8 C 1446.9 651.8 1446.9 651.8 1446.9 651.8 C 1446.9 651.8 1446.9 651.8 1446.9 651.8 C 1450.4 651.5 1449.1 651.4 1445.6 651.5 C 1462.1 650.6 1479.2 649.7 1508.9 647.9 C 1500.9 648.1 1473.5 649.8 1447.5 651.2 C 1447.7 651.2 1447.9 651.1 1448.1 651.1 C 1490.3 648.9 1552.1 644.9 1591.3 641.7 C 1582.4 642.4 1561.2 644.0 1535.8 645.7 C 1510.4 647.4 1480.6 649.1 1456.0 650.4 C 1457.6 650.3 1459.1 650.2 1460.7 650.0 C 1399.0 653.4 1323.1 656.0 1248.5 657.9 C 1284.4 656.7 1326.2 655.8 1371.0 653.9 C 1391.7 653.1 1410.4 652.2 1429.9 651.2 C 1457.7 649.9 1512.0 646.9 1558.9 643.6 C 1605.7 640.3 1645.1 636.6 1653.1 635.7 C 1662.0 634.8 1631.1 637.8 1595.7 640.6 C 1560.3 643.4 1520.3 646.0 1519.8 645.9 C 1518.9 645.9 1591.7 640.8 1557.6 643.3 C 1539.9 644.6 1500.2 647.1 1470.4 648.8 C 1469.4 648.7 1468.3 648.6 1467.3 648.5 C 1493.3 647.1 1523.1 645.1 1524.3 645.4 C 1536.8 644.5 1562.3 642.8 1566.2 642.4 C 1562.0 642.7 1555.8 643.2 1555.8 643.1 C 1561.7 642.7 1570.3 642.1 1571.1 641.9 C 1541.8 644.1 1499.9 646.7 1465.7 648.5 C 1462.8 648.6 1459.9 648.7 1456.9 648.8 C 1457.5 648.7 1484.3 647.2 1506.6 645.8 C 1530.2 644.3 1481.4 647.3 1441.0 649.4 C 1434.6 649.6 1428.2 649.8 1421.5 650.1 C 1435.7 649.4 1451.9 648.6 1470.7 647.6 C 1492.6 646.3 1492.0 646.2 1513.3 644.7 C 1473.9 647.1 1424.4 649.6 1383.7 651.4 C 1368.8 651.8 1353.9 652.3 1338.3 652.7 C 1372.8 651.4 1403.9 649.9 1422.1 649.0 C 1436.9 648.3 1452.1 647.6 1457.4 647.2 C 1443.9 647.8 1479.0 645.9 1473.7 646.0 C 1454.7 647.2 1415.7 649.1 1401.5 649.9 C 1370.5 651.3 1335.8 652.5 1304.7 653.5 C 1300.7 653.6 1296.7 653.7 1292.6 653.7 C 1319.1 653.0 1344.1 652.1 1371.6 650.9 C 1359.1 651.2 1282.2 653.8 1224.9 655.1 C 1108.4 657.3 986.7 658.1 870.5 655.6 C 865.8 655.5 859.0 655.4 851.6 655.1 C 843.2 654.9 834.8 654.6 826.3 654.3 C 853.8 655.0 878.7 655.5 899.2 655.8 C 857.8 655.0 887.3 655.6 928.9 656.2 C 970.6 656.8 1024.8 657.0 1031.3 656.9 C 963.6 656.6 866.0 655.3 770.4 651.9 C 674.7 648.5 582.5 643.1 517.5 637.8 C 548.8 640.3 559.1 641.0 525.3 638.3 C 516.1 637.6 507.1 636.8 497.9 636.0 C 627.9 646.8 788.3 653.4 913.9 655.2 C 876.6 654.5 830.0 653.4 789.6 652.1 C 749.2 650.8 715.0 649.3 700.4 648.5 C 721.0 649.5 751.5 650.7 755.7 650.7 C 737.3 650.0 697.5 648.4 659.2 646.4 C 620.8 644.4 584.0 642.1 567.6 640.9 C 647.9 646.3 750.8 651.0 852.0 653.5 C 953.3 655.9 1051.5 656.1 1119.9 655.4 C 1016.5 656.3 893.6 655.0 780.5 651.2 C 723.9 649.3 669.8 646.8 621.2 644.0 C 572.6 641.2 529.4 638.0 493.4 635.0 C 518.4 637.2 518.9 637.3 505.6 636.3 C 483.0 634.4 461.2 632.4 439.8 630.3 C 438.5 630.2 437.2 630.1 435.8 629.9 C 434.5 629.8 430.6 629.4 427.6 629.1 C 421.7 628.5 415.7 627.8 410.0 627.2 C 398.4 625.9 387.3 624.6 376.5 623.3 C 355.1 620.6 335.2 617.8 317.1 615.0 C 309.8 613.8 307.5 613.4 311.2 614.0 C 314.9 614.5 324.4 616.1 343.5 618.8 C 375.0 623.2 397.0 625.6 409.1 626.9 C 402.8 626.2 380.0 623.6 356.2 620.4 C 332.4 617.2 307.9 613.3 291.6 610.3 C 275.2 607.4 266.0 605.4 269.1 606.0 C 270.6 606.3 275.1 607.2 284.7 609.0 C 294.2 610.8 308.6 613.4 332.1 616.9 C 355.6 620.4 384.0 624.1 417.1 627.6 C 421.2 628.1 425.5 628.5 429.7 629.0 C 431.8 629.2 434.7 629.5 435.6 629.6 C 436.6 629.7 437.5 629.8 438.5 629.9 C 442.3 630.2 446.1 630.6 450.0 631.0 C 457.8 631.8 465.7 632.5 473.6 633.2 C 505.4 636.1 537.9 638.5 563.7 640.3 C 589.5 642.1 608.5 643.2 612.9 643.4 C 617.3 643.7 606.9 643.1 576.3 641.1 C 515.2 636.9 476.5 633.2 459.3 631.6 C 442.1 629.9 445.9 630.3 476.5 633.0 C 491.9 634.4 516.0 636.4 543.5 638.4 C 570.9 640.4 601.7 642.3 628.8 643.8 C 682.9 646.9 721.1 648.4 683.4 646.5 C 645.9 644.7 588.7 641.5 533.9 637.3 C 506.5 635.2 479.7 632.9 455.5 630.6 C 449.5 630.0 443.7 629.4 437.9 628.8 C 437.2 628.8 436.5 628.7 435.8 628.6 C 435.1 628.6 433.1 628.4 431.6 628.2 C 428.4 627.9 425.2 627.5 422.1 627.2 C 415.9 626.5 410.0 625.9 404.2 625.2 C 381.1 622.6 361.1 620.1 344.2 617.7 C 327.2 615.3 317.0 613.6 310.6 612.6 C 304.2 611.6 301.6 611.1 301.2 611.1 C 300.5 611.0 308.7 612.5 315.5 613.7 C 322.3 614.9 327.4 615.7 319.2 614.5 C 315.1 613.9 307.7 612.8 296.6 610.8 C 285.5 608.9 270.6 606.2 253.8 602.3 C 237.1 598.4 226.9 595.4 219.7 593.1 C 212.6 590.8 208.6 589.2 206.1 588.1 C 201.0 586.0 201.6 586.2 203.7 587.1 C 208.1 588.9 222.4 593.9 213.9 590.9 C 207.1 588.5 200.0 585.6 194.5 582.5 C 188.9 579.3 185.0 575.8 183.9 573.6 C 182.7 571.4 182.5 570.7 185.2 567.6 C 187.9 564.5 194.2 560.2 203.9 556.1 C 217.5 550.3 240.8 543.6 269.7 537.7 C 298.5 531.7 332.7 526.6 357.7 523.3 C 356.8 523.4 341.2 525.5 322.4 528.4 C 303.5 531.3 282.0 535.2 265.5 538.7 C 249.0 542.2 237.3 545.3 232.5 546.7 C 227.6 548.0 228.4 547.6 242.0 544.2 C 275.5 535.7 325.0 527.2 383.1 520.2 C 397.7 518.4 412.8 516.7 428.0 515.1 C 429.9 514.9 431.9 514.7 433.8 514.5 C 435.7 514.3 436.3 514.2 437.2 514.2 C 438.9 514.0 440.5 513.8 442.2 513.7 C 445.5 513.3 448.8 513.0 452.0 512.7 C 464.9 511.4 477.2 510.3 488.1 509.4 C 510.1 507.4 526.9 506.1 534.2 505.6 C 541.6 505.0 539.4 505.1 524.4 506.2 C 605.2 499.9 671.4 496.7 728.4 494.3 C 817.0 490.9 925.7 489.0 937.7 488.9 C 944.7 488.8 1012.3 487.8 1090.2 488.1 C 1168.2 488.3 1255.4 490.2 1302.1 491.9 C 1305.6 492.0 1349.2 493.3 1392.4 495.0 C 1435.6 496.8 1478.0 499.1 1484.7 499.3 C 1558.5 503.7 1587.1 506.3 1615.7 508.8 C 1629.9 510.0 1643.9 511.3 1662.0 513.0 C 1666.5 513.5 1671.2 514.0 1676.3 514.5 C 1677.5 514.6 1680.7 514.9 1683.7 515.2 C 1686.6 515.5 1689.6 515.9 1692.6 516.2 C 1698.6 516.8 1704.7 517.5 1710.9 518.2 C 1735.7 521.0 1762.0 524.4 1788.7 528.5 C 1833.1 535.3 1860.0 541.4 1878.6 546.5 C 1897.2 551.5 1907.3 555.7 1914.0 558.9 C 1920.7 562.1 1923.7 564.5 1925.6 566.2 C 1927.5 567.9 1928.1 568.9 1928.5 569.6 C 1929.7 571.8 1929.4 572.2 1928.2 574.2 C 1926.9 576.1 1924.1 578.6 1920.6 580.8 C 1913.6 585.1 1904.7 588.7 1896.2 591.6 C 1887.7 594.5 1879.3 597.0 1868.9 599.7 C 1858.5 602.4 1846.2 605.4 1826.6 609.3 C 1814.7 611.7 1798.4 614.5 1782.0 617.1 C 1765.7 619.6 1749.6 621.8 1741.2 623.1 C 1724.5 625.7 1711.2 627.8 1703.9 629.2 C 1696.5 630.7 1695.1 631.5 1700.9 631.6 C 1700.9 631.6 1700.9 631.6 1700.9 631.6 Z M 1429.7 653.0 C 1453.0 651.9 1494.4 649.6 1517.8 648.2 C 1491.0 650.1 1457.0 651.9 1421.4 653.5 C 1424.1 653.3 1426.9 653.2 1429.7 653.0 C 1429.7 653.0 1429.7 653.0 1429.7 653.0 Z M 1243.0 656.5 C 1259.6 656.1 1279.6 655.7 1298.0 655.2 C 1315.5 654.6 1333.5 654.1 1359.5 653.0 C 1357.2 653.0 1314.2 654.5 1280.2 655.4 C 1280.2 655.4 1280.2 655.3 1280.2 655.3 C 1296.7 654.7 1316.2 654.1 1339.0 653.3 C 1346.8 653.1 1354.5 652.8 1362.4 652.5 C 1363.1 652.6 1350.9 653.1 1346.3 653.2 C 1352.2 653.2 1372.4 652.5 1398.0 651.5 C 1401.1 651.4 1404.2 651.3 1407.4 651.2 C 1411.0 651.1 1391.6 652.1 1413.2 651.1 C 1398.1 651.9 1358.3 653.4 1333.1 654.3 C 1347.2 653.7 1327.7 654.4 1301.1 655.1 C 1274.4 655.9 1240.5 656.7 1227.0 656.9 C 1232.3 656.8 1237.6 656.6 1243.0 656.5 Z M 1031.7 665.2 C 1016.7 665.2 1001.7 665.1 986.4 665.0 C 1008.5 665.1 1025.4 665.2 1041.0 665.2 C 1037.9 665.2 1034.8 665.2 1031.7 665.2 Z M 439.2 502.2 C 437.0 502.4 435.5 502.6 430.3 503.1 C 425.1 503.7 419.7 504.3 414.4 504.8 C 403.6 506.0 392.7 507.3 381.8 508.7 C 360.0 511.3 338.4 514.3 318.4 517.5 C 278.2 523.8 244.8 530.9 222.0 537.8 C 199.2 544.7 186.7 551.3 180.1 556.9 C 173.4 562.6 172.5 567.8 172.4 568.9 C 171.1 575.8 175.1 582.5 182.0 587.7 C 176.5 583.6 172.7 578.8 172.1 573.0 C 171.5 567.1 174.7 561.7 179.5 557.3 C 189.3 548.7 207.2 541.6 232.5 534.7 C 257.8 527.8 290.5 521.5 327.4 515.9 C 345.8 513.2 365.2 510.6 385.2 508.2 C 395.1 506.9 405.2 505.8 415.3 504.7 C 420.4 504.1 425.5 503.6 430.6 503.1 C 435.6 502.5 437.0 502.4 439.2 502.2 C 439.2 502.2 439.2 502.2 439.2 502.2 Z M 183.1 573.7 C 183.6 574.8 182.8 574.0 182.5 572.1 C 182.3 570.8 182.6 569.6 183.9 567.8 C 185.2 566.1 187.6 564.0 190.4 562.1 C 196.2 558.2 203.9 555.0 209.4 552.8 C 215.0 550.7 218.2 549.7 217.1 550.1 C 215.9 550.4 210.2 552.2 202.4 555.6 C 195.8 558.5 189.1 562.3 185.6 565.7 C 182.1 569.0 181.9 570.9 182.4 572.8 C 182.9 574.7 185.1 577.2 186.7 578.6 C 188.3 579.9 188.4 580.1 186.5 578.5 C 184.0 576.3 182.7 574.3 182.3 572.9 C 181.9 571.5 181.9 570.5 182.9 568.8 C 184.8 565.4 191.3 560.1 203.2 555.0 C 221.5 547.3 250.5 539.8 290.8 532.7 C 247.3 540.6 217.6 548.9 200.5 556.8 C 191.9 560.7 186.6 564.6 184.3 567.5 C 182.0 570.4 182.0 571.5 183.1 573.7 C 183.1 573.7 183.1 573.7 183.1 573.7 Z M 344.8 524.4 C 306.9 529.7 268.9 536.4 241.2 543.5 C 265.2 537.3 296.4 531.3 336.1 525.5 C 338.9 525.1 341.8 524.8 344.8 524.4 Z M 396.9 517.9 C 352.6 523.1 316.8 528.7 300.4 531.5 C 292.1 532.9 288.3 533.6 290.4 533.2 C 292.4 532.8 300.0 531.4 317.8 528.5 C 333.8 526.0 351.1 523.5 370.5 521.0 C 378.9 520.0 387.7 519.0 396.9 517.9 Z M 443.8 513.0 C 443.5 513.0 441.6 513.2 438.0 513.5 C 437.5 513.6 437.0 513.6 436.5 513.6 C 436.0 513.7 435.8 513.7 434.5 513.8 C 432.0 514.1 429.2 514.4 426.2 514.7 C 420.3 515.3 413.5 516.0 406.0 516.9 C 413.6 516.0 422.6 515.1 432.2 514.0 C 437.0 513.5 438.3 513.4 440.6 513.2 C 442.8 513.0 445.2 512.7 447.5 512.5 C 457.0 511.6 467.0 510.6 476.1 509.8 C 494.4 508.2 509.1 507.0 507.7 507.2 C 487.2 508.9 465.4 510.9 443.8 513.0 C 443.8 513.0 443.8 513.0 443.8 513.0 Z M 486.7 497.5 C 467.1 499.1 450.2 500.6 481.1 497.8 C 492.9 496.8 504.8 495.8 517.4 494.8 C 507.1 495.6 497.0 496.5 486.7 497.5 Z M 995.4 655.9 C 985.0 655.9 945.7 655.5 923.1 655.2 C 920.7 655.6 1009.9 656.2 995.4 655.9 C 995.4 655.9 995.4 655.9 995.4 655.9 Z M 1143.0 655.5 C 1133.0 655.6 1093.6 655.9 1070.4 656.0 C 1068.0 656.5 1157.4 655.5 1143.0 655.5 C 1143.0 655.5 1143.0 655.5 1143.0 655.5 Z M 1302.4 492.0 C 1302.3 491.9 1302.2 491.9 1302.1 491.9 C 1302.2 491.9 1302.3 491.9 1302.4 492.0 C 1302.4 492.0 1302.4 492.0 1302.4 492.0 Z M 1302.4 492.0 " fill="#FF3E47"></path></g></svg>