<?xml version="1.0" encoding="UTF-8" standalone="no"?><svg xmlns="http://www.w3.org/2000/svg" xmlns:xlink="http://www.w3.org/1999/xlink" clip-rule="evenodd" stroke-miterlimit="10" viewBox="0 0 1775 197"><desc>SVG generated by Keynote</desc><defs></defs><g transform="matrix(1.00, 0.00, -0.00, -1.00, 0.0, 197.0)"><path d="M 1218.5 184.8 C 1226.0 184.6 1258.0 183.2 1258.3 183.0 C 1246.4 183.6 1220.8 184.6 1218.5 184.8 C 1218.5 184.8 1218.5 184.8 1218.5 184.8 Z M 1153.0 187.3 C 1165.0 187.1 1191.1 186.0 1199.3 185.6 C 1185.5 186.2 1157.3 187.0 1153.0 187.3 C 1153.0 187.3 1153.0 187.3 1153.0 187.3 Z M 1252.8 182.9 C 1269.8 182.0 1300.8 180.5 1308.2 179.9 C 1291.7 180.9 1260.5 182.3 1252.8 182.9 C 1252.8 182.9 1252.8 182.9 1252.8 182.9 Z M 329.1 173.7 C 335.6 174.4 364.2 176.6 364.2 176.5 C 353.7 175.7 331.1 173.7 329.1 173.7 C 329.1 173.7 329.1 173.7 329.1 173.7 Z M 495.7 184.3 C 507.1 185.0 532.5 186.1 540.6 186.4 C 527.0 185.8 499.8 184.4 495.7 184.3 C 495.7 184.3 495.7 184.3 495.7 184.3 Z M 599.9 188.8 C 624.7 189.7 651.6 190.5 646.6 190.1 C 638.5 190.1 602.5 188.7 599.9 188.8 C 599.9 188.8 599.9 188.8 599.9 188.8 Z M 1231.8 176.2 C 1206.0 177.4 1186.8 178.0 1169.0 178.6 C 1079.2 181.7 1214.7 177.3 1231.8 176.2 C 1231.8 176.2 1231.8 176.2 1231.8 176.2 Z M 791.8 192.6 C 773.2 192.4 758.4 192.2 749.5 192.2 C 766.7 192.5 790.8 192.8 791.8 192.6 C 791.8 192.6 791.8 192.6 791.8 192.6 Z M 952.7 192.7 C 956.8 192.8 1052.0 191.6 1103.7 190.1 C 1059.7 191.2 948.5 192.7 952.7 192.7 C 952.7 192.7 952.7 192.7 952.7 192.7 Z M 1015.2 182.4 C 953.8 183.4 854.7 183.5 809.8 183.2 C 765.3 182.8 889.9 184.4 1003.2 182.9 C 1060.1 182.1 1064.8 181.7 1061.4 181.7 C 1058.0 181.6 1046.3 181.8 1069.2 181.2 C 1114.7 180.2 1025.3 182.0 979.1 182.6 C 933.3 183.2 1009.7 182.3 1015.2 182.4 C 1015.2 182.4 1015.2 182.4 1015.2 182.4 Z M 1018.0 181.6 C 1040.3 181.3 1059.3 180.9 1071.9 180.5 C 1049.1 181.0 1027.2 181.3 1018.0 181.6 C 1018.0 181.6 1018.0 181.6 1018.0 181.6 Z M 1531.9 158.6 C 1538.4 158.9 1564.5 156.9 1595.8 153.3 C 1627.1 149.8 1662.7 144.6 1691.1 138.6 C 1705.3 135.6 1717.6 132.6 1728.2 129.3 C 1747.2 123.3 1759.8 117.4 1766.6 109.7 C 1770.1 105.8 1772.0 101.0 1771.3 96.1 C 1770.5 91.3 1767.4 87.1 1763.0 83.4 C 1745.5 68.7 1703.6 56.8 1634.9 45.5 C 1607.7 41.0 1576.5 36.7 1539.8 32.5 C 1533.0 31.7 1525.9 30.9 1518.7 30.2 C 1515.1 29.8 1510.4 29.3 1508.8 29.1 C 1507.2 29.0 1505.6 28.8 1504.0 28.6 C 1497.5 28.0 1491.0 27.3 1484.5 26.7 C 1471.3 25.4 1457.8 24.2 1444.1 23.0 C 1416.6 20.7 1388.0 18.6 1358.4 16.6 C 1338.8 15.4 1318.9 14.2 1297.9 13.0 C 1224.4 8.8 1149.9 6.4 1071.6 4.6 C 1032.5 3.8 992.2 3.1 950.8 2.5 C 930.0 2.2 841.0 2.3 809.5 2.7 C 824.7 2.4 795.9 2.5 764.2 3.0 C 732.5 3.4 698.2 4.2 701.5 4.2 C 685.5 4.7 668.9 5.2 652.4 5.7 C 635.9 6.2 656.7 5.6 677.7 5.1 C 659.1 5.7 640.6 6.3 621.9 6.9 C 602.4 7.5 582.9 8.2 563.2 9.0 C 498.8 11.4 432.3 15.3 378.4 19.4 C 359.9 20.7 337.9 22.4 314.2 24.5 C 302.3 25.5 290.1 26.7 277.7 27.9 C 274.6 28.2 271.5 28.5 268.4 28.8 C 267.6 28.9 266.8 29.0 266.0 29.1 C 265.2 29.1 263.6 29.3 261.8 29.5 C 258.3 29.9 254.7 30.2 251.2 30.6 C 237.1 32.1 223.5 33.7 210.4 35.3 C 157.8 41.7 113.6 49.1 80.7 56.7 C 47.8 64.4 26.3 72.2 14.2 80.7 C 8.1 84.9 4.1 89.6 2.8 95.1 C 1.5 100.7 3.7 106.2 7.1 110.2 C 14.0 118.2 25.5 123.2 36.3 127.3 C 47.2 131.5 57.2 134.2 61.3 135.3 C 65.5 136.5 63.6 136.0 55.3 133.6 C 36.6 128.0 29.2 124.4 24.9 122.3 C 20.6 120.2 19.9 119.6 20.7 120.1 C 22.4 120.9 31.9 125.4 40.4 128.5 C 50.3 132.0 65.7 136.6 88.4 141.6 C 87.7 141.5 85.9 141.2 82.6 140.5 C 103.3 145.3 132.6 150.9 172.0 156.5 C 191.7 159.4 213.8 162.2 238.3 164.9 C 244.5 165.6 250.8 166.3 257.1 166.9 C 260.3 167.3 264.5 167.7 265.9 167.8 C 267.3 168.0 268.7 168.1 270.2 168.2 C 275.9 168.8 281.7 169.4 287.5 169.9 C 283.2 169.5 278.3 169.0 274.0 168.5 C 269.6 168.1 266.9 167.8 262.4 167.3 C 265.7 167.6 266.7 167.7 267.8 167.8 C 269.0 167.9 270.0 168.0 270.8 168.1 C 272.6 168.3 273.8 168.4 274.7 168.5 C 276.5 168.6 276.9 168.6 277.0 168.6 C 277.2 168.6 276.3 168.4 284.0 169.2 C 305.5 171.2 322.2 172.6 326.7 172.9 C 331.1 173.3 323.2 172.7 297.9 170.4 C 344.9 174.5 376.9 176.6 428.5 179.6 C 448.0 180.9 437.4 180.2 431.5 179.9 C 448.7 181.0 477.3 182.7 503.2 184.0 C 529.1 185.3 552.0 186.3 555.9 186.5 C 559.8 186.7 503.0 184.3 453.1 181.5 C 403.2 178.6 360.0 175.3 378.9 176.7 C 394.2 177.9 426.9 180.0 439.5 180.8 C 411.5 179.2 378.2 176.8 361.3 175.6 C 379.6 177.0 406.2 178.9 421.1 179.9 C 402.6 178.7 390.1 177.8 384.8 177.5 C 411.2 179.4 431.5 180.8 464.6 182.6 C 479.2 183.4 451.9 181.8 483.4 183.5 C 489.1 183.7 462.7 182.3 464.6 182.3 C 489.9 183.7 541.6 186.1 554.6 186.6 C 567.3 187.1 522.9 185.2 521.9 185.1 C 622.4 189.7 745.0 192.0 782.8 192.4 C 821.1 192.8 785.2 192.4 769.1 192.2 C 813.4 192.7 847.1 193.0 900.1 192.9 C 934.0 192.8 920.5 192.8 907.7 192.7 C 916.7 192.7 924.6 192.7 929.8 192.6 C 933.6 192.6 943.3 192.5 949.9 192.4 C 929.2 192.5 890.4 192.7 873.4 192.6 C 904.6 192.5 978.6 192.1 1005.4 191.6 C 962.8 192.1 916.7 192.4 868.5 192.3 C 962.4 192.4 1058.5 191.2 1131.6 188.7 C 1118.5 189.1 1112.8 189.1 1101.9 189.4 C 1130.0 188.7 1171.0 187.5 1195.3 186.4 C 1208.8 185.8 1235.3 184.7 1261.2 183.4 C 1215.8 185.5 1184.3 186.6 1151.3 187.8 C 1152.0 187.7 1155.0 187.6 1160.6 187.4 C 1086.8 189.5 1043.0 190.8 988.5 191.5 C 984.3 191.6 980.1 191.6 975.8 191.6 C 958.2 191.6 1020.2 191.0 1026.3 190.7 C 946.1 192.0 857.4 192.0 817.7 191.4 C 913.7 192.2 999.0 191.3 1070.1 189.6 C 1051.7 189.8 979.6 191.1 945.0 191.2 C 1023.7 190.6 1066.3 189.4 1091.0 188.8 C 1115.7 188.1 1122.7 187.9 1128.9 187.7 C 1117.1 188.0 1105.3 188.3 1093.1 188.6 C 1096.1 188.5 1099.2 188.4 1102.3 188.3 C 1169.8 186.5 1246.1 183.2 1242.2 183.3 C 1239.3 183.4 1180.1 186.0 1115.1 187.8 C 1121.8 187.5 1128.6 187.2 1135.5 186.9 C 1211.2 184.6 1294.0 180.5 1362.3 176.1 C 1351.1 176.7 1356.9 176.3 1371.0 175.3 C 1349.7 176.6 1318.6 178.5 1294.7 179.7 C 1302.9 179.2 1317.5 178.4 1322.2 178.0 C 1310.4 178.7 1291.6 179.7 1285.6 179.9 C 1319.4 178.1 1354.8 175.9 1388.2 173.5 C 1395.0 172.8 1373.6 174.5 1375.4 174.2 C 1407.4 172.0 1450.3 168.6 1471.8 166.4 C 1447.0 168.6 1396.0 172.6 1379.6 173.7 C 1390.2 172.9 1400.7 172.1 1411.4 171.2 C 1432.7 169.6 1442.7 168.7 1418.9 170.5 C 1406.2 171.4 1406.4 171.4 1409.6 171.1 C 1424.2 169.9 1473.1 165.7 1471.7 165.6 C 1465.7 166.2 1450.5 167.5 1435.0 168.8 C 1419.4 170.0 1403.5 171.2 1397.0 171.5 C 1406.7 170.7 1432.4 168.7 1435.0 168.4 C 1407.4 170.7 1393.5 171.6 1385.1 172.2 C 1376.6 172.8 1373.6 173.0 1366.3 173.5 C 1372.7 173.2 1389.0 172.0 1388.4 172.1 C 1353.3 174.6 1316.7 176.8 1277.9 178.8 C 1277.9 178.8 1277.9 178.8 1277.9 178.8 C 1277.9 178.8 1277.9 178.8 1277.9 178.8 C 1277.9 178.8 1277.9 178.8 1277.9 178.8 C 1281.4 178.5 1280.1 178.4 1276.6 178.5 C 1293.1 177.6 1310.2 176.7 1339.9 174.9 C 1331.9 175.1 1304.5 176.8 1278.5 178.2 C 1278.7 178.2 1278.9 178.1 1279.1 178.1 C 1321.3 175.9 1383.1 171.9 1422.3 168.7 C 1413.4 169.4 1392.2 171.0 1366.8 172.7 C 1341.4 174.4 1311.6 176.1 1287.0 177.4 C 1288.6 177.3 1290.1 177.2 1291.7 177.0 C 1230.0 180.4 1154.1 183.0 1079.5 184.9 C 1115.4 183.7 1157.2 182.8 1202.0 180.9 C 1222.7 180.1 1241.4 179.2 1260.9 178.2 C 1288.7 176.9 1343.0 173.9 1389.9 170.6 C 1436.7 167.3 1476.1 163.6 1484.1 162.7 C 1493.0 161.8 1462.1 164.8 1426.7 167.6 C 1391.3 170.4 1351.3 173.0 1350.8 172.9 C 1349.9 172.9 1422.7 167.8 1388.6 170.3 C 1370.9 171.6 1331.2 174.1 1301.4 175.8 C 1300.4 175.7 1299.3 175.6 1298.3 175.5 C 1324.3 174.1 1354.1 172.1 1355.3 172.4 C 1367.8 171.5 1393.3 169.8 1397.2 169.4 C 1393.0 169.7 1386.8 170.2 1386.8 170.1 C 1392.7 169.7 1401.3 169.1 1402.1 168.9 C 1372.8 171.1 1330.9 173.7 1296.7 175.5 C 1293.8 175.6 1290.9 175.7 1287.9 175.8 C 1288.5 175.7 1315.3 174.2 1337.6 172.8 C 1361.2 171.3 1312.4 174.3 1272.0 176.4 C 1265.6 176.6 1259.2 176.8 1252.5 177.1 C 1266.7 176.4 1282.9 175.6 1301.7 174.6 C 1323.6 173.3 1323.0 173.2 1344.3 171.7 C 1304.9 174.1 1255.4 176.7 1214.7 178.4 C 1199.8 178.8 1184.9 179.3 1169.3 179.7 C 1203.8 178.4 1234.9 176.9 1253.1 176.0 C 1267.9 175.3 1283.1 174.6 1288.4 174.2 C 1274.9 174.8 1310.0 172.9 1304.7 173.0 C 1285.7 174.2 1246.7 176.1 1232.5 176.9 C 1201.5 178.3 1166.8 179.5 1135.7 180.5 C 1131.7 180.6 1127.7 180.7 1123.6 180.7 C 1150.1 180.0 1175.1 179.1 1202.6 177.9 C 1190.1 178.2 1113.2 180.8 1055.9 182.1 C 939.4 184.3 817.7 185.1 701.5 182.6 C 696.8 182.5 690.0 182.4 682.6 182.1 C 674.2 181.9 665.8 181.6 657.3 181.3 C 684.8 182.0 709.7 182.5 730.2 182.8 C 688.8 182.0 718.3 182.6 759.9 183.2 C 801.6 183.8 855.8 184.0 862.3 183.9 C 794.6 183.6 697.0 182.3 601.4 178.9 C 505.7 175.5 413.5 170.1 348.5 164.8 C 379.8 167.3 390.1 168.0 356.3 165.3 C 347.1 164.6 338.1 163.8 328.9 163.0 C 458.9 173.8 619.3 180.4 744.9 182.2 C 707.6 181.5 661.0 180.4 620.6 179.1 C 580.2 177.8 546.0 176.3 531.4 175.5 C 552.0 176.5 582.5 177.7 586.7 177.7 C 568.3 177.0 528.5 175.4 490.2 173.4 C 451.8 171.4 415.0 169.1 398.6 167.9 C 478.9 173.3 581.8 178.0 683.0 180.5 C 784.3 182.9 882.5 183.1 950.9 182.4 C 847.5 183.3 724.6 182.0 611.5 178.2 C 554.9 176.3 500.8 173.8 452.2 171.0 C 403.6 168.2 360.4 165.0 324.4 162.0 C 349.4 164.2 349.9 164.3 336.6 163.3 C 314.0 161.4 292.2 159.4 270.8 157.3 C 269.5 157.2 268.2 157.1 266.8 156.9 C 265.5 156.8 261.6 156.4 258.6 156.1 C 252.7 155.5 246.7 154.8 241.0 154.2 C 229.4 152.9 218.3 151.6 207.5 150.3 C 186.1 147.6 166.2 144.8 148.1 142.0 C 140.8 140.8 138.5 140.4 142.2 141.0 C 145.9 141.5 155.4 143.1 174.5 145.8 C 206.0 150.2 228.0 152.6 240.1 153.9 C 233.8 153.2 211.0 150.6 187.2 147.4 C 163.4 144.2 138.9 140.3 122.6 137.3 C 106.2 134.4 97.0 132.4 100.1 133.0 C 101.6 133.3 106.1 134.2 115.7 136.0 C 125.2 137.8 139.6 140.4 163.1 143.9 C 186.6 147.4 215.0 151.1 248.1 154.6 C 252.2 155.1 256.5 155.5 260.7 156.0 C 262.8 156.2 265.7 156.5 266.6 156.6 C 267.6 156.7 268.5 156.8 269.5 156.9 C 273.3 157.2 277.1 157.6 281.0 158.0 C 288.8 158.8 296.7 159.5 304.6 160.2 C 336.4 163.1 368.9 165.5 394.7 167.3 C 420.5 169.1 439.5 170.2 443.9 170.4 C 448.3 170.7 437.9 170.1 407.3 168.1 C 346.2 163.9 307.5 160.2 290.3 158.6 C 273.1 156.9 276.9 157.3 307.5 160.0 C 322.9 161.4 347.0 163.4 374.5 165.4 C 401.9 167.4 432.7 169.3 459.8 170.8 C 513.9 173.9 552.1 175.4 514.4 173.5 C 476.9 171.7 419.7 168.5 364.9 164.3 C 337.5 162.2 310.7 159.9 286.5 157.6 C 280.5 157.0 274.7 156.4 268.9 155.8 C 268.2 155.8 267.5 155.7 266.8 155.6 C 266.1 155.6 264.1 155.4 262.6 155.2 C 259.4 154.9 256.2 154.5 253.1 154.2 C 246.9 153.5 241.0 152.9 235.2 152.2 C 212.1 149.6 192.1 147.1 175.2 144.7 C 158.2 142.3 148.0 140.6 141.6 139.6 C 135.2 138.6 132.6 138.1 132.2 138.1 C 131.5 138.0 139.7 139.5 146.5 140.7 C 153.3 141.9 158.4 142.7 150.2 141.5 C 146.1 140.9 138.7 139.8 127.6 137.8 C 116.5 135.9 101.6 133.2 84.8 129.3 C 68.1 125.4 57.9 122.4 50.7 120.1 C 43.6 117.8 39.6 116.2 37.1 115.1 C 32.0 113.0 32.6 113.2 34.7 114.1 C 39.1 115.9 53.4 120.9 44.9 117.9 C 38.1 115.5 31.0 112.6 25.5 109.5 C 19.9 106.3 16.0 102.8 14.9 100.6 C 13.7 98.4 13.5 97.7 16.2 94.6 C 18.9 91.5 25.2 87.2 34.9 83.1 C 48.5 77.3 71.8 70.6 100.7 64.7 C 129.5 58.7 163.7 53.6 188.7 50.3 C 187.8 50.4 172.2 52.5 153.4 55.4 C 134.5 58.3 113.0 62.2 96.5 65.7 C 80.0 69.2 68.3 72.3 63.5 73.7 C 58.6 75.0 59.4 74.6 73.0 71.2 C 106.5 62.7 156.0 54.2 214.1 47.2 C 228.7 45.4 243.8 43.7 259.0 42.1 C 260.9 41.9 262.9 41.7 264.8 41.5 C 266.7 41.3 267.3 41.2 268.2 41.2 C 269.9 41.0 271.5 40.8 273.2 40.7 C 276.5 40.3 279.8 40.0 283.0 39.7 C 295.9 38.4 308.2 37.3 319.1 36.4 C 341.1 34.4 357.9 33.1 365.2 32.6 C 372.6 32.0 370.4 32.1 355.4 33.2 C 436.2 26.9 502.4 23.7 559.4 21.3 C 648.0 17.9 756.7 16.0 768.7 15.9 C 775.7 15.8 843.3 14.8 921.2 15.1 C 999.2 15.3 1086.4 17.2 1133.1 18.9 C 1136.6 19.0 1180.2 20.3 1223.4 22.0 C 1266.6 23.8 1309.0 26.1 1315.7 26.3 C 1389.5 30.7 1418.1 33.3 1446.7 35.8 C 1460.9 37.0 1474.9 38.3 1493.0 40.0 C 1497.5 40.5 1502.2 41.0 1507.3 41.5 C 1508.5 41.6 1511.7 41.9 1514.7 42.2 C 1517.6 42.5 1520.6 42.9 1523.6 43.2 C 1529.6 43.8 1535.7 44.5 1541.9 45.2 C 1566.7 48.0 1593.0 51.4 1619.7 55.5 C 1664.1 62.3 1691.0 68.4 1709.6 73.5 C 1728.2 78.5 1738.3 82.7 1745.0 85.9 C 1751.7 89.1 1754.7 91.5 1756.6 93.2 C 1758.5 94.9 1759.1 95.9 1759.5 96.6 C 1760.7 98.8 1760.4 99.2 1759.2 101.2 C 1757.9 103.1 1755.1 105.6 1751.6 107.8 C 1744.6 112.1 1735.7 115.7 1727.2 118.6 C 1718.7 121.5 1710.3 124.0 1699.9 126.7 C 1689.5 129.4 1677.2 132.4 1657.6 136.3 C 1645.7 138.7 1629.4 141.5 1613.0 144.1 C 1596.7 146.6 1580.6 148.8 1572.2 150.1 C 1555.5 152.7 1542.2 154.8 1534.9 156.2 C 1527.5 157.7 1526.1 158.5 1531.9 158.6 C 1531.9 158.6 1531.9 158.6 1531.9 158.6 Z M 1260.7 180.0 C 1284.0 178.9 1325.4 176.6 1348.8 175.2 C 1322.0 177.1 1288.0 178.9 1252.4 180.5 C 1255.1 180.3 1257.9 180.2 1260.7 180.0 C 1260.7 180.0 1260.7 180.0 1260.7 180.0 Z M 1074.0 183.5 C 1090.6 183.1 1110.6 182.7 1129.0 182.2 C 1146.5 181.6 1164.5 181.1 1190.5 180.0 C 1188.2 180.0 1145.2 181.5 1111.2 182.4 C 1111.2 182.4 1111.2 182.3 1111.2 182.3 C 1127.7 181.7 1147.2 181.1 1170.0 180.3 C 1177.8 180.1 1185.5 179.8 1193.4 179.5 C 1194.1 179.6 1181.9 180.1 1177.3 180.2 C 1183.2 180.2 1203.4 179.5 1229.0 178.5 C 1232.1 178.4 1235.2 178.3 1238.4 178.2 C 1242.0 178.1 1222.6 179.1 1244.2 178.1 C 1229.1 178.9 1189.3 180.4 1164.1 181.3 C 1178.2 180.7 1158.7 181.4 1132.1 182.1 C 1105.4 182.9 1071.5 183.7 1058.0 183.9 C 1063.3 183.8 1068.6 183.6 1074.0 183.5 Z M 862.7 192.2 C 847.7 192.2 832.7 192.1 817.4 192.0 C 839.5 192.1 856.4 192.2 872.0 192.2 C 868.9 192.2 865.8 192.2 862.7 192.2 Z M 270.2 29.2 C 268.0 29.4 266.5 29.6 261.3 30.1 C 256.1 30.7 250.7 31.3 245.4 31.8 C 234.6 33.0 223.7 34.3 212.8 35.7 C 191.0 38.3 169.4 41.3 149.4 44.5 C 109.2 50.8 75.8 57.9 53.0 64.8 C 30.2 71.7 17.7 78.3 11.1 83.9 C 4.4 89.6 3.5 94.8 3.4 95.9 C 2.1 102.8 6.1 109.5 13.0 114.7 C 7.5 110.6 3.7 105.8 3.1 100.0 C 2.5 94.1 5.7 88.7 10.5 84.3 C 20.3 75.7 38.2 68.6 63.5 61.7 C 88.8 54.8 121.5 48.5 158.4 42.9 C 176.8 40.2 196.2 37.6 216.2 35.2 C 226.1 33.9 236.2 32.8 246.3 31.7 C 251.4 31.1 256.5 30.6 261.6 30.1 C 266.6 29.5 268.0 29.4 270.2 29.2 C 270.2 29.2 270.2 29.2 270.2 29.2 Z M 14.1 100.7 C 14.6 101.8 13.8 101.0 13.5 99.1 C 13.3 97.8 13.6 96.6 14.9 94.8 C 16.2 93.1 18.6 91.0 21.4 89.1 C 27.2 85.2 34.9 82.0 40.4 79.8 C 46.0 77.7 49.2 76.7 48.1 77.1 C 46.9 77.4 41.2 79.2 33.4 82.6 C 26.8 85.5 20.1 89.3 16.6 92.7 C 13.1 96.0 12.9 97.9 13.4 99.8 C 13.9 101.7 16.1 104.2 17.7 105.6 C 19.3 106.9 19.4 107.1 17.5 105.5 C 15.0 103.3 13.7 101.3 13.3 99.9 C 12.9 98.5 12.9 97.5 13.9 95.8 C 15.8 92.4 22.3 87.1 34.2 82.0 C 52.5 74.3 81.5 66.8 121.8 59.7 C 78.3 67.6 48.6 75.9 31.5 83.8 C 22.9 87.7 17.6 91.6 15.3 94.5 C 13.0 97.4 13.0 98.5 14.1 100.7 C 14.1 100.7 14.1 100.7 14.1 100.7 Z M 175.8 51.4 C 137.9 56.7 99.9 63.4 72.2 70.5 C 96.2 64.3 127.4 58.3 167.1 52.5 C 169.9 52.1 172.8 51.8 175.8 51.4 Z M 227.9 44.9 C 183.6 50.1 147.8 55.7 131.4 58.5 C 123.1 59.9 119.3 60.6 121.4 60.2 C 123.4 59.8 131.0 58.4 148.8 55.5 C 164.8 53.0 182.1 50.5 201.5 48.0 C 209.9 47.0 218.7 46.0 227.9 44.9 Z M 274.8 40.0 C 274.5 40.0 272.6 40.2 269.0 40.5 C 268.5 40.6 268.0 40.6 267.5 40.6 C 267.0 40.7 266.8 40.7 265.5 40.8 C 263.0 41.1 260.2 41.4 257.2 41.7 C 251.3 42.3 244.5 43.0 237.0 43.9 C 244.6 43.0 253.6 42.1 263.2 41.0 C 268.0 40.5 269.3 40.4 271.6 40.2 C 273.8 40.0 276.2 39.7 278.5 39.5 C 288.0 38.6 298.0 37.6 307.1 36.8 C 325.4 35.2 340.1 34.0 338.7 34.2 C 318.2 35.9 296.4 37.9 274.8 40.0 C 274.8 40.0 274.8 40.0 274.8 40.0 Z M 317.7 24.5 C 298.1 26.1 281.2 27.6 312.1 24.8 C 323.9 23.8 335.8 22.8 348.4 21.8 C 338.1 22.6 328.0 23.5 317.7 24.5 Z M 826.4 182.9 C 816.0 182.9 776.7 182.5 754.1 182.2 C 751.7 182.6 840.9 183.2 826.4 182.9 C 826.4 182.9 826.4 182.9 826.4 182.9 Z M 974.0 182.5 C 964.0 182.6 924.6 182.9 901.4 183.0 C 899.0 183.5 988.4 182.5 974.0 182.5 C 974.0 182.5 974.0 182.5 974.0 182.5 Z M 1133.4 19.0 C 1133.3 18.9 1133.2 18.9 1133.1 18.9 C 1133.2 18.9 1133.3 18.9 1133.4 19.0 C 1133.4 19.0 1133.4 19.0 1133.4 19.0 Z M 1133.4 19.0 " fill="#FF3E47"></path></g></svg>