<?xml version="1.0" encoding="UTF-8" standalone="no"?><svg xmlns="http://www.w3.org/2000/svg" xmlns:xlink="http://www.w3.org/1999/xlink" clip-rule="evenodd" stroke-miterlimit="10" viewBox="0 0 1920 1080"><desc>SVG generated by Keynote</desc><defs></defs><g transform="matrix(1.00, 0.00, -0.00, -1.00, 0.0, 1080.0)"><path d="M 0.0 1080.0 L 1920.0 1080.0 L 1920.0 0.0 L 0.0 0.0 Z M 0.0 1080.0 " fill="#383838"></path><text xml:space="preserve" font-family="Futura-Medium,Futura" font-size="120.0" fill="#FF3E47" transform="matrix(1.00, 0.00, -0.00, -1.00, 230.7, 913.0)">A</text><text xml:space="preserve" font-family="Futura-Medium,Futura" font-size="120.0" fill="#FF3E47" transform="matrix(1.00, 0.00, -0.00, -1.00, 319.6, 913.0)">n</text><text xml:space="preserve" font-family="Futura-Medium,Futura" font-size="120.0" fill="#FF3E47" transform="matrix(1.00, 0.00, -0.00, -1.00, 385.4, 913.0)">i</text><text xml:space="preserve" font-family="Futura-Medium,Futura" font-size="120.0" fill="#FF3E47" transform="matrix(1.00, 0.00, -0.00, -1.00, 415.3, 913.0)">m</text><text xml:space="preserve" font-family="Futura-Medium,Futura" font-size="120.0" fill="#FF3E47" transform="matrix(1.00, 0.00, -0.00, -1.00, 510.2, 913.0)">a</text><text xml:space="preserve" font-family="Futura-Medium,Futura" font-size="120.0" fill="#FF3E47" transform="matrix(1.00, 0.00, -0.00, -1.00, 582.1, 913.0)">t</text><text xml:space="preserve" font-family="Futura-Medium,Futura" font-size="120.0" fill="#FF3E47" transform="matrix(1.00, 0.00, -0.00, -1.00, 615.0, 913.0)">i</text><text xml:space="preserve" font-family="Futura-Medium,Futura" font-size="120.0" fill="#FF3E47" transform="matrix(1.00, 0.00, -0.00, -1.00, 644.9, 913.0)">o</text><text xml:space="preserve" font-family="Futura-Medium,Futura" font-size="120.0" fill="#FF3E47" transform="matrix(1.00, 0.00, -0.00, -1.00, 717.0, 913.0)">n</text><text xml:space="preserve" font-family="Futura-Medium,Futura" font-size="120.0" fill="#FF3E47" transform="matrix(1.00, 0.00, -0.00, -1.00, 782.9, 913.0)">s</text><text xml:space="preserve" font-family="Futura-Medium,Futura" font-size="120.0" fill="#FF3E47" transform="matrix(1.00, 0.00, -0.00, -1.00, 831.5, 913.0)"> </text><text xml:space="preserve" font-family="Futura-Medium,Futura" font-size="120.0" fill="#FF3E47" transform="matrix(1.00, 0.00, -0.00, -1.00, 868.5, 913.0)">a</text><text xml:space="preserve" font-family="Futura-Medium,Futura" font-size="120.0" fill="#FF3E47" transform="matrix(1.00, 0.00, -0.00, -1.00, 940.4, 913.0)">r</text><text xml:space="preserve" font-family="Futura-Medium,Futura" font-size="120.0" fill="#FF3E47" transform="matrix(1.00, 0.00, -0.00, -1.00, 984.5, 913.0)">e</text><text xml:space="preserve" font-family="Futura-Medium,Futura" font-size="120.0" fill="#FF3E47" transform="matrix(1.00, 0.00, -0.00, -1.00, 1050.9, 913.0)"> </text><text xml:space="preserve" font-family="Futura-Medium,Futura" font-size="120.0" fill="#FF3E47" transform="matrix(1.00, 0.00, -0.00, -1.00, 1087.9, 913.0)">f</text><text xml:space="preserve" font-family="Futura-Medium,Futura" font-size="120.0" fill="#FF3E47" transform="matrix(1.00, 0.00, -0.00, -1.00, 1125.0, 913.0)">o</text><text xml:space="preserve" font-family="Futura-Medium,Futura" font-size="120.0" fill="#FF3E47" transform="matrix(1.00, 0.00, -0.00, -1.00, 1197.1, 913.0)">r</text><text xml:space="preserve" font-family="Futura-Medium,Futura" font-size="120.0" fill="#FF3E47" transform="matrix(1.00, 0.00, -0.00, -1.00, 1242.0, 913.0)"> </text><text xml:space="preserve" font-family="Futura-Medium,Futura" font-size="120.0" fill="#FF3E47" transform="matrix(1.00, 0.00, -0.00, -1.00, 1279.0, 913.0)">h</text><text xml:space="preserve" font-family="Futura-Medium,Futura" font-size="120.0" fill="#FF3E47" transform="matrix(1.00, 0.00, -0.00, -1.00, 1344.8, 913.0)">i</text><text xml:space="preserve" font-family="Futura-Medium,Futura" font-size="120.0" fill="#FF3E47" transform="matrix(1.00, 0.00, -0.00, -1.00, 1374.7, 913.0)">p</text><text xml:space="preserve" font-family="Futura-Medium,Futura" font-size="120.0" fill="#FF3E47" transform="matrix(1.00, 0.00, -0.00, -1.00, 1446.6, 913.0)">s</text><text xml:space="preserve" font-family="Futura-Medium,Futura" font-size="120.0" fill="#FF3E47" transform="matrix(1.00, 0.00, -0.00, -1.00, 1495.3, 913.0)">t</text><text xml:space="preserve" font-family="Futura-Medium,Futura" font-size="120.0" fill="#FF3E47" transform="matrix(1.00, 0.00, -0.00, -1.00, 1529.2, 913.0)">e</text><text xml:space="preserve" font-family="Futura-Medium,Futura" font-size="120.0" fill="#FF3E47" transform="matrix(1.00, 0.00, -0.00, -1.00, 1595.6, 913.0)">r</text><text xml:space="preserve" font-family="Futura-Medium,Futura" font-size="120.0" fill="#FF3E47" transform="matrix(1.00, 0.00, -0.00, -1.00, 1640.5, 913.0)">s</text></g></svg>