<?xml version="1.0" encoding="UTF-8" standalone="no"?><svg xmlns="http://www.w3.org/2000/svg" xmlns:xlink="http://www.w3.org/1999/xlink" clip-rule="evenodd" stroke-miterlimit="10" viewBox="0 0 1920 1080"><desc>SVG generated by Keynote</desc><defs></defs><g transform="matrix(1.00, 0.00, -0.00, -1.00, 0.0, 1080.0)"><path d="M 0.0 1080.0 L 1920.0 1080.0 L 1920.0 0.0 L 0.0 0.0 Z M 0.0 1080.0 " fill="#F0F1EC"></path><text xml:space="preserve" font-family="Futura-Medium,Futura" font-size="252.0" fill="#FF3E47" transform="matrix(1.00, 0.00, -0.00, -1.00, 448.6, 498.3)">A</text><text xml:space="preserve" font-family="Futura-Medium,Futura" font-size="252.0" fill="#FF3E47" transform="matrix(1.00, 0.00, -0.00, -1.00, 635.1, 498.3)">n</text><text xml:space="preserve" font-family="Futura-Medium,Futura" font-size="252.0" fill="#FF3E47" transform="matrix(1.00, 0.00, -0.00, -1.00, 773.4, 498.3)">i</text><text xml:space="preserve" font-family="Futura-Medium,Futura" font-size="252.0" fill="#FF3E47" transform="matrix(1.00, 0.00, -0.00, -1.00, 836.2, 498.3)">m</text><text xml:space="preserve" font-family="Futura-Medium,Futura" font-size="252.0" fill="#FF3E47" transform="matrix(1.00, 0.00, -0.00, -1.00, 1035.5, 498.3)">e</text><text xml:space="preserve" font-family="Futura-Medium,Futura" font-size="252.0" fill="#FF3E47" transform="matrix(1.00, 0.00, -0.00, -1.00, 1175.0, 498.3)">-</text><text xml:space="preserve" font-family="Futura-Medium,Futura" font-size="252.0" fill="#FF3E47" transform="matrix(1.00, 0.00, -0.00, -1.00, 1229.8, 498.3)">s</text><text xml:space="preserve" font-family="Futura-Medium,Futura" font-size="252.0" fill="#FF3E47" transform="matrix(1.00, 0.00, -0.00, -1.00, 1332.0, 498.3)">e</text><text xml:space="preserve" font-family="Futura-Medium,Futura" font-size="120.0" fill="#787878" transform="matrix(1.00, 0.00, -0.00, -1.00, 502.6, 343.7)">e</text><text xml:space="preserve" font-family="Futura-Medium,Futura" font-size="120.0" fill="#787878" transform="matrix(1.00, 0.00, -0.00, -1.00, 569.0, 343.7)">n</text><text xml:space="preserve" font-family="Futura-Medium,Futura" font-size="120.0" fill="#787878" transform="matrix(1.00, 0.00, -0.00, -1.00, 634.8, 343.7)">c</text><text xml:space="preserve" font-family="Futura-Medium,Futura" font-size="120.0" fill="#787878" transform="matrix(1.00, 0.00, -0.00, -1.00, 691.9, 343.7)">a</text><text xml:space="preserve" font-family="Futura-Medium,Futura" font-size="120.0" fill="#787878" transform="matrix(1.00, 0.00, -0.00, -1.00, 763.9, 343.7)">n</text><text xml:space="preserve" font-family="Futura-Medium,Futura" font-size="120.0" fill="#787878" transform="matrix(1.00, 0.00, -0.00, -1.00, 829.7, 343.7)">t</text><text xml:space="preserve" font-family="Futura-Medium,Futura" font-size="120.0" fill="#787878" transform="matrix(1.00, 0.00, -0.00, -1.00, 863.6, 343.7)">e</text><text xml:space="preserve" font-family="Futura-Medium,Futura" font-size="120.0" fill="#787878" transform="matrix(1.00, 0.00, -0.00, -1.00, 930.0, 343.7)"> </text><text xml:space="preserve" font-family="Futura-Medium,Futura" font-size="120.0" fill="#787878" transform="matrix(1.00, 0.00, -0.00, -1.00, 967.0, 343.7)">e</text><text xml:space="preserve" font-family="Futura-Medium,Futura" font-size="120.0" fill="#787878" transform="matrix(1.00, 0.00, -0.00, -1.00, 1033.4, 343.7)"> </text><text xml:space="preserve" font-family="Futura-Medium,Futura" font-size="120.0" fill="#787878" transform="matrix(1.00, 0.00, -0.00, -1.00, 1070.4, 343.7)">d</text><text xml:space="preserve" font-family="Futura-Medium,Futura" font-size="120.0" fill="#787878" transform="matrix(1.00, 0.00, -0.00, -1.00, 1142.3, 343.7)">i</text><text xml:space="preserve" font-family="Futura-Medium,Futura" font-size="120.0" fill="#787878" transform="matrix(1.00, 0.00, -0.00, -1.00, 1172.2, 343.7)">v</text><text xml:space="preserve" font-family="Futura-Medium,Futura" font-size="120.0" fill="#787878" transform="matrix(1.00, 0.00, -0.00, -1.00, 1232.5, 343.7)">i</text><text xml:space="preserve" font-family="Futura-Medium,Futura" font-size="120.0" fill="#787878" transform="matrix(1.00, 0.00, -0.00, -1.00, 1262.4, 343.7)">r</text><text xml:space="preserve" font-family="Futura-Medium,Futura" font-size="120.0" fill="#787878" transform="matrix(1.00, 0.00, -0.00, -1.00, 1311.6, 343.7)">t</text><text xml:space="preserve" font-family="Futura-Medium,Futura" font-size="120.0" fill="#787878" transform="matrix(1.00, 0.00, -0.00, -1.00, 1345.5, 343.7)">a</text></g></svg>