<?xml version="1.0" encoding="UTF-8" standalone="no"?><svg xmlns="http://www.w3.org/2000/svg" xmlns:xlink="http://www.w3.org/1999/xlink" clip-rule="evenodd" stroke-miterlimit="10" viewBox="0 0 905 107"><desc>SVG generated by Keynote</desc><defs></defs><g transform="matrix(1.00, 0.00, -0.00, -1.00, 0.0, 107.0)"><text xml:space="preserve" font-family="Futura-Medium,Futura" font-size="120.0" fill="#787878" transform="matrix(1.00, 0.00, -0.00, -1.00, -3.4, 5.7)">e</text><text xml:space="preserve" font-family="Futura-Medium,Futura" font-size="120.0" fill="#787878" transform="matrix(1.00, 0.00, -0.00, -1.00, 63.0, 5.7)">n</text><text xml:space="preserve" font-family="Futura-Medium,Futura" font-size="120.0" fill="#787878" transform="matrix(1.00, 0.00, -0.00, -1.00, 128.8, 5.7)">c</text><text xml:space="preserve" font-family="Futura-Medium,Futura" font-size="120.0" fill="#787878" transform="matrix(1.00, 0.00, -0.00, -1.00, 185.9, 5.7)">a</text><text xml:space="preserve" font-family="Futura-Medium,Futura" font-size="120.0" fill="#787878" transform="matrix(1.00, 0.00, -0.00, -1.00, 257.9, 5.7)">n</text><text xml:space="preserve" font-family="Futura-Medium,Futura" font-size="120.0" fill="#787878" transform="matrix(1.00, 0.00, -0.00, -1.00, 323.7, 5.7)">t</text><text xml:space="preserve" font-family="Futura-Medium,Futura" font-size="120.0" fill="#787878" transform="matrix(1.00, 0.00, -0.00, -1.00, 357.6, 5.7)">e</text><text xml:space="preserve" font-family="Futura-Medium,Futura" font-size="120.0" fill="#787878" transform="matrix(1.00, 0.00, -0.00, -1.00, 424.0, 5.7)"> </text><text xml:space="preserve" font-family="Futura-Medium,Futura" font-size="120.0" fill="#787878" transform="matrix(1.00, 0.00, -0.00, -1.00, 461.0, 5.7)">e</text><text xml:space="preserve" font-family="Futura-Medium,Futura" font-size="120.0" fill="#787878" transform="matrix(1.00, 0.00, -0.00, -1.00, 527.4, 5.7)"> </text><text xml:space="preserve" font-family="Futura-Medium,Futura" font-size="120.0" fill="#787878" transform="matrix(1.00, 0.00, -0.00, -1.00, 564.4, 5.7)">d</text><text xml:space="preserve" font-family="Futura-Medium,Futura" font-size="120.0" fill="#787878" transform="matrix(1.00, 0.00, -0.00, -1.00, 636.3, 5.7)">i</text><text xml:space="preserve" font-family="Futura-Medium,Futura" font-size="120.0" fill="#787878" transform="matrix(1.00, 0.00, -0.00, -1.00, 666.2, 5.7)">v</text><text xml:space="preserve" font-family="Futura-Medium,Futura" font-size="120.0" fill="#787878" transform="matrix(1.00, 0.00, -0.00, -1.00, 726.5, 5.7)">i</text><text xml:space="preserve" font-family="Futura-Medium,Futura" font-size="120.0" fill="#787878" transform="matrix(1.00, 0.00, -0.00, -1.00, 756.4, 5.7)">r</text><text xml:space="preserve" font-family="Futura-Medium,Futura" font-size="120.0" fill="#787878" transform="matrix(1.00, 0.00, -0.00, -1.00, 805.6, 5.7)">t</text><text xml:space="preserve" font-family="Futura-Medium,Futura" font-size="120.0" fill="#787878" transform="matrix(1.00, 0.00, -0.00, -1.00, 839.5, 5.7)">a</text></g></svg>