<?xml version="1.0" encoding="UTF-8" standalone="no"?><svg xmlns="http://www.w3.org/2000/svg" xmlns:xlink="http://www.w3.org/1999/xlink" clip-rule="evenodd" stroke-miterlimit="10" viewBox="0 0 1920 1080"><desc>SVG generated by Keynote</desc><defs></defs><g transform="matrix(1.00, 0.00, -0.00, -1.00, 0.0, 1080.0)"><path d="M 0.0 1080.0 L 1920.0 1080.0 L 1920.0 0.0 L 0.0 0.0 Z M 0.0 1080.0 " fill="#FF3E47"></path><text xml:space="preserve" font-family="Futura-Medium,Futura" font-size="150.0" fill="#F0F1EC" transform="matrix(1.00, 0.00, -0.00, -1.00, 361.0, 584.6)">A</text><text xml:space="preserve" font-family="Futura-Medium,Futura" font-size="150.0" fill="#F0F1EC" transform="matrix(1.00, 0.00, -0.00, -1.00, 472.0, 584.6)">n</text><text xml:space="preserve" font-family="Futura-Medium,Futura" font-size="150.0" fill="#F0F1EC" transform="matrix(1.00, 0.00, -0.00, -1.00, 554.3, 584.6)">i</text><text xml:space="preserve" font-family="Futura-Medium,Futura" font-size="150.0" fill="#F0F1EC" transform="matrix(1.00, 0.00, -0.00, -1.00, 591.7, 584.6)">m</text><text xml:space="preserve" font-family="Futura-Medium,Futura" font-size="150.0" fill="#F0F1EC" transform="matrix(1.00, 0.00, -0.00, -1.00, 710.3, 584.6)">a</text><text xml:space="preserve" font-family="Futura-Medium,Futura" font-size="150.0" fill="#F0F1EC" transform="matrix(1.00, 0.00, -0.00, -1.00, 800.2, 584.6)">t</text><text xml:space="preserve" font-family="Futura-Medium,Futura" font-size="150.0" fill="#F0F1EC" transform="matrix(1.00, 0.00, -0.00, -1.00, 841.3, 584.6)">i</text><text xml:space="preserve" font-family="Futura-Medium,Futura" font-size="150.0" fill="#F0F1EC" transform="matrix(1.00, 0.00, -0.00, -1.00, 878.6, 584.6)">o</text><text xml:space="preserve" font-family="Futura-Medium,Futura" font-size="150.0" fill="#F0F1EC" transform="matrix(1.00, 0.00, -0.00, -1.00, 968.8, 584.6)">n</text><text xml:space="preserve" font-family="Futura-Medium,Futura" font-size="150.0" fill="#F0F1EC" transform="matrix(1.00, 0.00, -0.00, -1.00, 1051.1, 584.6)"> </text><text xml:space="preserve" font-family="Futura-Medium,Futura" font-size="150.0" fill="#F0F1EC" transform="matrix(1.00, 0.00, -0.00, -1.00, 1097.3, 584.6)">i</text><text xml:space="preserve" font-family="Futura-Medium,Futura" font-size="150.0" fill="#F0F1EC" transform="matrix(1.00, 0.00, -0.00, -1.00, 1134.7, 584.6)">s</text><text xml:space="preserve" font-family="Futura-Medium,Futura" font-size="150.0" fill="#F0F1EC" transform="matrix(1.00, 0.00, -0.00, -1.00, 1195.5, 584.6)"> </text><text xml:space="preserve" font-family="Futura-Medium,Futura" font-size="150.0" fill="#F0F1EC" transform="matrix(1.00, 0.00, -0.00, -1.00, 1241.7, 584.6)">h</text><text xml:space="preserve" font-family="Futura-Medium,Futura" font-size="150.0" fill="#F0F1EC" transform="matrix(1.00, 0.00, -0.00, -1.00, 1324.0, 584.6)">a</text><text xml:space="preserve" font-family="Futura-Medium,Futura" font-size="150.0" fill="#F0F1EC" transform="matrix(1.00, 0.00, -0.00, -1.00, 1413.9, 584.6)">r</text><text xml:space="preserve" font-family="Futura-Medium,Futura" font-size="150.0" fill="#F0F1EC" transform="matrix(1.00, 0.00, -0.00, -1.00, 1469.0, 584.6)">d</text></g></svg>