<?xml version="1.0" encoding="UTF-8" standalone="no"?><svg xmlns="http://www.w3.org/2000/svg" xmlns:xlink="http://www.w3.org/1999/xlink" clip-rule="evenodd" stroke-miterlimit="10" viewBox="0 0 1459 135"><desc>SVG generated by Keynote</desc><defs></defs><g transform="matrix(1.00, 0.00, -0.00, -1.00, 0.0, 135.0)"><text xml:space="preserve" font-family="Futura-Medium,Futura" font-size="120.0" fill="#FF3E47" transform="matrix(1.00, 0.00, -0.00, -1.00, 1.7, 33.0)">A</text><text xml:space="preserve" font-family="Futura-Medium,Futura" font-size="120.0" fill="#FF3E47" transform="matrix(1.00, 0.00, -0.00, -1.00, 90.6, 33.0)">n</text><text xml:space="preserve" font-family="Futura-Medium,Futura" font-size="120.0" fill="#FF3E47" transform="matrix(1.00, 0.00, -0.00, -1.00, 156.4, 33.0)">i</text><text xml:space="preserve" font-family="Futura-Medium,Futura" font-size="120.0" fill="#FF3E47" transform="matrix(1.00, 0.00, -0.00, -1.00, 186.3, 33.0)">m</text><text xml:space="preserve" font-family="Futura-Medium,Futura" font-size="120.0" fill="#FF3E47" transform="matrix(1.00, 0.00, -0.00, -1.00, 281.2, 33.0)">a</text><text xml:space="preserve" font-family="Futura-Medium,Futura" font-size="120.0" fill="#FF3E47" transform="matrix(1.00, 0.00, -0.00, -1.00, 353.1, 33.0)">t</text><text xml:space="preserve" font-family="Futura-Medium,Futura" font-size="120.0" fill="#FF3E47" transform="matrix(1.00, 0.00, -0.00, -1.00, 386.0, 33.0)">i</text><text xml:space="preserve" font-family="Futura-Medium,Futura" font-size="120.0" fill="#FF3E47" transform="matrix(1.00, 0.00, -0.00, -1.00, 415.9, 33.0)">o</text><text xml:space="preserve" font-family="Futura-Medium,Futura" font-size="120.0" fill="#FF3E47" transform="matrix(1.00, 0.00, -0.00, -1.00, 488.0, 33.0)">n</text><text xml:space="preserve" font-family="Futura-Medium,Futura" font-size="120.0" fill="#FF3E47" transform="matrix(1.00, 0.00, -0.00, -1.00, 553.9, 33.0)">s</text><text xml:space="preserve" font-family="Futura-Medium,Futura" font-size="120.0" fill="#FF3E47" transform="matrix(1.00, 0.00, -0.00, -1.00, 602.5, 33.0)"> </text><text xml:space="preserve" font-family="Futura-Medium,Futura" font-size="120.0" fill="#FF3E47" transform="matrix(1.00, 0.00, -0.00, -1.00, 639.5, 33.0)">a</text><text xml:space="preserve" font-family="Futura-Medium,Futura" font-size="120.0" fill="#FF3E47" transform="matrix(1.00, 0.00, -0.00, -1.00, 711.4, 33.0)">r</text><text xml:space="preserve" font-family="Futura-Medium,Futura" font-size="120.0" fill="#FF3E47" transform="matrix(1.00, 0.00, -0.00, -1.00, 755.5, 33.0)">e</text><text xml:space="preserve" font-family="Futura-Medium,Futura" font-size="120.0" fill="#FF3E47" transform="matrix(1.00, 0.00, -0.00, -1.00, 821.9, 33.0)"> </text><text xml:space="preserve" font-family="Futura-Medium,Futura" font-size="120.0" fill="#FF3E47" transform="matrix(1.00, 0.00, -0.00, -1.00, 858.9, 33.0)">f</text><text xml:space="preserve" font-family="Futura-Medium,Futura" font-size="120.0" fill="#FF3E47" transform="matrix(1.00, 0.00, -0.00, -1.00, 896.0, 33.0)">o</text><text xml:space="preserve" font-family="Futura-Medium,Futura" font-size="120.0" fill="#FF3E47" transform="matrix(1.00, 0.00, -0.00, -1.00, 968.1, 33.0)">r</text><text xml:space="preserve" font-family="Futura-Medium,Futura" font-size="120.0" fill="#FF3E47" transform="matrix(1.00, 0.00, -0.00, -1.00, 1013.0, 33.0)"> </text><text xml:space="preserve" font-family="Futura-Medium,Futura" font-size="120.0" fill="#FF3E47" transform="matrix(1.00, 0.00, -0.00, -1.00, 1050.0, 33.0)">h</text><text xml:space="preserve" font-family="Futura-Medium,Futura" font-size="120.0" fill="#FF3E47" transform="matrix(1.00, 0.00, -0.00, -1.00, 1115.8, 33.0)">i</text><text xml:space="preserve" font-family="Futura-Medium,Futura" font-size="120.0" fill="#FF3E47" transform="matrix(1.00, 0.00, -0.00, -1.00, 1145.7, 33.0)">p</text><text xml:space="preserve" font-family="Futura-Medium,Futura" font-size="120.0" fill="#FF3E47" transform="matrix(1.00, 0.00, -0.00, -1.00, 1217.6, 33.0)">s</text><text xml:space="preserve" font-family="Futura-Medium,Futura" font-size="120.0" fill="#FF3E47" transform="matrix(1.00, 0.00, -0.00, -1.00, 1266.3, 33.0)">t</text><text xml:space="preserve" font-family="Futura-Medium,Futura" font-size="120.0" fill="#FF3E47" transform="matrix(1.00, 0.00, -0.00, -1.00, 1300.2, 33.0)">e</text><text xml:space="preserve" font-family="Futura-Medium,Futura" font-size="120.0" fill="#FF3E47" transform="matrix(1.00, 0.00, -0.00, -1.00, 1366.6, 33.0)">r</text><text xml:space="preserve" font-family="Futura-Medium,Futura" font-size="120.0" fill="#FF3E47" transform="matrix(1.00, 0.00, -0.00, -1.00, 1411.5, 33.0)">s</text></g></svg>