<?xml version="1.0" encoding="UTF-8" standalone="no"?><svg xmlns="http://www.w3.org/2000/svg" xmlns:xlink="http://www.w3.org/1999/xlink" clip-rule="evenodd" stroke-miterlimit="10" viewBox="0 0 1191 130"><desc>SVG generated by Keynote</desc><defs></defs><g transform="matrix(1.00, 0.00, -0.00, -1.00, 0.0, 130.0)"><text xml:space="preserve" font-family="Futura-Medium,Futura" font-size="150.0" fill="#F0F1EC" transform="matrix(1.00, 0.00, -0.00, -1.00, 2.0, 4.6)">A</text><text xml:space="preserve" font-family="Futura-Medium,Futura" font-size="150.0" fill="#F0F1EC" transform="matrix(1.00, 0.00, -0.00, -1.00, 113.0, 4.6)">n</text><text xml:space="preserve" font-family="Futura-Medium,Futura" font-size="150.0" fill="#F0F1EC" transform="matrix(1.00, 0.00, -0.00, -1.00, 195.3, 4.6)">i</text><text xml:space="preserve" font-family="Futura-Medium,Futura" font-size="150.0" fill="#F0F1EC" transform="matrix(1.00, 0.00, -0.00, -1.00, 232.7, 4.6)">m</text><text xml:space="preserve" font-family="Futura-Medium,Futura" font-size="150.0" fill="#F0F1EC" transform="matrix(1.00, 0.00, -0.00, -1.00, 351.3, 4.6)">a</text><text xml:space="preserve" font-family="Futura-Medium,Futura" font-size="150.0" fill="#F0F1EC" transform="matrix(1.00, 0.00, -0.00, -1.00, 441.2, 4.6)">t</text><text xml:space="preserve" font-family="Futura-Medium,Futura" font-size="150.0" fill="#F0F1EC" transform="matrix(1.00, 0.00, -0.00, -1.00, 482.3, 4.6)">i</text><text xml:space="preserve" font-family="Futura-Medium,Futura" font-size="150.0" fill="#F0F1EC" transform="matrix(1.00, 0.00, -0.00, -1.00, 519.6, 4.6)">o</text><text xml:space="preserve" font-family="Futura-Medium,Futura" font-size="150.0" fill="#F0F1EC" transform="matrix(1.00, 0.00, -0.00, -1.00, 609.8, 4.6)">n</text><text xml:space="preserve" font-family="Futura-Medium,Futura" font-size="150.0" fill="#F0F1EC" transform="matrix(1.00, 0.00, -0.00, -1.00, 692.1, 4.6)"> </text><text xml:space="preserve" font-family="Futura-Medium,Futura" font-size="150.0" fill="#F0F1EC" transform="matrix(1.00, 0.00, -0.00, -1.00, 738.3, 4.6)">i</text><text xml:space="preserve" font-family="Futura-Medium,Futura" font-size="150.0" fill="#F0F1EC" transform="matrix(1.00, 0.00, -0.00, -1.00, 775.7, 4.6)">s</text><text xml:space="preserve" font-family="Futura-Medium,Futura" font-size="150.0" fill="#F0F1EC" transform="matrix(1.00, 0.00, -0.00, -1.00, 836.5, 4.6)"> </text><text xml:space="preserve" font-family="Futura-Medium,Futura" font-size="150.0" fill="#F0F1EC" transform="matrix(1.00, 0.00, -0.00, -1.00, 882.7, 4.6)">h</text><text xml:space="preserve" font-family="Futura-Medium,Futura" font-size="150.0" fill="#F0F1EC" transform="matrix(1.00, 0.00, -0.00, -1.00, 965.0, 4.6)">a</text><text xml:space="preserve" font-family="Futura-Medium,Futura" font-size="150.0" fill="#F0F1EC" transform="matrix(1.00, 0.00, -0.00, -1.00, 1054.9, 4.6)">r</text><text xml:space="preserve" font-family="Futura-Medium,Futura" font-size="150.0" fill="#F0F1EC" transform="matrix(1.00, 0.00, -0.00, -1.00, 1110.0, 4.6)">d</text></g></svg>