<?xml version="1.0" encoding="UTF-8" standalone="no"?><svg xmlns="http://www.w3.org/2000/svg" xmlns:xlink="http://www.w3.org/1999/xlink" clip-rule="evenodd" stroke-miterlimit="10" viewBox="0 0 1920 1080"><desc>SVG generated by Keynote</desc><defs></defs><g transform="matrix(1.00, 0.00, -0.00, -1.00, 0.0, 1080.0)"><path d="M 0.0 1080.0 L 1920.0 1080.0 L 1920.0 0.0 L 0.0 0.0 Z M 0.0 1080.0 " fill="#FF3E47"></path><text xml:space="preserve" font-family="Futura-Medium,Futura" font-size="150.0" fill="#F0F1EC" transform="matrix(1.00, 0.00, -0.00, -1.00, 361.0, 584.6)">A</text><text xml:space="preserve" font-family="Futura-Medium,Futura" font-size="150.0" fill="#F0F1EC" transform="matrix(1.00, 0.00, -0.00, -1.00, 472.0, 584.6)">n</text><text xml:space="preserve" font-family="Futura-Medium,Futura" font-size="150.0" fill="#F0F1EC" transform="matrix(1.00, 0.00, -0.00, -1.00, 554.3, 584.6)">i</text><text xml:space="preserve" font-family="Futura-Medium,Futura" font-size="150.0" fill="#F0F1EC" transform="matrix(1.00, 0.00, -0.00, -1.00, 591.7, 584.6)">m</text><text xml:space="preserve" font-family="Futura-Medium,Futura" font-size="150.0" fill="#F0F1EC" transform="matrix(1.00, 0.00, -0.00, -1.00, 710.3, 584.6)">a</text><text xml:space="preserve" font-family="Futura-Medium,Futura" font-size="150.0" fill="#F0F1EC" transform="matrix(1.00, 0.00, -0.00, -1.00, 800.2, 584.6)">t</text><text xml:space="preserve" font-family="Futura-Medium,Futura" font-size="150.0" fill="#F0F1EC" transform="matrix(1.00, 0.00, -0.00, -1.00, 841.3, 584.6)">i</text><text xml:space="preserve" font-family="Futura-Medium,Futura" font-size="150.0" fill="#F0F1EC" transform="matrix(1.00, 0.00, -0.00, -1.00, 878.6, 584.6)">o</text><text xml:space="preserve" font-family="Futura-Medium,Futura" font-size="150.0" fill="#F0F1EC" transform="matrix(1.00, 0.00, -0.00, -1.00, 968.8, 584.6)">n</text><text xml:space="preserve" font-family="Futura-Medium,Futura" font-size="150.0" fill="#F0F1EC" transform="matrix(1.00, 0.00, -0.00, -1.00, 1051.1, 584.6)"> </text><text xml:space="preserve" font-family="Futura-Medium,Futura" font-size="150.0" fill="#F0F1EC" transform="matrix(1.00, 0.00, -0.00, -1.00, 1097.3, 584.6)">i</text><text xml:space="preserve" font-family="Futura-Medium,Futura" font-size="150.0" fill="#F0F1EC" transform="matrix(1.00, 0.00, -0.00, -1.00, 1134.7, 584.6)">s</text><text xml:space="preserve" font-family="Futura-Medium,Futura" font-size="150.0" fill="#F0F1EC" transform="matrix(1.00, 0.00, -0.00, -1.00, 1195.5, 584.6)"> </text><text xml:space="preserve" font-family="Futura-Medium,Futura" font-size="150.0" fill="#F0F1EC" transform="matrix(1.00, 0.00, -0.00, -1.00, 1241.7, 584.6)">h</text><text xml:space="preserve" font-family="Futura-Medium,Futura" font-size="150.0" fill="#F0F1EC" transform="matrix(1.00, 0.00, -0.00, -1.00, 1324.0, 584.6)">a</text><text xml:space="preserve" font-family="Futura-Medium,Futura" font-size="150.0" fill="#F0F1EC" transform="matrix(1.00, 0.00, -0.00, -1.00, 1413.9, 584.6)">r</text><text xml:space="preserve" font-family="Futura-Medium,Futura" font-size="150.0" fill="#F0F1EC" transform="matrix(1.00, 0.00, -0.00, -1.00, 1469.0, 584.6)">d</text><path d="M 187.5 722.4 L 1583.0 1106.4 L 1732.5 563.4 L 337.0 179.4 Z M 187.5 722.4 " fill="#FF3E47"></path><path d="M 277.2 381.9 C 274.9 389.8 265.4 424.3 265.5 424.8 C 269.0 411.9 276.7 384.5 277.2 381.9 C 277.2 381.9 277.2 381.9 277.2 381.9 Z M 296.2 312.4 C 292.6 324.8 285.1 352.5 282.9 361.3 C 286.9 346.6 295.1 317.2 296.2 312.4 C 296.2 312.4 296.2 312.4 296.2 312.4 Z M 267.5 419.3 C 262.5 437.8 253.0 471.8 250.8 480.3 C 255.9 461.8 265.4 427.8 267.5 419.3 C 267.5 419.3 267.5 419.3 267.5 419.3 Z M 1065.2 372.2 C 1057.2 369.8 1022.6 360.3 1022.5 360.5 C 1035.1 363.9 1062.7 371.7 1065.2 372.2 C 1065.2 372.2 1065.2 372.2 1065.2 372.2 Z M 871.8 319.5 C 859.2 315.9 831.6 308.4 822.9 306.1 C 837.6 310.1 867.3 318.5 871.8 319.5 C 871.8 319.5 871.8 319.5 871.8 319.5 Z M 759.6 288.5 C 733.4 281.4 705.5 273.7 710.8 275.4 C 719.1 277.5 756.9 288.1 759.6 288.5 C 759.6 288.5 759.6 288.5 759.6 288.5 Z M 281.5 405.2 C 289.0 377.7 294.6 358.1 299.7 339.6 C 325.1 246.8 286.2 386.7 281.5 405.2 C 281.5 405.2 281.5 405.2 281.5 405.2 Z M 562.1 235.0 C 581.0 240.2 596.0 244.3 605.0 246.6 C 587.6 241.8 563.1 235.0 562.1 235.0 C 562.1 235.0 562.1 235.0 562.1 235.0 Z M 400.0 190.6 C 397.6 189.9 368.0 181.7 332.8 172.1 C 324.7 201.5 315.6 234.8 309.0 259.3 C 314.7 238.5 324.3 203.7 332.9 172.3 C 370.1 182.5 402.3 191.3 400.0 190.6 C 400.0 190.6 400.0 190.6 400.0 190.6 Z M 345.1 188.4 C 406.4 205.1 504.5 232.1 549.1 244.3 C 593.3 256.3 470.0 222.3 356.8 191.2 C 351.1 189.6 345.9 188.2 341.2 186.9 C 316.9 275.8 339.8 194.2 327.8 238.2 C 318.3 272.7 330.0 230.5 341.8 187.8 C 355.8 191.7 369.9 195.5 381.3 198.6 C 426.8 211.0 350.7 190.1 345.1 188.4 C 345.1 188.4 345.1 188.4 345.1 188.4 Z M 342.9 188.7 C 342.7 188.6 342.4 188.6 342.1 188.5 C 336.1 210.4 331.0 229.2 327.6 241.9 C 333.8 219.7 339.7 198.5 342.2 188.5 C 342.4 188.6 342.7 188.7 342.9 188.7 C 342.9 188.7 342.9 188.7 342.9 188.7 Z M 201.4 724.9 C 208.4 729.3 262.0 746.1 321.1 763.8 C 335.8 768.2 350.5 772.6 365.7 777.1 C 474.4 808.1 584.0 838.8 693.6 869.3 C 715.3 875.3 737.0 881.3 759.3 887.5 C 826.5 906.2 894.0 924.8 961.9 943.5 C 984.4 949.8 1006.9 956.0 1030.1 962.4 C 1111.7 985.1 1189.5 1006.2 1269.6 1028.3 C 1309.6 1039.3 1350.4 1050.6 1392.4 1062.5 C 1413.3 1068.5 1502.8 1093.0 1534.3 1101.5 C 1517.8 1097.2 1553.8 1107.2 1589.0 1116.9 C 1597.3 1086.8 1605.4 1057.2 1604.5 1060.2 C 1609.0 1043.3 1613.7 1025.7 1618.5 1008.2 C 1623.2 990.7 1617.1 1012.7 1611.0 1034.8 C 1616.3 1015.1 1621.6 995.5 1627.1 975.6 C 1632.9 954.7 1638.6 933.8 1644.6 912.3 C 1664.0 842.2 1684.6 766.8 1702.3 701.7 C 1712.5 664.6 1726.4 614.1 1741.8 558.1 C 1532.7 500.6 1246.3 421.9 1314.9 440.9 C 1412.7 467.9 1362.2 454.2 1336.0 447.1 C 1320.6 442.8 1299.9 437.2 1276.9 430.9 C 1277.6 431.0 1279.4 431.4 1282.9 432.3 C 1239.3 420.2 1177.9 403.0 1117.6 386.7 C 1128.8 389.8 1143.1 393.8 1148.3 395.3 C 1117.9 387.0 1141.9 393.8 1122.0 388.4 C 1066.4 373.2 1039.8 366.0 1104.1 383.6 C 1044.3 367.4 1006.2 357.3 947.1 341.4 C 924.8 335.2 937.0 338.6 943.7 340.3 C 904.6 329.4 814.9 304.8 806.5 302.4 C 798.1 299.9 1049.5 369.2 1004.8 356.7 C 986.7 351.6 949.0 341.3 934.7 337.3 C 966.4 346.0 1005.6 356.8 1025.8 362.2 C 1003.8 356.1 972.8 347.6 955.7 342.8 C 977.0 348.7 991.6 352.7 997.9 354.3 C 966.9 345.7 943.5 339.2 906.4 329.1 C 890.0 324.6 920.4 333.1 885.4 323.5 C 879.1 321.9 908.5 329.9 906.4 329.5 C 878.1 321.7 821.9 306.3 807.9 302.5 C 794.3 298.8 842.1 311.9 843.2 312.3 C 733.9 282.3 609.6 248.1 571.3 237.7 C 532.6 227.1 568.9 237.0 585.3 241.6 C 540.3 229.3 506.5 220.0 453.1 205.4 C 418.9 196.0 432.5 199.8 445.5 203.4 C 436.4 201.0 428.4 198.8 423.2 197.4 C 419.4 196.3 409.6 193.7 403.0 191.9 C 424.0 197.7 463.0 208.4 480.1 213.2 C 448.8 204.8 374.1 184.0 347.1 176.8 C 390.4 188.8 436.7 201.6 485.2 215.0 C 434.1 201.0 382.3 186.6 333.4 173.1 C 321.9 214.6 311.1 253.9 301.6 289.1 C 305.4 275.5 307.1 269.7 310.3 258.7 C 302.2 287.5 290.3 330.3 283.4 356.4 C 279.5 370.7 271.8 399.1 264.0 427.4 C 277.7 377.9 286.9 344.8 296.3 310.2 C 296.2 310.9 295.3 314.1 293.7 320.1 C 311.2 257.8 322.1 216.4 333.7 173.6 C 343.7 176.3 353.9 179.1 364.4 182.0 C 368.7 183.2 372.9 184.3 377.3 185.6 C 392.1 189.8 351.7 178.7 333.8 173.9 C 332.8 177.6 332.1 180.4 331.8 181.5 C 332.5 179.0 333.2 176.5 333.9 173.9 C 413.3 195.9 497.8 219.0 536.7 229.9 C 462.2 209.5 394.4 190.8 334.0 174.3 C 329.1 192.3 324.3 209.8 319.8 226.6 C 322.3 218.0 327.9 197.5 334.2 174.6 C 360.6 181.9 390.2 190.0 408.9 195.2 C 379.4 187.1 354.9 180.4 334.4 174.8 C 309.8 264.7 306.3 277.3 303.5 287.8 C 306.8 275.6 310.2 263.5 313.7 250.9 C 312.9 254.1 312.0 257.3 311.2 260.5 C 292.1 330.2 269.5 412.0 270.7 407.9 C 271.7 404.8 289.2 341.1 307.7 273.9 C 305.9 281.1 304.0 288.2 302.1 295.5 C 280.5 374.2 256.4 463.5 234.6 542.0 C 238.4 529.3 236.5 535.8 232.1 552.3 C 239.0 527.7 248.7 492.6 256.1 466.3 C 253.6 475.3 249.1 491.6 247.8 496.9 C 251.5 483.8 257.2 462.9 259.1 456.4 C 249.0 493.6 238.0 533.6 227.3 572.8 C 225.3 580.9 232.0 555.8 231.6 558.0 C 221.4 595.2 207.0 647.2 199.8 674.3 C 208.5 643.1 225.2 582.1 230.5 563.1 C 227.2 575.4 223.8 587.8 220.4 600.6 C 213.5 625.9 210.2 638.1 218.1 609.7 C 222.3 594.5 222.2 594.8 221.2 598.6 C 216.6 616.0 200.0 676.3 200.8 674.7 C 205.0 659.4 221.5 599.2 225.9 584.1 C 223.0 595.6 214.4 626.3 213.7 629.5 C 232.0 562.8 231.4 565.2 235.9 548.5 C 233.8 555.8 228.7 574.8 228.7 574.1 C 240.0 533.0 251.3 491.9 263.0 449.5 C 263.0 449.5 263.0 449.5 263.0 449.5 C 263.0 449.5 263.0 449.5 263.0 449.5 C 263.0 449.5 263.0 449.5 263.0 449.5 C 262.1 453.5 262.6 452.3 263.8 448.5 C 258.9 466.5 253.8 485.2 244.5 518.7 C 247.3 510.0 255.7 479.2 263.4 450.8 C 263.4 451.0 263.4 451.3 263.3 451.6 C 250.7 497.5 231.5 567.7 218.7 614.7 C 224.7 593.4 246.4 514.3 261.2 460.4 C 260.8 462.2 260.4 463.9 259.9 465.7 C 278.5 398.0 300.6 318.9 321.3 242.9 C 311.6 279.9 299.6 322.3 286.6 369.7 C 280.7 391.5 275.3 411.6 269.6 432.7 C 253.0 492.6 203.9 670.9 198.5 691.3 C 192.5 713.7 242.2 533.1 242.5 532.2 C 242.9 531.2 219.8 615.3 230.7 575.7 C 236.4 555.0 248.8 509.8 257.8 477.1 C 258.2 476.1 258.7 475.1 259.2 474.0 C 251.3 502.6 242.1 536.4 241.4 537.6 C 237.6 551.7 229.3 581.2 228.2 585.8 C 229.6 581.0 231.6 573.8 231.6 573.8 C 229.8 580.7 227.0 590.7 226.8 591.8 C 236.3 557.4 249.5 509.9 259.8 472.4 C 260.7 469.3 261.7 466.2 262.6 463.0 C 262.5 463.7 254.5 493.0 247.6 518.1 C 240.4 544.6 255.6 489.7 267.6 446.0 C 269.6 439.1 271.6 432.3 273.6 425.3 C 269.5 440.4 264.6 457.9 259.0 478.5 C 252.5 502.6 252.8 502.1 246.3 526.2 C 258.5 482.0 273.3 428.4 285.1 385.5 C 289.5 370.0 293.9 354.5 298.5 338.6 C 288.8 374.3 279.8 407.4 274.5 427.0 C 270.2 442.8 265.6 459.2 264.1 465.1 C 268.3 450.5 257.7 488.9 259.5 483.2 C 265.1 462.1 276.7 420.4 280.6 405.1 C 289.6 372.2 299.5 336.2 308.3 304.3 C 309.5 300.3 310.6 296.2 311.8 292.1 C 304.3 319.2 297.3 344.9 289.5 373.8 C 293.3 361.1 315.2 281.6 330.9 223.9 C 334.3 211.5 337.7 199.1 341.1 186.7 C 446.3 215.6 552.0 243.7 657.1 272.5 C 661.9 273.8 668.8 275.7 676.4 277.9 C 684.9 280.3 693.5 282.7 702.2 285.3 C 674.1 277.5 649.0 270.7 628.4 265.1 C 711.6 288.2 509.6 232.6 496.6 229.3 C 631.4 266.8 883.3 335.8 1038.8 378.8 C 1001.4 368.6 989.4 365.3 1029.5 376.4 C 1040.4 379.4 1051.2 382.5 1062.4 385.6 C 904.2 342.3 739.8 296.5 614.0 262.4 C 688.8 283.0 802.3 314.1 833.6 323.0 C 811.6 316.9 779.7 308.1 775.3 307.0 C 813.7 317.8 942.3 352.9 980.0 363.5 C 795.5 312.9 545.2 243.9 409.7 207.0 C 614.9 263.3 891.8 339.8 1067.7 387.8 C 1037.2 379.4 1036.9 379.2 1053.0 383.5 C 1107.6 398.5 1162.1 413.4 1218.4 428.8 C 1229.7 432.0 1225.9 431.0 1198.7 423.6 C 1176.4 417.5 1163.4 413.9 1156.1 412.1 C 1171.2 416.3 1345.0 464.1 1206.8 426.1 C 1069.0 388.3 830.5 322.8 969.9 361.3 C 1109.3 399.7 1164.4 415.1 1088.3 394.2 C 1012.0 373.3 770.9 307.3 851.7 329.6 C 932.1 351.7 1101.8 398.6 1197.6 424.9 C 1293.8 451.3 1133.0 406.3 1274.4 445.2 C 1415.9 484.1 1297.9 451.9 1325.0 459.3 C 1367.8 471.1 1446.5 492.8 1521.2 513.3 C 1573.5 527.8 1641.0 546.3 1674.7 555.8 C 1672.2 555.2 1512.8 511.2 1575.6 528.7 C 1625.6 542.4 1677.5 556.7 1722.5 569.1 C 1696.9 661.9 1679.7 724.7 1693.0 677.2 C 1667.0 771.5 1648.0 840.8 1631.8 899.7 C 1610.4 976.3 1586.5 1063.4 1577.4 1096.4 C 1570.9 1094.6 1566.4 1093.4 1564.5 1092.8 C 1550.3 1088.8 1295.2 1019.3 1198.8 991.8 C 1191.6 989.8 1019.6 942.8 1004.8 939.0 C 840.9 893.6 863.9 899.7 702.6 855.4 C 567.6 818.3 526.3 807.1 503.6 800.9 C 361.4 762.0 362.5 761.9 292.8 744.0 C 271.7 738.6 239.3 729.7 228.1 727.2 C 205.7 722.4 195.0 721.0 201.4 724.9 C 201.4 724.9 201.4 724.9 201.4 724.9 Z M 267.8 430.5 C 260.8 455.7 248.2 501.5 240.8 528.1 C 249.0 497.4 259.4 459.7 270.1 421.4 C 269.3 424.4 268.6 427.4 267.8 430.5 C 267.8 430.5 267.8 430.5 267.8 430.5 Z M 324.3 239.6 C 319.6 256.4 313.9 276.5 308.7 295.5 C 303.8 313.4 298.7 331.9 291.3 359.2 C 292.1 356.9 304.5 312.3 314.0 277.6 C 314.0 277.7 314.1 277.7 314.1 277.8 C 309.6 294.7 304.2 314.7 297.6 338.4 C 295.4 346.5 293.2 354.5 290.9 362.8 C 290.6 363.4 294.0 350.6 295.4 345.8 C 293.5 351.8 287.7 372.7 280.2 399.8 C 279.2 403.0 278.3 406.3 277.3 409.7 C 276.1 413.3 281.7 392.6 275.4 415.6 C 279.7 399.3 291.4 357.5 298.5 331.3 C 290.8 360.9 321.0 250.2 328.6 223.2 C 327.2 228.6 325.7 234.0 324.3 239.6 Z M 491.2 216.7 C 506.2 220.8 521.3 225.0 536.8 229.3 C 514.5 223.1 497.5 218.5 481.8 214.2 C 484.9 215.0 488.0 215.8 491.2 216.7 Z M 1739.1 565.3 C 1739.7 563.1 1740.3 560.9 1740.9 558.6 C 1646.5 533.1 1463.5 482.2 1451.0 479.1 C 1431.4 473.7 1411.8 468.3 1391.7 462.7 C 1516.2 496.9 1649.4 533.5 1741.0 558.6 C 1740.3 560.8 1739.7 563.1 1739.1 565.3 C 1739.1 565.3 1739.1 565.3 1739.1 565.3 Z M 1413.4 482.7 C 1405.9 480.6 1409.0 481.4 1427.2 486.4 C 1524.0 512.9 1581.5 528.5 1520.4 511.7 C 1468.3 497.3 1354.8 466.1 1388.1 475.1 C 1432.4 487.3 1476.7 499.4 1522.4 512.0 C 1557.3 521.7 1591.1 531.2 1625.4 540.9 C 1550.6 520.4 1478.9 500.7 1413.4 482.7 C 1413.4 482.7 1413.4 482.7 1413.4 482.7 Z M 1666.8 552.7 C 1640.1 545.3 1608.3 536.5 1576.1 527.6 C 1604.0 535.3 1632.0 543.0 1660.8 550.9 C 1662.8 551.5 1664.8 552.1 1666.8 552.7 Z M 1700.8 562.3 C 1646.3 547.4 1591.8 532.3 1646.8 547.4 C 1659.1 550.7 1671.4 554.1 1684.2 557.6 C 1689.6 559.2 1695.1 560.7 1700.8 562.3 Z M 1720.3 579.4 C 1720.4 579.0 1721.5 575.4 1723.4 568.6 C 1719.0 567.3 1713.3 565.8 1706.3 563.8 C 1711.4 565.2 1717.2 566.8 1723.4 568.5 C 1713.0 606.7 1698.2 660.4 1698.8 657.6 C 1705.5 633.3 1712.8 606.7 1720.3 579.4 C 1720.3 579.4 1720.3 579.4 1720.3 579.4 Z M 1722.5 626.8 C 1729.4 602.0 1735.4 580.3 1724.7 619.7 C 1720.5 634.7 1716.4 649.7 1712.2 665.1 C 1715.6 652.5 1719.0 639.9 1722.5 626.8 Z M 532.8 240.3 C 543.1 243.1 582.2 253.9 604.8 260.0 C 607.0 260.0 518.3 236.0 532.8 240.3 C 532.8 240.3 532.8 240.3 532.8 240.3 Z M 386.6 200.4 C 396.5 203.1 435.6 213.8 458.5 220.1 C 460.6 220.0 372.0 196.1 386.6 200.4 C 386.6 200.4 386.6 200.4 386.6 200.4 Z M 1198.4 991.7 C 1198.5 991.7 1198.6 991.8 1198.8 991.8 C 1198.7 991.8 1198.5 991.7 1198.4 991.7 C 1198.4 991.7 1198.4 991.7 1198.4 991.7 Z M 1198.4 991.7 " fill="#F0F1EC"></path><g><clipPath id="clip0x600000cb75e0"><path d="M 124.5 758.2 L 1619.8 1169.7 L 1798.1 522.0 L 302.7 110.5 Z M 124.5 758.2 "></path></clipPath><g clip-path="url(#clip0x600000cb75e0)"><text xml:space="preserve" font-family="Futura-Medium,Futura" font-size="203.0" fill="#F0F1EC" transform="matrix(0.96, 0.27, 0.27, -0.96, 292.2, 517.0)">A</text><text xml:space="preserve" font-family="Futura-Medium,Futura" font-size="203.0" fill="#F0F1EC" transform="matrix(0.96, 0.27, 0.27, -0.96, 437.2, 556.8)">n</text><text xml:space="preserve" font-family="Futura-Medium,Futura" font-size="203.0" fill="#F0F1EC" transform="matrix(0.96, 0.27, 0.27, -0.96, 544.5, 586.4)">i</text><text xml:space="preserve" font-family="Futura-Medium,Futura" font-size="203.0" fill="#F0F1EC" transform="matrix(0.96, 0.27, 0.27, -0.96, 593.3, 599.8)">m</text><text xml:space="preserve" font-family="Futura-Medium,Futura" font-size="203.0" fill="#F0F1EC" transform="matrix(0.96, 0.27, 0.27, -0.96, 748.1, 642.4)">a</text><text xml:space="preserve" font-family="Futura-Medium,Futura" font-size="203.0" fill="#F0F1EC" transform="matrix(0.96, 0.27, 0.27, -0.96, 865.4, 674.7)">t</text><text xml:space="preserve" font-family="Futura-Medium,Futura" font-size="203.0" fill="#F0F1EC" transform="matrix(0.96, 0.27, 0.27, -0.96, 919.0, 689.4)">i</text><text xml:space="preserve" font-family="Futura-Medium,Futura" font-size="203.0" fill="#F0F1EC" transform="matrix(0.96, 0.27, 0.27, -0.96, 967.7, 702.8)">o</text><text xml:space="preserve" font-family="Futura-Medium,Futura" font-size="203.0" fill="#F0F1EC" transform="matrix(0.96, 0.27, 0.27, -0.96, 1085.4, 735.2)">n</text><text xml:space="preserve" font-family="Futura-Medium,Futura" font-size="203.0" fill="#F0F1EC" transform="matrix(0.96, 0.27, 0.27, -0.96, 1192.8, 764.8)"> </text><text xml:space="preserve" font-family="Futura-Medium,Futura" font-size="203.0" fill="#F0F1EC" transform="matrix(0.96, 0.27, 0.27, -0.96, 1253.1, 781.4)">w</text><text xml:space="preserve" font-family="Futura-Medium,Futura" font-size="203.0" fill="#F0F1EC" transform="matrix(0.96, 0.27, 0.27, -0.96, 1401.4, 822.2)">a</text><text xml:space="preserve" font-family="Futura-Medium,Futura" font-size="203.0" fill="#F0F1EC" transform="matrix(0.96, 0.27, 0.27, -0.96, 1518.7, 854.5)">s</text><text xml:space="preserve" font-family="Futura-Medium,Futura" font-size="203.0" fill="#F0F1EC" transform="matrix(0.96, 0.27, 0.27, -0.96, 1598.0, 876.3)"> </text><text xml:space="preserve" font-family="Futura-Medium,Futura" font-size="203.0" fill="#F0F1EC" transform="matrix(0.96, 0.27, 0.27, -0.96, 809.9, 379.4)">h</text><text xml:space="preserve" font-family="Futura-Medium,Futura" font-size="203.0" fill="#F0F1EC" transform="matrix(0.96, 0.27, 0.27, -0.96, 917.3, 408.9)">a</text><text xml:space="preserve" font-family="Futura-Medium,Futura" font-size="203.0" fill="#F0F1EC" transform="matrix(0.96, 0.27, 0.27, -0.96, 1034.5, 441.2)">r</text><text xml:space="preserve" font-family="Futura-Medium,Futura" font-size="203.0" fill="#F0F1EC" transform="matrix(0.96, 0.27, 0.27, -0.96, 1106.4, 461.0)">d</text></g></g></g></svg>