<?xml version="1.0" encoding="UTF-8" standalone="no"?><svg xmlns="http://www.w3.org/2000/svg" xmlns:xlink="http://www.w3.org/1999/xlink" clip-rule="evenodd" stroke-miterlimit="10" viewBox="0 0 1920 1080"><desc>SVG generated by Keynote</desc><defs></defs><g transform="matrix(1.00, 0.00, -0.00, -1.00, 0.0, 1080.0)"><path d="M 0.0 1080.0 L 1920.0 1080.0 L 1920.0 0.0 L 0.0 0.0 Z M 0.0 1080.0 " fill="#FF3E47"></path><text xml:space="preserve" font-family="Futura-Medium,Futura" font-size="150.0" fill="#F0F1EC" transform="matrix(1.00, 0.00, -0.00, -1.00, 607.8, 481.7)">T</text><text xml:space="preserve" font-family="Futura-Medium,Futura" font-size="150.0" fill="#F0F1EC" transform="matrix(1.00, 0.00, -0.00, -1.00, 675.1, 481.7)">r</text><text xml:space="preserve" font-family="Futura-Medium,Futura" font-size="150.0" fill="#F0F1EC" transform="matrix(1.00, 0.00, -0.00, -1.00, 730.2, 481.7)">a</text><text xml:space="preserve" font-family="Futura-Medium,Futura" font-size="150.0" fill="#F0F1EC" transform="matrix(1.00, 0.00, -0.00, -1.00, 820.1, 481.7)">n</text><text xml:space="preserve" font-family="Futura-Medium,Futura" font-size="150.0" fill="#F0F1EC" transform="matrix(1.00, 0.00, -0.00, -1.00, 902.4, 481.7)">s</text><text xml:space="preserve" font-family="Futura-Medium,Futura" font-size="150.0" fill="#F0F1EC" transform="matrix(1.00, 0.00, -0.00, -1.00, 963.2, 481.7)">i</text><text xml:space="preserve" font-family="Futura-Medium,Futura" font-size="150.0" fill="#F0F1EC" transform="matrix(1.00, 0.00, -0.00, -1.00, 1000.6, 481.7)">t</text><text xml:space="preserve" font-family="Futura-Medium,Futura" font-size="150.0" fill="#F0F1EC" transform="matrix(1.00, 0.00, -0.00, -1.00, 1041.6, 481.7)">i</text><text xml:space="preserve" font-family="Futura-Medium,Futura" font-size="150.0" fill="#F0F1EC" transform="matrix(1.00, 0.00, -0.00, -1.00, 1079.0, 481.7)">o</text><text xml:space="preserve" font-family="Futura-Medium,Futura" font-size="150.0" fill="#F0F1EC" transform="matrix(1.00, 0.00, -0.00, -1.00, 1169.2, 481.7)">n</text><text xml:space="preserve" font-family="Futura-Medium,Futura" font-size="150.0" fill="#F0F1EC" transform="matrix(1.00, 0.00, -0.00, -1.00, 1251.5, 481.7)">s</text><path d="M 249.2 540.8 L 841.8 882.9 L 921.4 745.0 L 328.9 402.9 Z M 249.2 540.8 " fill="#FF3E47"></path><path d="M 321.0 408.8 C 319.2 411.7 311.5 424.9 311.6 425.3 C 314.4 420.3 320.6 409.9 321.0 408.8 C 321.0 408.8 321.0 408.8 321.0 408.8 Z M 342.7 406.3 C 338.9 404.0 331.9 399.9 327.4 397.4 C 326.6 398.8 326.0 400.0 325.6 400.8 C 326.1 399.9 326.7 398.8 327.4 397.6 C 333.3 400.9 341.3 405.6 342.7 406.3 C 342.7 406.3 342.7 406.3 342.7 406.3 Z M 313.1 423.6 C 309.1 430.7 301.4 443.6 299.7 447.0 C 303.7 439.9 311.3 427.0 313.1 423.6 C 313.1 423.6 313.1 423.6 313.1 423.6 Z M 673.7 593.5 C 670.8 591.6 657.6 584.0 657.4 584.2 C 662.3 586.9 672.7 593.1 673.7 593.5 C 673.7 593.5 673.7 593.5 673.7 593.5 Z M 599.8 551.5 C 595.1 548.6 584.5 542.6 581.2 540.8 C 586.8 544.0 598.0 550.7 599.8 551.5 C 599.8 551.5 599.8 551.5 599.8 551.5 Z M 557.2 526.7 C 547.2 521.0 536.5 514.8 538.5 516.2 C 541.7 517.9 556.0 526.4 557.2 526.7 C 557.2 526.7 557.2 526.7 557.2 526.7 Z M 322.2 427.4 C 325.7 421.3 328.6 416.2 331.2 411.8 C 334.3 413.5 337.1 415.2 339.8 416.7 C 363.4 430.4 346.5 420.3 331.2 411.5 C 327.1 418.4 323.3 425.1 322.2 427.4 C 322.2 427.4 322.2 427.4 322.2 427.4 Z M 481.8 484.1 C 488.9 488.2 494.7 491.5 498.1 493.3 C 491.5 489.5 482.2 484.0 481.8 484.1 C 481.8 484.1 481.8 484.1 481.8 484.1 Z M 420.1 448.7 C 418.5 447.7 381.8 426.6 361.6 415.1 C 378.8 425.1 421.7 449.8 420.1 448.7 C 420.1 448.7 420.1 448.7 420.1 448.7 Z M 398.0 450.4 C 420.9 463.4 457.5 484.5 474.1 494.0 C 490.7 503.4 444.7 476.8 402.4 452.4 C 360.0 428.0 395.1 448.8 377.8 438.9 C 360.7 429.1 394.3 448.7 411.5 458.4 C 428.4 468.1 400.1 451.8 398.0 450.4 C 398.0 450.4 398.0 450.4 398.0 450.4 Z M 397.1 450.8 C 388.8 446.0 381.7 442.0 377.0 439.4 C 385.6 444.5 393.7 449.3 397.1 450.8 C 397.1 450.8 397.1 450.8 397.1 450.8 Z M 254.9 542.6 C 256.6 546.4 276.1 559.9 297.9 574.1 C 303.4 577.6 308.8 581.2 314.5 584.8 C 355.3 609.6 396.6 634.1 438.0 658.3 C 446.3 663.1 454.5 667.9 462.9 672.8 C 488.4 687.7 513.9 702.6 539.7 717.5 C 548.2 722.4 556.7 727.3 565.5 732.4 C 596.4 750.6 625.9 767.3 656.3 784.9 C 671.5 793.6 686.9 802.7 702.8 812.2 C 710.7 817.0 744.7 836.5 756.6 843.2 C 745.1 837.2 800.8 869.1 798.3 867.6 C 804.5 870.9 810.9 874.5 817.3 878.2 C 823.8 881.8 815.6 877.0 807.4 872.2 C 814.6 876.3 821.8 880.4 829.2 884.6 C 834.3 887.6 839.4 890.5 844.6 893.5 C 846.3 890.6 848.0 887.7 849.7 884.8 C 866.1 856.8 883.6 826.2 898.5 799.9 C 907.1 785.0 918.8 764.7 931.8 742.2 C 852.0 696.2 742.8 633.3 768.9 648.4 C 806.0 670.1 786.7 659.1 776.6 653.4 C 770.8 650.0 762.9 645.5 754.1 640.4 C 754.4 640.5 755.2 640.8 756.6 641.6 C 740.0 631.9 716.7 618.2 693.6 605.1 C 697.9 607.6 703.3 610.8 705.2 612.0 C 693.7 605.4 702.7 610.9 695.0 606.5 C 673.8 594.4 663.7 588.6 688.2 602.7 C 665.3 589.8 650.6 581.7 628.0 569.1 C 619.5 564.1 624.1 566.8 626.7 568.2 C 611.9 559.5 577.8 539.8 574.7 537.9 C 571.5 535.9 667.1 591.2 650.2 581.2 C 643.3 577.2 629.0 568.9 623.6 565.7 C 635.7 572.6 650.5 581.2 658.3 585.6 C 650.0 580.7 638.1 573.9 631.7 570.1 C 639.8 574.8 645.4 578.0 647.8 579.3 C 636.0 572.4 627.1 567.2 613.0 559.1 C 606.7 555.6 618.2 562.4 604.9 554.7 C 602.5 553.4 613.7 559.8 612.8 559.4 C 602.0 553.3 580.6 540.9 575.3 537.9 C 570.1 535.0 588.3 545.4 588.7 545.7 C 547.1 521.8 499.8 494.6 485.2 486.2 C 470.5 477.8 484.3 485.8 490.5 489.4 C 473.4 479.7 460.5 472.2 440.2 460.6 C 427.2 453.1 432.4 456.1 437.3 459.0 C 433.9 457.1 430.8 455.3 428.8 454.2 C 427.4 453.4 423.7 451.3 421.2 449.9 C 429.1 454.5 444.0 463.0 450.4 466.9 C 438.5 460.2 410.2 443.6 399.9 437.9 C 416.3 447.5 433.9 457.7 452.3 468.4 C 416.5 447.8 379.6 425.9 350.8 409.8 C 356.0 412.8 358.3 414.3 362.5 416.9 C 352.1 410.7 336.9 401.8 327.1 396.4 C 326.8 397.0 326.5 397.6 326.2 398.1 C 323.0 403.7 316.8 414.7 310.5 425.6 C 317.1 414.3 322.4 405.2 327.2 396.8 C 332.8 400.0 337.9 403.0 343.2 405.9 C 342.9 405.9 341.7 405.2 339.5 404.0 C 368.9 421.4 385.5 430.2 406.4 442.1 C 408.0 443.1 409.6 444.0 411.3 445.0 C 418.1 449.2 394.3 435.3 391.9 434.2 C 422.9 452.1 456.5 471.4 471.7 480.4 C 435.0 459.3 402.6 440.5 375.1 424.9 C 382.3 429.3 410.0 445.1 423.2 452.9 C 363.2 418.6 357.2 415.1 352.3 412.3 C 356.9 415.0 361.5 417.7 366.3 420.5 C 365.1 419.9 364.0 419.3 362.8 418.6 C 350.9 411.8 338.0 404.4 327.7 398.4 C 320.3 411.1 315.1 420.1 315.7 419.3 C 316.1 418.7 320.9 410.4 327.7 398.6 C 336.4 403.6 347.0 409.7 357.8 416.0 C 355.2 414.6 352.6 413.2 349.9 411.8 C 342.7 407.7 335.4 403.5 327.9 399.2 C 314.2 423.2 299.8 448.5 286.6 471.1 C 289.6 466.4 288.1 468.9 284.6 475.2 C 290.1 466.0 297.8 452.6 303.7 442.7 C 301.7 446.2 298.1 452.4 297.1 454.5 C 300.0 449.5 304.5 441.6 306.1 439.3 C 298.0 453.5 289.3 468.6 280.7 483.6 C 279.1 486.8 284.5 477.2 284.1 478.1 C 276.0 492.2 264.6 511.8 258.8 522.2 C 265.8 510.5 279.0 487.3 283.3 480.2 C 280.6 484.9 278.0 489.7 275.2 494.5 C 269.7 504.1 267.1 508.7 273.4 498.1 C 276.7 492.4 276.7 492.5 275.9 494.0 C 272.2 500.6 259.1 523.3 259.7 522.9 C 263.0 517.1 276.1 494.4 279.6 488.9 C 277.2 493.4 270.5 504.8 269.9 506.2 C 284.4 481.0 283.9 482.0 287.4 475.6 C 285.8 478.3 281.7 485.5 281.8 485.2 C 290.7 469.7 299.6 454.2 308.8 438.3 C 308.8 438.3 308.8 438.3 308.8 438.3 C 308.8 438.3 308.8 438.3 308.8 438.3 C 308.8 438.3 308.8 438.3 308.8 438.3 C 308.1 439.9 308.5 439.7 309.4 438.4 C 305.5 445.1 301.5 452.2 294.2 464.7 C 296.3 461.7 303.0 450.1 309.0 439.4 C 309.0 439.5 309.0 439.7 309.0 439.8 C 299.0 457.0 283.9 483.4 273.9 501.1 C 278.6 493.2 295.6 463.6 307.2 443.4 C 306.9 444.1 306.6 444.8 306.2 445.5 C 313.5 432.9 321.4 419.3 329.5 405.3 C 343.8 413.6 358.5 422.1 372.8 430.3 C 360.3 423.5 345.6 414.8 329.6 405.5 C 328.8 407.0 327.9 408.4 327.1 409.9 C 322.4 418.0 318.2 425.7 313.7 433.7 C 300.7 456.0 262.3 522.4 258.0 530.1 C 253.3 538.6 292.2 471.3 292.5 471.0 C 292.8 470.7 274.8 502.1 283.3 487.3 C 287.7 479.6 297.4 462.7 304.4 450.5 C 304.7 450.3 305.1 450.1 305.4 449.9 C 299.3 460.5 292.1 473.1 291.6 473.3 C 288.6 478.6 282.2 489.4 281.3 491.3 C 282.4 489.5 283.9 486.8 284.0 486.9 C 282.5 489.4 280.3 493.1 280.2 493.6 C 287.6 480.8 297.8 463.3 305.9 449.4 C 306.6 448.3 307.3 447.2 308.1 446.1 C 307.9 446.4 301.7 457.3 296.4 466.6 C 290.7 476.5 302.6 456.2 311.9 440.0 C 313.4 437.6 314.9 435.1 316.5 432.6 C 313.3 438.2 309.5 444.7 305.1 452.3 C 300.1 461.3 300.3 461.3 295.3 470.3 C 304.7 454.0 316.1 434.3 325.3 418.4 C 327.1 415.5 328.9 412.5 330.7 409.6 C 333.5 411.3 336.3 413.0 339.2 414.8 C 336.3 413.2 333.5 411.6 330.8 410.0 C 325.1 419.9 320.2 428.8 317.0 434.5 C 313.6 440.3 310.1 446.3 308.9 448.6 C 312.1 443.3 304.0 457.4 305.3 455.5 C 309.7 447.6 318.6 432.4 321.6 426.5 C 324.6 421.3 327.8 415.8 330.9 410.4 C 338.2 414.6 345.5 418.9 352.3 422.8 C 353.8 423.7 355.3 424.6 356.9 425.6 C 348.2 420.6 339.9 415.8 331.0 410.7 C 330.1 412.2 329.3 413.7 328.4 415.2 C 328.9 414.5 329.8 413.0 331.0 411.0 C 341.4 417.2 364.8 430.7 382.6 440.8 C 426.5 466.4 470.9 490.6 514.9 515.8 C 516.7 516.9 519.2 518.4 522.0 520.1 C 525.2 522.0 528.4 523.9 531.6 525.9 C 521.1 519.8 511.7 514.5 504.0 510.1 C 535.0 528.3 459.5 484.7 454.7 482.1 C 504.9 511.6 599.0 565.6 657.0 599.4 C 643.0 591.3 638.5 588.8 653.4 597.5 C 657.5 599.8 661.5 602.2 665.7 604.6 C 606.5 570.7 545.4 534.8 498.3 508.2 C 526.2 524.4 568.6 548.7 580.1 555.7 C 571.9 551.0 560.1 544.0 558.4 543.2 C 572.6 551.7 620.7 579.1 634.6 587.4 C 565.8 547.9 472.6 493.8 422.0 465.2 C 498.5 509.1 601.5 568.9 667.2 606.4 C 655.9 599.8 655.8 599.7 661.9 603.1 C 682.3 614.7 702.6 626.4 723.6 638.5 C 727.8 641.0 726.4 640.2 716.2 634.4 C 707.9 629.7 703.0 626.8 700.2 625.4 C 705.8 628.7 770.6 666.1 719.1 636.4 C 667.7 606.8 578.7 555.6 630.6 585.7 C 682.5 615.7 702.9 627.7 674.6 611.5 C 646.1 595.1 556.3 543.6 586.3 561.0 C 616.2 578.3 679.2 614.9 714.9 635.4 C 750.7 656.0 691.3 620.9 744.0 651.3 C 796.7 681.7 752.6 656.5 762.6 662.3 C 778.6 671.5 807.9 688.4 835.7 704.5 C 855.1 715.8 880.2 730.3 892.7 737.6 C 891.6 737.1 832.4 702.8 855.7 716.4 C 874.2 727.2 893.5 738.3 910.3 748.0 C 891.6 780.3 879.0 802.2 888.8 785.7 C 869.8 818.6 855.8 842.8 844.0 863.5 C 842.3 866.3 840.6 869.2 838.9 872.1 C 806.3 853.0 772.2 833.4 768.1 830.9 C 762.8 827.7 667.2 773.3 631.2 751.5 C 628.5 749.9 564.1 713.0 558.5 710.1 C 497.2 674.4 505.8 679.1 445.4 644.3 C 394.9 615.3 379.4 606.5 370.8 601.6 C 317.5 571.0 318.1 571.0 291.5 557.0 C 283.5 552.8 271.3 545.8 266.9 544.0 C 258.0 540.3 253.3 539.4 254.9 542.6 C 254.9 542.6 254.9 542.6 254.9 542.6 Z M 312.7 430.8 C 307.1 440.2 297.2 457.5 291.4 467.5 C 297.9 455.7 306.1 441.5 314.6 427.1 C 313.9 428.3 313.3 429.6 312.7 430.8 C 312.7 430.8 312.7 430.8 312.7 430.8 Z M 375.3 434.0 C 369.0 430.4 361.3 425.7 354.3 421.7 C 347.5 417.8 340.6 413.7 330.4 408.0 C 331.4 408.7 348.2 418.6 361.2 426.1 C 361.2 426.1 361.2 426.2 361.2 426.3 C 355.0 422.8 347.5 418.6 338.6 413.5 C 335.9 411.9 333.2 410.3 330.4 408.7 C 330.2 409.0 330.1 409.3 329.9 409.6 C 329.8 409.6 330.0 409.2 330.4 408.5 C 331.8 409.3 334.4 410.8 335.7 411.5 C 334.7 410.9 332.9 409.7 330.3 408.2 C 328.1 411.8 325.1 416.9 321.7 422.8 C 320.9 424.0 320.2 425.1 319.5 426.3 C 318.6 427.5 323.0 419.7 318.0 428.3 C 320.3 424.0 325.3 415.4 330.1 407.3 C 333.8 409.5 337.5 411.6 340.6 413.4 C 329.8 407.7 371.1 431.2 381.4 437.3 C 379.4 436.2 377.4 435.1 375.3 434.0 Z M 454.6 469.7 C 460.3 473.0 466.0 476.4 471.9 479.8 C 463.4 474.9 456.9 471.2 451.0 467.8 C 452.2 468.4 453.3 469.1 454.6 469.7 Z M 929.3 745.1 C 929.8 744.3 930.3 743.4 930.8 742.5 C 894.4 722.0 825.2 681.5 820.2 678.9 C 812.7 674.6 805.3 670.3 797.7 665.8 C 845.1 693.2 895.9 722.4 930.8 742.4 C 930.3 743.4 929.8 744.2 929.3 745.1 C 929.3 745.1 929.3 745.1 929.3 745.1 Z M 796.2 680.6 C 793.4 679.0 794.6 679.6 801.4 683.5 C 837.7 704.3 859.3 716.5 836.5 703.4 C 817.0 692.1 774.7 667.6 787.2 674.8 C 803.8 684.3 820.3 693.8 837.4 703.6 C 850.4 711.2 862.8 718.6 875.4 726.2 C 847.4 710.1 820.7 694.7 796.2 680.6 C 796.2 680.6 796.2 680.6 796.2 680.6 Z M 890.5 735.3 C 880.5 729.6 868.7 722.7 856.7 715.8 C 867.2 721.8 877.6 727.8 888.3 734.0 C 889.0 734.4 889.8 734.9 890.5 735.3 Z M 902.9 742.8 C 882.6 731.1 862.3 719.4 882.9 731.1 C 887.5 733.8 892.1 736.4 896.8 739.1 C 898.8 740.4 900.8 741.6 902.9 742.8 Z M 908.9 751.5 C 909.1 751.3 909.9 750.1 911.3 747.7 C 909.7 746.7 907.6 745.5 905.0 744.0 C 906.9 745.1 909.0 746.3 911.4 747.7 C 903.6 761.1 892.8 779.9 893.2 778.9 C 898.1 770.4 903.4 761.1 908.9 751.5 C 908.9 751.5 908.9 751.5 908.9 751.5 Z M 915.5 769.8 C 921.3 759.8 926.3 751.1 917.3 766.9 C 913.8 773.0 910.4 779.0 906.8 785.2 C 909.7 780.1 912.5 775.0 915.5 769.8 Z M 468.0 491.0 C 471.8 493.2 486.4 501.6 494.8 506.4 C 495.8 506.3 462.6 487.6 468.0 491.0 C 468.0 491.0 468.0 491.0 468.0 491.0 Z M 413.4 459.8 C 417.1 461.9 431.7 470.4 440.2 475.2 C 441.1 475.0 408.0 456.4 413.4 459.8 C 413.4 459.8 413.4 459.8 413.4 459.8 Z M 631.0 751.4 C 631.1 751.4 631.1 751.4 631.2 751.5 C 631.1 751.4 631.1 751.4 631.0 751.4 C 631.0 751.4 631.0 751.4 631.0 751.4 Z M 631.0 751.4 " fill="#F0F1EC"></path><g><clipPath id="clip0x600000eacd20"><path d="M 224.9 547.3 L 849.2 907.8 L 948.1 736.4 L 323.8 375.9 Z M 224.9 547.3 "></path></clipPath><g clip-path="url(#clip0x600000eacd20)"><text xml:space="preserve" font-family="Futura-Medium,Futura" font-size="100.0" fill="#F0F1EC" transform="matrix(0.87, 0.50, 0.50, -0.87, 321.7, 445.6)">o</text><text xml:space="preserve" font-family="Futura-Medium,Futura" font-size="100.0" fill="#F0F1EC" transform="matrix(0.87, 0.50, 0.50, -0.87, 373.7, 475.7)">n</text><text xml:space="preserve" font-family="Futura-Medium,Futura" font-size="100.0" fill="#F0F1EC" transform="matrix(0.87, 0.50, 0.50, -0.87, 421.2, 503.1)">l</text><text xml:space="preserve" font-family="Futura-Medium,Futura" font-size="100.0" fill="#F0F1EC" transform="matrix(0.87, 0.50, 0.50, -0.87, 443.6, 516.0)">y</text><text xml:space="preserve" font-family="Futura-Medium,Futura" font-size="100.0" fill="#F0F1EC" transform="matrix(0.87, 0.50, 0.50, -0.87, 490.7, 543.2)"> </text><text xml:space="preserve" font-family="Futura-Medium,Futura" font-size="100.0" fill="#F0F1EC" transform="matrix(0.87, 0.50, 0.50, -0.87, 517.4, 558.6)">f</text><text xml:space="preserve" font-family="Futura-Medium,Futura" font-size="100.0" fill="#F0F1EC" transform="matrix(0.87, 0.50, 0.50, -0.87, 544.1, 574.0)">o</text><text xml:space="preserve" font-family="Futura-Medium,Futura" font-size="100.0" fill="#F0F1EC" transform="matrix(0.87, 0.50, 0.50, -0.87, 596.2, 604.1)">r</text><text xml:space="preserve" font-family="Futura-Medium,Futura" font-size="100.0" fill="#F0F1EC" transform="matrix(0.87, 0.50, 0.50, -0.87, 628.6, 622.8)"> </text><text xml:space="preserve" font-family="Futura-Medium,Futura" font-size="100.0" fill="#F0F1EC" transform="matrix(0.87, 0.50, 0.50, -0.87, 655.3, 638.2)">K</text><text xml:space="preserve" font-family="Futura-Medium,Futura" font-size="100.0" fill="#F0F1EC" transform="matrix(0.87, 0.50, 0.50, -0.87, 712.6, 671.3)">i</text><text xml:space="preserve" font-family="Futura-Medium,Futura" font-size="100.0" fill="#F0F1EC" transform="matrix(0.87, 0.50, 0.50, -0.87, 734.2, 683.8)">t</text><text xml:space="preserve" font-family="Futura-Medium,Futura" font-size="100.0" fill="#F0F1EC" transform="matrix(0.87, 0.50, 0.50, -0.87, 757.9, 697.5)">K</text><text xml:space="preserve" font-family="Futura-Medium,Futura" font-size="100.0" fill="#F0F1EC" transform="matrix(0.87, 0.50, 0.50, -0.87, 812.4, 728.9)">a</text><text xml:space="preserve" font-family="Futura-Medium,Futura" font-size="100.0" fill="#F0F1EC" transform="matrix(0.87, 0.50, 0.50, -0.87, 864.3, 758.9)">t</text></g></g><path d="M 836.3 794.4 C 837.4 795.3 842.4 798.5 842.6 798.2 C 840.7 797.1 836.8 794.4 836.3 794.4 C 836.3 794.4 836.3 794.4 836.3 794.4 Z M 826.0 788.2 C 827.7 789.5 831.8 791.9 833.2 792.5 C 831.0 791.3 826.8 788.4 826.0 788.2 C 826.0 788.2 826.0 788.2 826.0 788.2 Z M 842.1 797.1 C 844.9 798.7 849.8 802.0 851.2 802.5 C 848.4 800.9 843.5 797.6 842.1 797.1 C 842.1 797.1 842.1 797.1 842.1 797.1 Z M 695.6 713.0 C 696.7 713.9 701.7 717.1 701.9 716.8 C 700.0 715.7 696.1 713.0 695.6 713.0 C 695.6 713.0 695.6 713.0 695.6 713.0 Z M 724.4 729.9 C 726.1 731.3 730.2 733.6 731.6 734.3 C 729.4 733.0 725.2 730.1 724.4 729.9 C 724.4 729.9 724.4 729.9 724.4 729.9 Z M 740.8 740.2 C 744.6 742.6 748.7 745.1 748.1 744.4 C 746.7 743.8 741.4 740.1 740.8 740.2 C 740.8 740.2 740.8 740.2 740.8 740.2 Z M 846.0 783.5 C 841.8 781.1 838.9 779.0 836.2 777.3 C 822.2 768.8 842.9 782.3 846.0 783.5 C 846.0 783.5 846.0 783.5 846.0 783.5 Z M 770.4 757.3 C 767.6 755.6 765.3 754.3 763.9 753.6 C 766.5 755.2 770.0 757.5 770.4 757.3 C 770.4 757.3 770.4 757.3 770.4 757.3 Z M 794.4 771.8 C 794.9 772.3 809.1 781.0 817.1 785.7 C 810.5 781.5 793.9 771.2 794.4 771.8 C 794.4 771.8 794.4 771.8 794.4 771.8 Z M 812.8 762.9 C 803.5 757.4 788.8 748.3 782.1 744.3 C 775.4 740.3 793.7 751.9 810.7 762.3 C 827.7 772.7 814.1 763.5 821.1 767.7 C 828.0 771.8 814.6 763.3 807.6 759.2 C 800.7 755.2 812.1 762.2 812.8 762.9 C 812.8 762.9 812.8 762.9 812.8 762.9 Z M 813.9 762.1 C 817.2 764.2 820.1 765.9 822.1 766.9 C 818.7 764.7 815.5 762.6 813.9 762.1 C 813.9 762.1 813.9 762.1 813.9 762.1 Z M 317.3 464.7 C 316.6 468.3 323.2 475.6 330.9 482.7 C 332.9 484.4 334.8 486.1 336.8 487.9 C 352.1 499.1 367.9 509.7 383.9 520.1 C 387.0 522.1 390.2 524.1 393.5 526.2 C 403.2 532.6 413.2 538.8 423.1 545.0 C 426.4 547.1 429.7 549.2 433.2 551.3 C 444.9 559.1 456.7 565.8 468.4 573.2 C 474.3 576.9 480.3 580.7 486.2 584.9 C 489.1 587.0 502.4 595.1 507.2 597.7 C 502.3 595.6 524.1 608.7 523.1 608.1 C 525.7 609.4 528.3 610.8 530.8 612.3 C 533.4 613.8 530.3 611.7 527.1 609.7 C 530.0 611.3 532.9 613.0 535.8 614.8 C 538.8 616.6 541.8 618.5 544.9 620.5 C 554.8 627.0 565.8 633.5 575.4 639.0 C 601.0 655.0 671.6 698.3 658.9 690.3 C 644.7 681.2 652.2 685.6 656.1 687.9 C 658.3 689.3 661.4 691.2 664.8 693.2 C 664.6 693.3 664.3 693.2 663.8 692.9 C 670.1 697.0 678.9 702.9 688.0 708.1 C 686.4 707.0 684.3 705.7 683.6 705.1 C 688.0 707.9 684.7 705.3 687.7 707.1 C 695.9 712.0 699.8 714.4 690.4 708.5 C 699.3 713.7 705.2 716.7 714.1 721.7 C 717.4 723.8 715.6 722.6 714.5 722.2 C 720.2 725.9 733.4 734.0 734.5 734.9 C 735.6 735.9 698.8 712.9 705.2 717.1 C 707.8 718.9 713.4 722.3 715.4 723.7 C 710.7 720.8 705.0 717.2 702.0 715.5 C 705.2 717.6 709.7 720.4 712.2 722.0 C 709.1 720.1 706.9 718.8 705.9 718.4 C 710.4 721.2 713.8 723.4 719.3 726.7 C 721.8 728.1 717.4 725.2 722.5 728.4 C 723.5 728.8 719.2 726.2 719.6 726.3 C 723.8 728.8 732.0 733.9 734.1 735.1 C 736.2 736.2 729.1 732.0 729.0 731.8 C 745.1 741.6 763.4 752.9 769.1 756.3 C 774.9 759.8 769.5 756.5 767.2 754.9 C 773.8 758.9 778.8 762.0 786.7 766.8 C 791.8 769.9 789.8 768.6 787.9 767.3 C 789.3 768.1 790.5 768.8 791.3 769.3 C 791.8 769.6 793.3 770.5 794.3 771.0 C 791.3 769.1 785.5 765.6 783.0 763.9 C 787.8 766.6 798.6 773.6 802.8 775.8 C 796.5 771.7 789.6 767.5 782.6 763.0 C 796.6 771.5 810.4 781.0 822.0 787.3 C 820.0 786.1 819.2 785.3 817.6 784.2 C 821.8 787.0 828.0 791.1 832.0 793.1 C 834.1 794.4 838.4 796.8 842.6 799.4 C 835.3 794.8 830.5 791.7 825.3 788.7 C 825.5 788.7 826.0 788.9 826.9 789.4 C 815.7 781.9 808.7 778.7 800.5 773.8 C 799.9 773.4 799.3 773.0 798.7 772.6 C 796.2 770.7 805.4 776.5 806.4 776.9 C 794.5 769.3 781.3 761.4 775.6 757.5 C 789.9 766.2 802.4 774.1 813.3 780.5 C 810.7 778.5 799.8 772.0 794.8 768.7 C 818.3 782.8 820.7 784.3 822.6 785.4 C 820.8 784.3 819.0 783.1 817.2 781.9 C 817.7 782.2 818.2 782.4 818.7 782.6 C 829.0 789.0 841.0 796.4 840.5 796.0 C 840.1 795.6 830.7 789.7 820.8 783.6 C 821.9 784.1 823.0 784.6 824.2 785.2 C 835.8 792.3 849.3 799.9 860.7 807.3 C 859.0 805.8 859.9 806.5 862.5 807.8 C 858.9 805.4 853.7 802.2 849.9 799.6 C 851.3 800.4 853.7 801.9 854.5 802.3 C 852.6 801.0 849.5 799.1 848.7 798.3 C 854.2 801.6 860.2 805.2 866.0 808.7 C 867.4 809.2 863.5 807.1 863.9 807.1 C 869.5 810.4 877.1 815.3 881.3 817.5 C 876.8 814.5 867.6 809.1 864.9 807.2 C 866.8 808.2 868.7 809.3 870.6 810.4 C 874.4 812.7 876.2 813.7 872.1 811.0 C 869.8 809.5 869.9 809.5 870.5 809.9 C 873.2 811.3 882.1 816.8 882.0 816.3 C 879.8 814.9 870.9 809.4 868.8 807.7 C 870.6 808.5 875.1 811.5 875.7 811.5 C 865.7 805.5 866.2 805.6 863.6 804.2 C 864.6 804.9 867.5 806.6 867.3 806.7 C 861.2 803.0 855.1 799.2 848.8 795.3 C 848.8 795.3 848.8 795.3 848.8 795.3 C 848.8 795.3 848.8 795.3 848.8 795.3 C 848.8 795.3 848.8 795.3 848.8 795.3 C 849.5 795.4 849.5 795.0 849.0 794.6 C 851.7 796.2 854.5 797.8 859.4 801.0 C 858.4 799.7 853.8 797.0 849.5 794.5 C 849.5 794.5 849.6 794.4 849.7 794.4 C 856.5 798.6 867.0 804.9 874.1 809.1 C 871.0 807.0 859.2 799.7 851.2 794.8 C 851.5 794.9 851.8 795.0 852.1 795.1 C 842.0 789.0 830.4 781.3 819.0 774.5 C 824.7 777.4 830.8 781.7 837.9 785.9 C 841.2 787.9 844.3 789.6 847.5 791.4 C 856.4 797.0 882.9 813.5 886.0 815.2 C 889.5 817.0 862.6 800.4 862.5 800.2 C 862.4 800.0 875.0 807.6 869.1 804.0 C 866.0 802.1 859.2 798.0 854.3 795.0 C 854.3 794.7 854.3 794.3 854.3 794.0 C 858.5 796.6 863.6 799.6 863.5 800.2 C 865.7 801.4 870.0 804.3 870.8 804.5 C 870.1 804.1 869.0 803.4 869.1 803.3 C 870.1 803.9 871.6 804.9 871.8 804.9 C 866.7 801.7 859.7 797.2 854.1 793.7 C 853.7 793.3 853.3 792.9 852.8 792.5 C 853.0 792.5 857.4 795.1 861.2 797.4 C 865.2 799.8 857.0 794.6 850.5 790.6 C 849.5 789.8 848.6 789.1 847.6 788.3 C 849.8 789.7 852.4 791.3 855.5 793.2 C 859.2 795.3 859.2 795.0 862.9 797.1 C 856.4 792.9 848.4 787.9 841.9 784.0 C 839.7 782.4 837.5 780.7 835.2 779.0 C 840.6 782.2 845.6 785.1 848.7 786.7 C 851.0 788.2 853.5 789.8 854.4 790.2 C 852.3 788.7 858.0 792.2 857.3 791.4 C 854.0 789.7 847.9 785.8 845.4 784.7 C 840.5 781.7 835.1 778.3 830.3 775.4 C 829.7 775.0 829.1 774.5 828.5 774.1 C 832.6 776.6 836.5 778.9 840.9 781.5 C 839.1 779.9 827.2 772.5 818.5 767.4 C 801.1 756.2 782.5 746.7 764.8 736.0 C 764.1 735.5 763.1 734.9 762.0 734.1 C 760.8 733.2 759.6 732.3 758.3 731.4 C 762.6 734.0 766.3 736.3 769.5 738.1 C 757.2 730.1 787.4 748.9 789.5 749.8 C 769.7 736.9 731.8 713.9 708.7 699.2 C 714.3 702.6 716.2 703.7 710.2 699.9 C 708.6 698.8 707.0 697.8 705.3 696.7 C 729.2 711.1 753.4 726.9 772.6 738.0 C 761.4 731.0 744.3 720.7 739.8 717.5 C 743.1 719.5 747.9 722.5 748.6 722.8 C 743.1 719.0 723.6 707.4 718.1 703.6 C 745.9 720.5 783.2 743.9 803.8 756.0 C 773.0 737.2 731.7 711.2 705.1 695.3 C 709.6 698.2 709.6 698.3 707.1 697.0 C 698.9 692.0 690.7 687.0 682.3 681.9 C 680.6 680.8 681.2 681.1 685.3 683.5 C 688.7 685.5 690.6 686.7 691.8 687.2 C 689.6 685.7 663.5 669.7 684.3 682.4 C 705.0 695.0 740.8 717.0 720.0 704.0 C 699.1 690.9 691.0 685.6 702.5 692.6 C 714.0 699.5 750.3 721.5 738.2 714.0 C 726.2 706.5 700.9 690.5 686.5 681.7 C 672.0 672.8 695.6 688.7 674.4 675.6 C 653.2 662.5 671.1 673.1 667.0 670.6 C 660.6 666.6 648.8 659.3 637.6 652.4 C 629.8 647.5 619.7 641.2 614.7 637.9 C 615.2 638.0 639.0 652.9 629.7 646.9 C 606.4 632.5 580.5 616.4 590.9 623.4 C 576.6 614.4 566.0 607.9 557.0 602.4 C 543.2 593.4 527.0 583.4 525.3 582.2 C 523.2 580.8 484.7 558.0 471.0 548.1 C 469.9 547.4 444.1 531.8 441.7 530.8 C 417.5 515.3 421.1 517.2 396.9 502.4 C 376.8 490.0 370.5 486.4 367.1 484.3 C 345.8 471.4 346.2 471.1 334.9 466.2 C 331.5 464.7 326.7 461.7 324.6 461.4 C 320.4 460.8 317.7 461.7 317.3 464.7 C 317.3 464.7 317.3 464.7 317.3 464.7 Z M 845.8 794.1 C 849.4 796.5 856.3 800.6 860.1 803.2 C 855.4 800.7 849.9 797.1 844.3 793.5 C 844.8 793.7 845.3 793.9 845.8 794.1 C 845.8 794.1 845.8 794.1 845.8 794.1 Z M 819.6 771.7 C 822.1 773.2 825.0 775.3 827.9 777.0 C 830.5 778.7 833.3 780.4 837.4 782.8 C 837.1 782.4 830.6 778.1 825.4 775.0 C 825.4 774.9 825.5 774.8 825.5 774.7 C 828.1 776.1 831.1 777.9 834.7 780.1 C 835.9 780.9 837.1 781.6 838.3 782.4 C 838.3 782.6 836.3 781.6 835.6 781.1 C 836.4 781.9 839.5 783.9 843.5 786.5 C 844.0 786.9 844.4 787.2 844.9 787.6 C 845.3 788.1 842.2 786.3 845.6 788.4 C 843.1 787.2 836.9 783.1 833.0 780.8 C 837.7 782.9 821.0 773.1 817.1 770.3 C 817.9 770.8 818.7 771.2 819.6 771.7 Z M 781.7 762.4 C 779.5 761.0 777.3 759.7 775.0 758.2 C 778.3 760.3 780.9 761.8 783.2 763.2 C 782.7 762.9 782.2 762.7 781.7 762.4 Z M 595.7 650.5 C 609.5 658.1 637.4 676.2 639.4 677.0 C 642.3 678.8 645.1 680.6 648.1 682.5 C 629.3 671.0 609.2 658.6 595.7 650.5 C 595.7 650.5 595.7 650.5 595.7 650.5 Z M 653.2 663.6 C 654.3 664.3 653.8 664.1 651.1 662.4 C 636.5 653.6 627.8 648.6 636.9 654.2 C 644.7 659.0 661.7 669.6 656.6 666.6 C 650.0 662.6 643.3 658.5 636.5 654.4 C 631.3 651.0 626.4 647.6 621.4 644.1 C 632.6 651.0 643.4 657.6 653.2 663.6 C 653.2 663.6 653.2 663.6 653.2 663.6 Z M 615.4 639.8 C 619.4 642.3 624.1 645.3 629.0 648.3 C 624.8 645.7 620.6 643.1 616.2 640.5 C 616.0 640.2 615.7 640.0 615.4 639.8 Z M 610.5 636.3 C 618.7 641.3 626.8 646.4 618.5 641.4 C 616.7 640.3 614.8 639.2 612.9 638.0 C 612.1 637.4 611.3 636.9 610.5 636.3 Z M 605.5 633.0 C 605.6 633.1 606.9 634.1 609.6 635.8 C 604.1 632.4 592.9 625.6 593.6 625.7 C 597.3 627.9 601.4 630.4 605.5 633.0 C 605.5 633.0 605.5 633.0 605.5 633.0 Z M 586.5 645.3 C 590.0 647.6 593.2 649.6 587.4 646.1 C 585.2 644.8 583.0 643.5 580.8 642.1 C 582.7 643.2 584.5 644.2 586.5 645.3 Z M 784.9 745.2 C 783.4 744.3 777.5 740.7 774.1 738.7 C 773.3 739.2 786.9 746.9 784.9 745.2 C 784.9 745.2 784.9 745.2 784.9 745.2 Z M 807.0 758.5 C 805.5 757.6 799.7 753.9 796.2 751.9 C 795.4 752.4 809.0 760.1 807.0 758.5 C 807.0 758.5 807.0 758.5 807.0 758.5 Z M 471.0 548.0 C 471.0 548.0 471.0 548.0 471.0 548.0 C 471.0 548.0 471.0 548.0 471.0 548.0 C 471.0 548.0 471.0 548.0 471.0 548.0 Z M 471.0 548.0 " fill="#787878"></path><path d="M 40.0 163.0 L 1880.0 163.0 L 1880.0 46.0 L 40.0 46.0 Z M 40.1 162.6 " fill="#F0F1EC"></path><g><clipPath id="clip0x600000ead620"><path d="M 19.1 22.3 L 1901.9 22.3 L 1901.9 183.6 L 19.1 183.6 Z M 19.1 22.3 "></path></clipPath><g clip-path="url(#clip0x600000ead620)"><text xml:space="preserve" font-family="Futura-Medium,Futura" font-size="82.0" fill="#FF3E47" transform="matrix(1.00, 0.00, -0.00, -1.00, 46.2, 72.7)">h</text><text xml:space="preserve" font-family="Futura-Medium,Futura" font-size="82.0" fill="#FF3E47" transform="matrix(1.00, 0.00, -0.00, -1.00, 91.2, 72.7)">t</text><text xml:space="preserve" font-family="Futura-Medium,Futura" font-size="82.0" fill="#FF3E47" transform="matrix(1.00, 0.00, -0.00, -1.00, 113.7, 72.7)">t</text><text xml:space="preserve" font-family="Futura-Medium,Futura" font-size="82.0" fill="#FF3E47" transform="matrix(1.00, 0.00, -0.00, -1.00, 136.1, 72.7)">p</text><text xml:space="preserve" font-family="Futura-Medium,Futura" font-size="82.0" fill="#FF3E47" transform="matrix(1.00, 0.00, -0.00, -1.00, 185.3, 72.7)">s</text><text xml:space="preserve" font-family="Futura-Medium,Futura" font-size="82.0" fill="#FF3E47" transform="matrix(1.00, 0.00, -0.00, -1.00, 218.5, 72.7)">:</text><text xml:space="preserve" font-family="Futura-Medium,Futura" font-size="82.0" fill="#FF3E47" transform="matrix(1.00, 0.00, -0.00, -1.00, 243.8, 72.7)">/</text><text xml:space="preserve" font-family="Futura-Medium,Futura" font-size="82.0" fill="#FF3E47" transform="matrix(1.00, 0.00, -0.00, -1.00, 286.3, 72.7)">/</text><text xml:space="preserve" font-family="Futura-Medium,Futura" font-size="82.0" fill="#FF3E47" transform="matrix(1.00, 0.00, -0.00, -1.00, 328.8, 72.7)">g</text><text xml:space="preserve" font-family="Futura-Medium,Futura" font-size="82.0" fill="#FF3E47" transform="matrix(1.00, 0.00, -0.00, -1.00, 377.8, 72.7)">i</text><text xml:space="preserve" font-family="Futura-Medium,Futura" font-size="82.0" fill="#FF3E47" transform="matrix(1.00, 0.00, -0.00, -1.00, 398.3, 72.7)">t</text><text xml:space="preserve" font-family="Futura-Medium,Futura" font-size="82.0" fill="#FF3E47" transform="matrix(1.00, 0.00, -0.00, -1.00, 422.4, 72.7)">h</text><text xml:space="preserve" font-family="Futura-Medium,Futura" font-size="82.0" fill="#FF3E47" transform="matrix(1.00, 0.00, -0.00, -1.00, 467.4, 72.7)">u</text><text xml:space="preserve" font-family="Futura-Medium,Futura" font-size="82.0" fill="#FF3E47" transform="matrix(1.00, 0.00, -0.00, -1.00, 512.0, 72.7)">b</text><text xml:space="preserve" font-family="Futura-Medium,Futura" font-size="82.0" fill="#FF3E47" transform="matrix(1.00, 0.00, -0.00, -1.00, 561.2, 72.7)">.</text><text xml:space="preserve" font-family="Futura-Medium,Futura" font-size="82.0" fill="#FF3E47" transform="matrix(1.00, 0.00, -0.00, -1.00, 586.4, 72.7)">c</text><text xml:space="preserve" font-family="Futura-Medium,Futura" font-size="82.0" fill="#FF3E47" transform="matrix(1.00, 0.00, -0.00, -1.00, 625.5, 72.7)">o</text><text xml:space="preserve" font-family="Futura-Medium,Futura" font-size="82.0" fill="#FF3E47" transform="matrix(1.00, 0.00, -0.00, -1.00, 674.8, 72.7)">m</text><text xml:space="preserve" font-family="Futura-Medium,Futura" font-size="82.0" fill="#FF3E47" transform="matrix(1.00, 0.00, -0.00, -1.00, 739.6, 72.7)">/</text><text xml:space="preserve" font-family="Futura-Medium,Futura" font-size="82.0" fill="#FF3E47" transform="matrix(1.00, 0.00, -0.00, -1.00, 782.1, 72.7)">g</text><text xml:space="preserve" font-family="Futura-Medium,Futura" font-size="82.0" fill="#FF3E47" transform="matrix(1.00, 0.00, -0.00, -1.00, 831.2, 72.7)">u</text><text xml:space="preserve" font-family="Futura-Medium,Futura" font-size="82.0" fill="#FF3E47" transform="matrix(1.00, 0.00, -0.00, -1.00, 875.9, 72.7)">e</text><text xml:space="preserve" font-family="Futura-Medium,Futura" font-size="82.0" fill="#FF3E47" transform="matrix(1.00, 0.00, -0.00, -1.00, 921.2, 72.7)">r</text><text xml:space="preserve" font-family="Futura-Medium,Futura" font-size="82.0" fill="#FF3E47" transform="matrix(1.00, 0.00, -0.00, -1.00, 955.7, 72.7)">w</text><text xml:space="preserve" font-family="Futura-Medium,Futura" font-size="82.0" fill="#FF3E47" transform="matrix(1.00, 0.00, -0.00, -1.00, 1017.8, 72.7)">a</text><text xml:space="preserve" font-family="Futura-Medium,Futura" font-size="82.0" fill="#FF3E47" transform="matrix(1.00, 0.00, -0.00, -1.00, 1066.9, 72.7)">n</text><text xml:space="preserve" font-family="Futura-Medium,Futura" font-size="82.0" fill="#FF3E47" transform="matrix(1.00, 0.00, -0.00, -1.00, 1111.9, 72.7)">/</text><text xml:space="preserve" font-family="Futura-Medium,Futura" font-size="82.0" fill="#FF3E47" transform="matrix(1.00, 0.00, -0.00, -1.00, 1154.4, 72.7)">T</text><text xml:space="preserve" font-family="Futura-Medium,Futura" font-size="82.0" fill="#FF3E47" transform="matrix(1.00, 0.00, -0.00, -1.00, 1191.2, 72.7)">r</text><text xml:space="preserve" font-family="Futura-Medium,Futura" font-size="82.0" fill="#FF3E47" transform="matrix(1.00, 0.00, -0.00, -1.00, 1221.3, 72.7)">a</text><text xml:space="preserve" font-family="Futura-Medium,Futura" font-size="82.0" fill="#FF3E47" transform="matrix(1.00, 0.00, -0.00, -1.00, 1270.5, 72.7)">n</text><text xml:space="preserve" font-family="Futura-Medium,Futura" font-size="82.0" fill="#FF3E47" transform="matrix(1.00, 0.00, -0.00, -1.00, 1315.4, 72.7)">s</text><text xml:space="preserve" font-family="Futura-Medium,Futura" font-size="82.0" fill="#FF3E47" transform="matrix(1.00, 0.00, -0.00, -1.00, 1348.7, 72.7)">i</text><text xml:space="preserve" font-family="Futura-Medium,Futura" font-size="82.0" fill="#FF3E47" transform="matrix(1.00, 0.00, -0.00, -1.00, 1369.1, 72.7)">t</text><text xml:space="preserve" font-family="Futura-Medium,Futura" font-size="82.0" fill="#FF3E47" transform="matrix(1.00, 0.00, -0.00, -1.00, 1391.6, 72.7)">i</text><text xml:space="preserve" font-family="Futura-Medium,Futura" font-size="82.0" fill="#FF3E47" transform="matrix(1.00, 0.00, -0.00, -1.00, 1412.0, 72.7)">o</text><text xml:space="preserve" font-family="Futura-Medium,Futura" font-size="82.0" fill="#FF3E47" transform="matrix(1.00, 0.00, -0.00, -1.00, 1461.3, 72.7)">n</text><text xml:space="preserve" font-family="Futura-Medium,Futura" font-size="82.0" fill="#FF3E47" transform="matrix(1.00, 0.00, -0.00, -1.00, 1506.3, 72.7)">s</text><text xml:space="preserve" font-family="Futura-Medium,Futura" font-size="82.0" fill="#FF3E47" transform="matrix(1.00, 0.00, -0.00, -1.00, 1539.5, 72.7)">B</text><text xml:space="preserve" font-family="Futura-Medium,Futura" font-size="82.0" fill="#FF3E47" transform="matrix(1.00, 0.00, -0.00, -1.00, 1588.0, 72.7)">a</text><text xml:space="preserve" font-family="Futura-Medium,Futura" font-size="82.0" fill="#FF3E47" transform="matrix(1.00, 0.00, -0.00, -1.00, 1637.2, 72.7)">c</text><text xml:space="preserve" font-family="Futura-Medium,Futura" font-size="82.0" fill="#FF3E47" transform="matrix(1.00, 0.00, -0.00, -1.00, 1678.3, 72.7)">k</text><text xml:space="preserve" font-family="Futura-Medium,Futura" font-size="82.0" fill="#FF3E47" transform="matrix(1.00, 0.00, -0.00, -1.00, 1719.2, 72.7)">p</text><text xml:space="preserve" font-family="Futura-Medium,Futura" font-size="82.0" fill="#FF3E47" transform="matrix(1.00, 0.00, -0.00, -1.00, 1768.3, 72.7)">o</text><text xml:space="preserve" font-family="Futura-Medium,Futura" font-size="82.0" fill="#FF3E47" transform="matrix(1.00, 0.00, -0.00, -1.00, 1817.6, 72.7)">r</text><text xml:space="preserve" font-family="Futura-Medium,Futura" font-size="82.0" fill="#FF3E47" transform="matrix(1.00, 0.00, -0.00, -1.00, 1851.3, 72.7)">t</text><path d="M 6.1 97.9 L 1833.6 97.9 " fill="none" stroke="#FF3E47" stroke-width="6.41" transform="matrix(1.00, 0.00, 0.00, -1.00, 40.1, 162.6)"></path></g></g></g></svg>