<?xml version="1.0" encoding="UTF-8" standalone="no"?><svg xmlns="http://www.w3.org/2000/svg" xmlns:xlink="http://www.w3.org/1999/xlink" clip-rule="evenodd" stroke-miterlimit="10" viewBox="0 0 1842 120"><desc>SVG generated by Keynote</desc><defs></defs><g transform="matrix(1.00, 0.00, -0.00, -1.00, 0.0, 120.0)"><path d="M 1.0 119.0 L 1841.0 119.0 L 1841.0 2.0 L 1.0 2.0 Z M 1.1 118.6 " fill="#F0F1EC"></path><g><clipPath id="clip0x600000ea6c60"><path d="M -19.9 -21.7 L 1862.9 -21.7 L 1862.9 139.6 L -19.9 139.6 Z M -19.9 -21.7 "></path></clipPath><g clip-path="url(#clip0x600000ea6c60)"><text xml:space="preserve" font-family="Futura-Medium,Futura" font-size="82.0" fill="#FF3E47" transform="matrix(1.00, 0.00, -0.00, -1.00, 7.2, 28.7)">h</text><text xml:space="preserve" font-family="Futura-Medium,Futura" font-size="82.0" fill="#FF3E47" transform="matrix(1.00, 0.00, -0.00, -1.00, 52.2, 28.7)">t</text><text xml:space="preserve" font-family="Futura-Medium,Futura" font-size="82.0" fill="#FF3E47" transform="matrix(1.00, 0.00, -0.00, -1.00, 74.7, 28.7)">t</text><text xml:space="preserve" font-family="Futura-Medium,Futura" font-size="82.0" fill="#FF3E47" transform="matrix(1.00, 0.00, -0.00, -1.00, 97.1, 28.7)">p</text><text xml:space="preserve" font-family="Futura-Medium,Futura" font-size="82.0" fill="#FF3E47" transform="matrix(1.00, 0.00, -0.00, -1.00, 146.3, 28.7)">s</text><text xml:space="preserve" font-family="Futura-Medium,Futura" font-size="82.0" fill="#FF3E47" transform="matrix(1.00, 0.00, -0.00, -1.00, 179.5, 28.7)">:</text><text xml:space="preserve" font-family="Futura-Medium,Futura" font-size="82.0" fill="#FF3E47" transform="matrix(1.00, 0.00, -0.00, -1.00, 204.8, 28.7)">/</text><text xml:space="preserve" font-family="Futura-Medium,Futura" font-size="82.0" fill="#FF3E47" transform="matrix(1.00, 0.00, -0.00, -1.00, 247.3, 28.7)">/</text><text xml:space="preserve" font-family="Futura-Medium,Futura" font-size="82.0" fill="#FF3E47" transform="matrix(1.00, 0.00, -0.00, -1.00, 289.8, 28.7)">g</text><text xml:space="preserve" font-family="Futura-Medium,Futura" font-size="82.0" fill="#FF3E47" transform="matrix(1.00, 0.00, -0.00, -1.00, 338.8, 28.7)">i</text><text xml:space="preserve" font-family="Futura-Medium,Futura" font-size="82.0" fill="#FF3E47" transform="matrix(1.00, 0.00, -0.00, -1.00, 359.3, 28.7)">t</text><text xml:space="preserve" font-family="Futura-Medium,Futura" font-size="82.0" fill="#FF3E47" transform="matrix(1.00, 0.00, -0.00, -1.00, 383.4, 28.7)">h</text><text xml:space="preserve" font-family="Futura-Medium,Futura" font-size="82.0" fill="#FF3E47" transform="matrix(1.00, 0.00, -0.00, -1.00, 428.4, 28.7)">u</text><text xml:space="preserve" font-family="Futura-Medium,Futura" font-size="82.0" fill="#FF3E47" transform="matrix(1.00, 0.00, -0.00, -1.00, 473.0, 28.7)">b</text><text xml:space="preserve" font-family="Futura-Medium,Futura" font-size="82.0" fill="#FF3E47" transform="matrix(1.00, 0.00, -0.00, -1.00, 522.2, 28.7)">.</text><text xml:space="preserve" font-family="Futura-Medium,Futura" font-size="82.0" fill="#FF3E47" transform="matrix(1.00, 0.00, -0.00, -1.00, 547.4, 28.7)">c</text><text xml:space="preserve" font-family="Futura-Medium,Futura" font-size="82.0" fill="#FF3E47" transform="matrix(1.00, 0.00, -0.00, -1.00, 586.5, 28.7)">o</text><text xml:space="preserve" font-family="Futura-Medium,Futura" font-size="82.0" fill="#FF3E47" transform="matrix(1.00, 0.00, -0.00, -1.00, 635.8, 28.7)">m</text><text xml:space="preserve" font-family="Futura-Medium,Futura" font-size="82.0" fill="#FF3E47" transform="matrix(1.00, 0.00, -0.00, -1.00, 700.6, 28.7)">/</text><text xml:space="preserve" font-family="Futura-Medium,Futura" font-size="82.0" fill="#FF3E47" transform="matrix(1.00, 0.00, -0.00, -1.00, 743.1, 28.7)">g</text><text xml:space="preserve" font-family="Futura-Medium,Futura" font-size="82.0" fill="#FF3E47" transform="matrix(1.00, 0.00, -0.00, -1.00, 792.2, 28.7)">u</text><text xml:space="preserve" font-family="Futura-Medium,Futura" font-size="82.0" fill="#FF3E47" transform="matrix(1.00, 0.00, -0.00, -1.00, 836.9, 28.7)">e</text><text xml:space="preserve" font-family="Futura-Medium,Futura" font-size="82.0" fill="#FF3E47" transform="matrix(1.00, 0.00, -0.00, -1.00, 882.2, 28.7)">r</text><text xml:space="preserve" font-family="Futura-Medium,Futura" font-size="82.0" fill="#FF3E47" transform="matrix(1.00, 0.00, -0.00, -1.00, 916.7, 28.7)">w</text><text xml:space="preserve" font-family="Futura-Medium,Futura" font-size="82.0" fill="#FF3E47" transform="matrix(1.00, 0.00, -0.00, -1.00, 978.8, 28.7)">a</text><text xml:space="preserve" font-family="Futura-Medium,Futura" font-size="82.0" fill="#FF3E47" transform="matrix(1.00, 0.00, -0.00, -1.00, 1027.9, 28.7)">n</text><text xml:space="preserve" font-family="Futura-Medium,Futura" font-size="82.0" fill="#FF3E47" transform="matrix(1.00, 0.00, -0.00, -1.00, 1072.9, 28.7)">/</text><text xml:space="preserve" font-family="Futura-Medium,Futura" font-size="82.0" fill="#FF3E47" transform="matrix(1.00, 0.00, -0.00, -1.00, 1115.4, 28.7)">T</text><text xml:space="preserve" font-family="Futura-Medium,Futura" font-size="82.0" fill="#FF3E47" transform="matrix(1.00, 0.00, -0.00, -1.00, 1152.2, 28.7)">r</text><text xml:space="preserve" font-family="Futura-Medium,Futura" font-size="82.0" fill="#FF3E47" transform="matrix(1.00, 0.00, -0.00, -1.00, 1182.3, 28.7)">a</text><text xml:space="preserve" font-family="Futura-Medium,Futura" font-size="82.0" fill="#FF3E47" transform="matrix(1.00, 0.00, -0.00, -1.00, 1231.5, 28.7)">n</text><text xml:space="preserve" font-family="Futura-Medium,Futura" font-size="82.0" fill="#FF3E47" transform="matrix(1.00, 0.00, -0.00, -1.00, 1276.4, 28.7)">s</text><text xml:space="preserve" font-family="Futura-Medium,Futura" font-size="82.0" fill="#FF3E47" transform="matrix(1.00, 0.00, -0.00, -1.00, 1309.7, 28.7)">i</text><text xml:space="preserve" font-family="Futura-Medium,Futura" font-size="82.0" fill="#FF3E47" transform="matrix(1.00, 0.00, -0.00, -1.00, 1330.1, 28.7)">t</text><text xml:space="preserve" font-family="Futura-Medium,Futura" font-size="82.0" fill="#FF3E47" transform="matrix(1.00, 0.00, -0.00, -1.00, 1352.6, 28.7)">i</text><text xml:space="preserve" font-family="Futura-Medium,Futura" font-size="82.0" fill="#FF3E47" transform="matrix(1.00, 0.00, -0.00, -1.00, 1373.0, 28.7)">o</text><text xml:space="preserve" font-family="Futura-Medium,Futura" font-size="82.0" fill="#FF3E47" transform="matrix(1.00, 0.00, -0.00, -1.00, 1422.3, 28.7)">n</text><text xml:space="preserve" font-family="Futura-Medium,Futura" font-size="82.0" fill="#FF3E47" transform="matrix(1.00, 0.00, -0.00, -1.00, 1467.3, 28.7)">s</text><text xml:space="preserve" font-family="Futura-Medium,Futura" font-size="82.0" fill="#FF3E47" transform="matrix(1.00, 0.00, -0.00, -1.00, 1500.5, 28.7)">B</text><text xml:space="preserve" font-family="Futura-Medium,Futura" font-size="82.0" fill="#FF3E47" transform="matrix(1.00, 0.00, -0.00, -1.00, 1549.0, 28.7)">a</text><text xml:space="preserve" font-family="Futura-Medium,Futura" font-size="82.0" fill="#FF3E47" transform="matrix(1.00, 0.00, -0.00, -1.00, 1598.2, 28.7)">c</text><text xml:space="preserve" font-family="Futura-Medium,Futura" font-size="82.0" fill="#FF3E47" transform="matrix(1.00, 0.00, -0.00, -1.00, 1639.3, 28.7)">k</text><text xml:space="preserve" font-family="Futura-Medium,Futura" font-size="82.0" fill="#FF3E47" transform="matrix(1.00, 0.00, -0.00, -1.00, 1680.2, 28.7)">p</text><text xml:space="preserve" font-family="Futura-Medium,Futura" font-size="82.0" fill="#FF3E47" transform="matrix(1.00, 0.00, -0.00, -1.00, 1729.3, 28.7)">o</text><text xml:space="preserve" font-family="Futura-Medium,Futura" font-size="82.0" fill="#FF3E47" transform="matrix(1.00, 0.00, -0.00, -1.00, 1778.6, 28.7)">r</text><text xml:space="preserve" font-family="Futura-Medium,Futura" font-size="82.0" fill="#FF3E47" transform="matrix(1.00, 0.00, -0.00, -1.00, 1812.3, 28.7)">t</text><path d="M 6.1 97.9 L 1833.6 97.9 " fill="none" stroke="#FF3E47" stroke-width="6.41" transform="matrix(1.00, 0.00, 0.00, -1.00, 1.1, 118.6)"></path></g></g></g></svg>