<?xml version="1.0" encoding="UTF-8" standalone="no"?><svg xmlns="http://www.w3.org/2000/svg" xmlns:xlink="http://www.w3.org/1999/xlink" clip-rule="evenodd" stroke-miterlimit="10" viewBox="0 0 612 393"><desc>SVG generated by Keynote</desc><defs></defs><g transform="matrix(1.00, 0.00, -0.00, -1.00, 0.0, 393.0)"><path d="M 540.3 348.4 C 541.4 349.3 546.4 352.5 546.6 352.2 C 544.7 351.1 540.8 348.4 540.3 348.4 C 540.3 348.4 540.3 348.4 540.3 348.4 Z M 530.0 342.2 C 531.7 343.5 535.8 345.9 537.2 346.5 C 535.0 345.3 530.8 342.4 530.0 342.2 C 530.0 342.2 530.0 342.2 530.0 342.2 Z M 546.1 351.1 C 548.9 352.7 553.8 356.0 555.2 356.5 C 552.4 354.9 547.5 351.6 546.1 351.1 C 546.1 351.1 546.1 351.1 546.1 351.1 Z M 399.6 267.0 C 400.7 267.9 405.7 271.1 405.9 270.8 C 404.0 269.7 400.1 267.0 399.6 267.0 C 399.6 267.0 399.6 267.0 399.6 267.0 Z M 428.4 283.9 C 430.1 285.3 434.2 287.6 435.6 288.3 C 433.4 287.0 429.2 284.1 428.4 283.9 C 428.4 283.9 428.4 283.9 428.4 283.9 Z M 444.8 294.2 C 448.6 296.6 452.7 299.1 452.1 298.4 C 450.7 297.8 445.4 294.1 444.8 294.2 C 444.8 294.2 444.8 294.2 444.8 294.2 Z M 550.0 337.5 C 545.8 335.1 542.9 333.0 540.2 331.3 C 526.2 322.8 546.9 336.3 550.0 337.5 C 550.0 337.5 550.0 337.5 550.0 337.5 Z M 474.4 311.3 C 471.6 309.6 469.3 308.3 467.9 307.6 C 470.5 309.2 474.0 311.5 474.4 311.3 C 474.4 311.3 474.4 311.3 474.4 311.3 Z M 498.4 325.8 C 498.9 326.3 513.1 335.0 521.1 339.7 C 514.5 335.5 497.9 325.2 498.4 325.8 C 498.4 325.8 498.4 325.8 498.4 325.8 Z M 516.8 316.9 C 507.5 311.4 492.8 302.3 486.1 298.3 C 479.4 294.3 497.7 305.9 514.7 316.3 C 531.7 326.7 518.1 317.5 525.1 321.7 C 532.0 325.8 518.6 317.3 511.6 313.2 C 504.7 309.2 516.1 316.2 516.8 316.9 C 516.8 316.9 516.8 316.9 516.8 316.9 Z M 517.9 316.1 C 521.2 318.2 524.1 319.9 526.1 320.9 C 522.7 318.7 519.5 316.6 517.9 316.1 C 517.9 316.1 517.9 316.1 517.9 316.1 Z M 21.3 18.7 C 20.6 22.3 27.2 29.6 34.9 36.7 C 36.9 38.4 38.8 40.1 40.8 41.9 C 56.1 53.1 71.9 63.7 87.9 74.1 C 91.0 76.1 94.2 78.1 97.5 80.2 C 107.2 86.6 117.2 92.8 127.1 99.0 C 130.4 101.1 133.7 103.2 137.2 105.3 C 148.9 113.1 160.7 119.8 172.4 127.2 C 178.3 130.9 184.3 134.7 190.2 138.9 C 193.1 141.0 206.4 149.1 211.2 151.7 C 206.3 149.6 228.1 162.7 227.1 162.1 C 229.7 163.4 232.3 164.8 234.8 166.3 C 237.4 167.8 234.3 165.7 231.1 163.7 C 234.0 165.3 236.9 167.0 239.8 168.8 C 242.8 170.6 245.8 172.5 248.9 174.5 C 258.8 181.0 269.8 187.5 279.4 193.0 C 305.0 209.0 375.6 252.3 362.9 244.3 C 348.7 235.2 356.2 239.6 360.1 241.9 C 362.3 243.3 365.4 245.2 368.8 247.2 C 368.6 247.3 368.3 247.2 367.8 246.9 C 374.1 251.0 382.9 256.9 392.0 262.1 C 390.4 261.0 388.3 259.7 387.6 259.1 C 392.0 261.9 388.7 259.3 391.7 261.1 C 399.9 266.0 403.8 268.4 394.4 262.5 C 403.3 267.7 409.2 270.7 418.1 275.7 C 421.4 277.8 419.6 276.6 418.5 276.2 C 424.2 279.9 437.4 288.0 438.5 288.9 C 439.6 289.9 402.8 266.9 409.2 271.1 C 411.8 272.9 417.4 276.3 419.4 277.7 C 414.7 274.8 409.0 271.2 406.0 269.5 C 409.2 271.6 413.7 274.4 416.2 276.0 C 413.1 274.1 410.9 272.8 409.9 272.4 C 414.4 275.2 417.8 277.4 423.3 280.7 C 425.8 282.1 421.4 279.2 426.5 282.4 C 427.5 282.8 423.2 280.2 423.6 280.3 C 427.8 282.8 436.0 287.9 438.1 289.1 C 440.2 290.2 433.1 286.0 433.0 285.8 C 449.1 295.6 467.4 306.9 473.1 310.3 C 478.9 313.8 473.5 310.5 471.2 308.9 C 477.8 312.9 482.8 316.0 490.7 320.8 C 495.8 323.9 493.8 322.6 491.9 321.3 C 493.3 322.1 494.5 322.8 495.3 323.3 C 495.8 323.6 497.3 324.5 498.3 325.0 C 495.3 323.1 489.5 319.6 487.0 317.9 C 491.8 320.6 502.6 327.6 506.8 329.8 C 500.5 325.7 493.6 321.5 486.6 317.0 C 500.6 325.5 514.4 335.0 526.0 341.3 C 524.0 340.1 523.2 339.3 521.6 338.2 C 525.8 341.0 532.0 345.1 536.0 347.1 C 538.1 348.4 542.4 350.8 546.6 353.4 C 539.3 348.8 534.5 345.7 529.3 342.7 C 529.5 342.7 530.0 342.9 530.9 343.4 C 519.7 335.9 512.7 332.7 504.5 327.8 C 503.9 327.4 503.3 327.0 502.7 326.6 C 500.2 324.7 509.4 330.5 510.4 330.9 C 498.5 323.3 485.3 315.4 479.6 311.5 C 493.9 320.2 506.4 328.1 517.3 334.5 C 514.7 332.5 503.8 326.0 498.8 322.7 C 522.3 336.8 524.7 338.3 526.6 339.4 C 524.8 338.3 523.0 337.1 521.2 335.9 C 521.7 336.2 522.2 336.4 522.7 336.6 C 533.0 343.0 545.0 350.4 544.5 350.0 C 544.1 349.6 534.7 343.7 524.8 337.6 C 525.9 338.1 527.0 338.6 528.2 339.2 C 539.8 346.3 553.3 353.9 564.7 361.3 C 563.0 359.8 563.9 360.5 566.5 361.8 C 562.9 359.4 557.7 356.2 553.9 353.6 C 555.3 354.4 557.7 355.9 558.5 356.3 C 556.6 355.0 553.5 353.1 552.7 352.3 C 558.2 355.6 564.2 359.2 570.0 362.7 C 571.4 363.2 567.5 361.1 567.9 361.1 C 573.5 364.4 581.1 369.3 585.3 371.5 C 580.8 368.5 571.6 363.1 568.9 361.2 C 570.8 362.2 572.7 363.3 574.6 364.4 C 578.4 366.7 580.2 367.7 576.1 365.0 C 573.8 363.5 573.9 363.5 574.5 363.9 C 577.2 365.3 586.1 370.8 586.0 370.3 C 583.8 368.9 574.9 363.4 572.8 361.7 C 574.6 362.5 579.1 365.5 579.7 365.5 C 569.7 359.5 570.2 359.6 567.6 358.2 C 568.6 358.9 571.5 360.6 571.3 360.7 C 565.2 357.0 559.1 353.2 552.8 349.3 C 552.8 349.3 552.8 349.3 552.8 349.3 C 552.8 349.3 552.8 349.3 552.8 349.3 C 552.8 349.3 552.8 349.3 552.8 349.3 C 553.5 349.4 553.5 349.0 553.0 348.6 C 555.7 350.2 558.5 351.8 563.4 355.0 C 562.4 353.7 557.8 351.0 553.5 348.5 C 553.5 348.5 553.6 348.4 553.7 348.4 C 560.5 352.6 571.0 358.9 578.1 363.1 C 575.0 361.0 563.2 353.7 555.2 348.8 C 555.5 348.9 555.8 349.0 556.1 349.1 C 546.0 343.0 534.4 335.3 523.0 328.5 C 528.7 331.4 534.8 335.7 541.9 339.9 C 545.2 341.9 548.3 343.6 551.5 345.4 C 560.4 351.0 586.9 367.5 590.0 369.2 C 593.5 371.0 566.6 354.4 566.5 354.2 C 566.4 354.0 579.0 361.6 573.1 358.0 C 570.0 356.1 563.2 352.0 558.3 349.0 C 558.3 348.7 558.3 348.3 558.3 348.0 C 562.5 350.6 567.6 353.6 567.5 354.2 C 569.7 355.4 574.0 358.3 574.8 358.5 C 574.1 358.1 573.0 357.4 573.1 357.3 C 574.1 357.9 575.6 358.9 575.8 358.9 C 570.7 355.7 563.7 351.2 558.1 347.7 C 557.7 347.3 557.3 346.9 556.8 346.5 C 557.0 346.5 561.4 349.1 565.2 351.4 C 569.2 353.8 561.0 348.6 554.5 344.6 C 553.5 343.8 552.6 343.1 551.6 342.3 C 553.8 343.7 556.4 345.3 559.5 347.2 C 563.2 349.3 563.2 349.0 566.9 351.1 C 560.4 346.9 552.4 341.9 545.9 338.0 C 543.7 336.4 541.5 334.7 539.2 333.0 C 544.6 336.2 549.6 339.1 552.7 340.7 C 555.0 342.2 557.5 343.8 558.4 344.2 C 556.3 342.7 562.0 346.2 561.3 345.4 C 558.0 343.7 551.9 339.8 549.4 338.7 C 544.5 335.7 539.1 332.3 534.3 329.4 C 533.7 329.0 533.1 328.5 532.5 328.1 C 536.6 330.6 540.5 332.9 544.9 335.5 C 543.1 333.9 531.2 326.5 522.5 321.4 C 505.1 310.2 486.5 300.7 468.8 290.0 C 468.1 289.5 467.1 288.9 466.0 288.1 C 464.8 287.2 463.6 286.3 462.3 285.4 C 466.6 288.0 470.3 290.3 473.5 292.1 C 461.2 284.1 491.4 302.9 493.5 303.8 C 473.7 290.9 435.8 267.9 412.7 253.2 C 418.3 256.6 420.2 257.7 414.2 253.9 C 412.6 252.8 411.0 251.8 409.3 250.7 C 433.2 265.1 457.4 280.9 476.6 292.0 C 465.4 285.0 448.3 274.7 443.8 271.5 C 447.1 273.5 451.9 276.5 452.6 276.8 C 447.1 273.0 427.6 261.4 422.1 257.6 C 449.9 274.5 487.2 297.9 507.8 310.0 C 477.0 291.2 435.7 265.2 409.1 249.3 C 413.6 252.2 413.6 252.3 411.1 251.0 C 402.9 246.0 394.7 241.0 386.3 235.9 C 384.6 234.8 385.2 235.1 389.3 237.5 C 392.7 239.5 394.6 240.7 395.8 241.2 C 393.6 239.7 367.5 223.7 388.3 236.4 C 409.0 249.0 444.8 271.0 424.0 258.0 C 403.1 244.9 395.0 239.6 406.5 246.6 C 418.0 253.5 454.3 275.5 442.2 268.0 C 430.2 260.5 404.9 244.5 390.5 235.7 C 376.0 226.8 399.6 242.7 378.4 229.6 C 357.2 216.5 375.1 227.1 371.0 224.6 C 364.6 220.6 352.8 213.3 341.6 206.4 C 333.8 201.5 323.7 195.2 318.7 191.9 C 319.2 192.0 343.0 206.9 333.7 200.9 C 310.4 186.5 284.5 170.4 294.9 177.4 C 280.6 168.4 270.0 161.9 261.0 156.4 C 247.2 147.4 231.0 137.4 229.3 136.2 C 227.2 134.8 188.7 112.0 175.0 102.1 C 173.9 101.4 148.1 85.8 145.7 84.8 C 121.5 69.3 125.1 71.2 100.9 56.4 C 80.8 44.0 74.5 40.4 71.1 38.3 C 49.8 25.4 50.2 25.1 38.9 20.2 C 35.5 18.7 30.7 15.7 28.6 15.4 C 24.4 14.8 21.7 15.7 21.3 18.7 C 21.3 18.7 21.3 18.7 21.3 18.7 Z M 549.8 348.1 C 553.4 350.5 560.3 354.6 564.1 357.2 C 559.4 354.7 553.9 351.1 548.3 347.5 C 548.8 347.7 549.3 347.9 549.8 348.1 C 549.8 348.1 549.8 348.1 549.8 348.1 Z M 523.6 325.7 C 526.1 327.2 529.0 329.3 531.9 331.0 C 534.5 332.7 537.3 334.4 541.4 336.8 C 541.1 336.4 534.6 332.1 529.4 329.0 C 529.4 328.9 529.5 328.8 529.5 328.7 C 532.1 330.1 535.1 331.9 538.7 334.1 C 539.9 334.9 541.1 335.6 542.3 336.4 C 542.3 336.6 540.3 335.6 539.6 335.1 C 540.4 335.9 543.5 337.9 547.5 340.5 C 548.0 340.9 548.4 341.2 548.9 341.6 C 549.3 342.1 546.2 340.3 549.6 342.4 C 547.1 341.2 540.9 337.1 537.0 334.8 C 541.7 336.9 525.0 327.1 521.1 324.3 C 521.9 324.8 522.7 325.2 523.6 325.7 Z M 485.7 316.4 C 483.5 315.0 481.3 313.7 479.0 312.2 C 482.3 314.3 484.9 315.8 487.2 317.2 C 486.7 316.9 486.2 316.7 485.7 316.4 Z M 299.7 204.5 C 313.5 212.1 341.4 230.2 343.4 231.0 C 346.3 232.8 349.1 234.6 352.1 236.5 C 333.3 225.0 313.2 212.6 299.7 204.5 C 299.7 204.5 299.7 204.5 299.7 204.5 Z M 357.2 217.6 C 358.3 218.3 357.8 218.1 355.1 216.4 C 340.5 207.6 331.8 202.6 340.9 208.2 C 348.7 213.0 365.7 223.6 360.6 220.6 C 354.0 216.6 347.3 212.5 340.5 208.4 C 335.3 205.0 330.4 201.6 325.4 198.1 C 336.6 205.0 347.4 211.6 357.2 217.6 C 357.2 217.6 357.2 217.6 357.2 217.6 Z M 319.4 193.8 C 323.4 196.3 328.1 199.3 333.0 202.3 C 328.8 199.7 324.6 197.1 320.2 194.5 C 320.0 194.2 319.7 194.0 319.4 193.8 Z M 314.5 190.3 C 322.7 195.3 330.8 200.4 322.5 195.4 C 320.7 194.3 318.8 193.2 316.9 192.0 C 316.1 191.4 315.3 190.9 314.5 190.3 Z M 309.5 187.0 C 309.6 187.1 310.9 188.1 313.6 189.8 C 308.1 186.4 296.9 179.6 297.6 179.7 C 301.3 181.9 305.4 184.4 309.5 187.0 C 309.5 187.0 309.5 187.0 309.5 187.0 Z M 290.5 199.3 C 294.0 201.6 297.2 203.6 291.4 200.1 C 289.2 198.8 287.0 197.5 284.8 196.1 C 286.7 197.2 288.5 198.2 290.5 199.3 Z M 488.9 299.2 C 487.4 298.3 481.5 294.7 478.1 292.7 C 477.3 293.2 490.9 300.9 488.9 299.2 C 488.9 299.2 488.9 299.2 488.9 299.2 Z M 511.0 312.5 C 509.5 311.6 503.7 307.9 500.2 305.9 C 499.4 306.4 513.0 314.1 511.0 312.5 C 511.0 312.5 511.0 312.5 511.0 312.5 Z M 175.0 102.0 C 175.0 102.0 175.0 102.0 175.0 102.0 C 175.0 102.0 175.0 102.0 175.0 102.0 C 175.0 102.0 175.0 102.0 175.0 102.0 Z M 175.0 102.0 " fill="#787878"></path></g></svg>