<?xml version="1.0" encoding="UTF-8" standalone="no"?><svg xmlns="http://www.w3.org/2000/svg" xmlns:xlink="http://www.w3.org/1999/xlink" clip-rule="evenodd" stroke-miterlimit="10" viewBox="0 0 1605 408"><desc>SVG generated by Keynote</desc><defs></defs><g transform="matrix(1.00, 0.00, -0.00, -1.00, 0.0, 408.0)"><g><clipPath id="clip0x600000cbfb60"><path d="M 0.3 241.8 L 1604.0 241.8 L 1604.0 407.8 L 0.3 407.8 Z M 0.3 241.8 "></path></clipPath><g clip-path="url(#clip0x600000cbfb60)"><path d="M 1101.8 397.3 C 1108.5 397.2 1137.3 396.0 1137.6 395.8 C 1126.9 396.3 1103.8 397.1 1101.8 397.3 C 1101.8 397.3 1101.8 397.3 1101.8 397.3 Z M 1042.7 399.4 C 1053.5 399.2 1077.0 398.4 1084.4 398.0 C 1072.0 398.5 1046.6 399.2 1042.7 399.4 C 1042.7 399.4 1042.7 399.4 1042.7 399.4 Z M 1132.7 395.6 C 1148.0 394.9 1175.9 393.7 1182.6 393.2 C 1167.7 394.0 1139.6 395.2 1132.7 395.6 C 1132.7 395.6 1132.7 395.6 1132.7 395.6 Z M 299.8 388.7 C 305.7 389.2 331.4 391.1 331.4 390.9 C 322.0 390.3 301.6 388.7 299.8 388.7 C 299.8 388.7 299.8 388.7 299.8 388.7 Z M 450.1 397.4 C 460.4 398.0 483.3 398.9 490.6 399.1 C 478.4 398.6 453.9 397.4 450.1 397.4 C 450.1 397.4 450.1 397.4 450.1 397.4 Z M 544.1 401.2 C 566.5 401.9 590.8 402.5 586.2 402.2 C 579.0 402.2 546.5 401.0 544.1 401.2 C 544.1 401.2 544.1 401.2 544.1 401.2 Z M 1113.8 388.8 C 1090.4 389.8 1073.2 390.3 1057.1 390.8 C 976.2 393.4 1098.3 389.8 1113.8 388.8 C 1113.8 388.8 1113.8 388.8 1113.8 388.8 Z M 717.2 404.2 C 700.4 404.0 687.1 403.9 679.0 403.8 C 694.5 404.1 716.2 404.4 717.2 404.2 C 717.2 404.2 717.2 404.2 717.2 404.2 Z M 862.2 404.2 C 865.9 404.3 951.7 403.3 998.2 402.0 C 958.7 402.9 858.4 404.1 862.2 404.2 C 862.2 404.2 862.2 404.2 862.2 404.2 Z M 918.5 393.9 C 863.2 394.9 773.8 394.9 733.4 394.7 C 693.3 394.4 805.6 395.8 907.7 394.4 C 959.0 393.8 963.2 393.4 960.1 393.4 C 957.1 393.3 946.5 393.4 967.2 393.0 C 1008.2 392.1 927.6 393.6 886.0 394.1 C 844.7 394.6 913.6 393.9 918.5 393.9 C 918.5 393.9 918.5 393.9 918.5 393.9 Z M 921.0 393.2 C 941.1 393.0 958.3 392.6 969.6 392.3 C 949.1 392.6 929.4 392.9 921.0 393.2 C 921.0 393.2 921.0 393.2 921.0 393.2 Z M 1384.3 374.8 C 1390.2 375.2 1413.9 373.7 1442.2 370.8 C 1470.5 367.9 1502.8 363.7 1528.5 358.8 C 1541.3 356.3 1552.4 353.8 1562.0 351.1 C 1579.1 346.1 1590.4 341.2 1596.7 334.5 C 1599.8 331.1 1601.7 326.6 1600.7 322.2 C 1599.8 317.7 1596.8 314.2 1592.6 311.1 C 1576.1 298.6 1537.7 288.7 1474.8 279.2 C 1449.9 275.4 1421.3 271.8 1387.7 268.4 C 1381.4 267.7 1374.9 267.1 1368.4 266.4 C 1361.9 265.8 1360.2 265.6 1357.3 265.3 C 1351.4 264.8 1345.6 264.3 1339.6 263.7 C 1327.7 262.7 1315.6 261.7 1303.2 260.7 C 1278.4 258.7 1252.5 257.0 1225.9 255.4 C 1208.2 254.3 1190.2 253.3 1171.3 252.4 C 1104.9 248.8 1037.7 246.8 967.2 245.4 C 931.9 244.7 895.6 244.1 858.2 243.6 C 839.5 243.3 759.2 243.4 730.9 243.8 C 744.6 243.5 718.6 243.6 690.0 244.0 C 661.5 244.3 630.6 245.0 633.5 245.0 C 619.1 245.4 604.1 245.8 589.3 246.3 C 574.4 246.7 593.2 246.3 612.1 245.9 C 595.3 246.3 578.7 246.8 561.8 247.3 C 544.2 247.8 526.7 248.4 508.9 249.1 C 450.8 251.1 391.0 254.3 342.3 257.8 C 325.7 258.9 305.8 260.3 284.5 262.0 C 273.8 262.9 262.8 263.9 251.6 264.9 C 248.8 265.1 246.0 265.4 243.2 265.7 C 242.5 265.7 241.8 265.8 241.1 265.8 C 240.4 265.9 238.9 266.1 237.3 266.2 C 234.1 266.5 230.8 266.8 227.6 267.1 C 214.9 268.4 202.5 269.7 190.6 271.1 C 143.0 276.5 102.9 282.6 73.2 289.1 C 43.5 295.5 24.1 302.0 13.2 309.2 C 7.7 312.8 3.9 316.9 2.8 322.1 C 1.6 327.3 4.1 332.3 7.4 335.7 C 13.9 342.5 24.5 346.7 34.5 350.1 C 44.6 353.6 53.7 355.9 57.6 356.8 C 61.4 357.8 59.7 357.4 52.0 355.4 C 34.8 350.7 27.9 347.7 24.0 345.9 C 20.0 344.1 19.3 343.7 20.1 344.0 C 21.7 344.7 30.5 348.5 38.3 351.0 C 47.4 354.0 61.6 357.9 82.4 362.0 C 81.8 362.0 80.2 361.7 77.1 361.1 C 96.1 365.1 122.9 369.8 159.0 374.6 C 177.0 376.9 197.3 379.3 219.8 381.5 C 225.4 382.1 231.2 382.7 236.9 383.2 C 242.7 383.8 243.9 383.9 246.5 384.1 C 251.7 384.6 257.0 385.0 262.2 385.5 C 254.4 384.7 244.6 383.8 241.0 383.4 C 262.0 385.3 245.2 383.6 259.1 384.8 C 278.5 386.5 293.5 387.6 297.6 387.9 C 301.6 388.2 294.4 387.7 271.6 385.8 C 314.0 389.2 342.9 390.9 389.5 393.3 C 407.1 394.4 397.5 393.8 392.2 393.6 C 407.7 394.5 433.6 395.9 456.9 397.0 C 480.3 398.1 500.9 398.9 504.4 399.1 C 508.0 399.3 456.7 397.3 411.7 394.9 C 366.6 392.5 327.7 389.8 344.7 391.0 C 358.6 392.0 388.0 393.7 399.4 394.4 C 374.2 393.1 344.1 391.1 328.9 390.1 C 345.4 391.3 369.4 392.8 382.8 393.7 C 366.1 392.7 354.9 392.0 350.1 391.7 C 373.9 393.3 392.2 394.5 422.0 396.0 C 435.3 396.6 410.6 395.3 439.0 396.7 C 444.2 396.8 420.4 395.7 422.1 395.7 C 444.9 396.8 491.5 398.8 503.3 399.2 C 514.7 399.6 474.7 398.1 473.8 398.0 C 564.5 401.8 674.9 403.7 709.1 404.0 C 743.6 404.3 711.3 404.0 696.7 403.8 C 736.7 404.2 767.0 404.4 814.8 404.3 C 845.3 404.2 833.2 404.2 821.6 404.2 C 829.7 404.2 836.9 404.1 841.6 404.1 C 845.0 404.0 853.7 404.0 859.7 403.9 C 841.0 404.0 806.0 404.1 790.7 404.0 C 818.8 403.9 885.5 403.6 909.7 403.2 C 871.3 403.6 829.7 403.9 786.3 403.7 C 870.9 403.8 957.5 402.9 1023.4 400.8 C 1011.6 401.0 1006.4 401.1 996.7 401.2 C 1022.0 400.7 1059.0 399.8 1080.9 398.7 C 1093.0 398.3 1116.9 397.3 1140.2 396.2 C 1099.3 398.0 1070.9 398.9 1041.2 399.9 C 1041.8 399.8 1044.5 399.7 1049.6 399.5 C 983.0 401.3 943.5 402.4 894.5 403.1 C 890.7 403.1 886.9 403.1 883.0 403.1 C 867.1 403.1 923.0 402.6 928.6 402.3 C 856.3 403.4 776.3 403.4 740.5 402.9 C 827.1 403.5 903.9 402.8 968.0 401.4 C 951.4 401.5 886.5 402.6 855.3 402.7 C 926.2 402.1 964.6 401.1 986.8 400.6 C 1009.1 400.1 1015.4 399.9 1021.0 399.7 C 1010.4 400.0 999.7 400.2 988.7 400.4 C 991.5 400.3 994.2 400.2 997.0 400.1 C 1057.9 398.7 1126.6 395.9 1123.1 396.0 C 1120.5 396.0 1067.1 398.2 1008.5 399.7 C 1014.6 399.5 1020.7 399.2 1027.0 399.0 C 1095.2 397.0 1169.8 393.5 1231.3 389.9 C 1221.2 390.3 1226.4 390.0 1239.1 389.1 C 1219.9 390.2 1191.9 391.8 1170.4 392.8 C 1177.8 392.4 1191.0 391.7 1195.2 391.4 C 1184.5 391.9 1167.6 392.8 1162.2 392.9 C 1192.6 391.4 1224.5 389.6 1254.7 387.5 C 1260.8 387.0 1241.5 388.4 1243.2 388.1 C 1272.0 386.2 1310.6 383.4 1330.0 381.6 C 1307.6 383.4 1261.7 386.8 1246.9 387.6 C 1256.5 387.0 1265.9 386.3 1275.6 385.5 C 1294.7 384.2 1303.7 383.5 1282.4 384.9 C 1270.9 385.7 1271.1 385.7 1274.0 385.5 C 1287.1 384.4 1331.2 381.0 1329.9 380.8 C 1319.0 381.7 1274.3 385.1 1262.6 385.7 C 1271.3 384.9 1294.5 383.4 1296.8 383.0 C 1272.0 384.9 1259.4 385.7 1251.8 386.2 C 1244.2 386.7 1241.5 386.9 1235.0 387.4 C 1240.7 387.0 1255.4 386.0 1254.9 386.2 C 1223.2 388.3 1190.2 390.1 1155.2 391.8 C 1155.2 391.8 1155.2 391.8 1155.2 391.8 C 1155.2 391.8 1155.2 391.8 1155.2 391.8 C 1155.2 391.8 1155.2 391.8 1155.2 391.8 C 1158.4 391.5 1157.2 391.4 1154.1 391.4 C 1168.9 390.7 1184.4 389.9 1211.1 388.4 C 1203.9 388.6 1179.2 390.0 1155.8 391.2 C 1156.0 391.1 1156.2 391.1 1156.4 391.0 C 1194.3 389.2 1250.1 385.9 1285.4 383.2 C 1277.3 383.7 1258.3 385.1 1235.4 386.5 C 1212.5 387.9 1185.6 389.4 1163.5 390.5 C 1164.9 390.4 1166.3 390.2 1167.7 390.1 C 1112.1 392.9 1043.7 395.1 976.4 396.6 C 1008.9 395.6 1046.4 394.9 1086.9 393.4 C 1105.5 392.6 1122.4 391.9 1140.0 391.0 C 1165.0 389.9 1213.9 387.5 1256.2 384.7 C 1298.4 381.9 1333.9 378.8 1341.1 378.1 C 1349.1 377.4 1321.2 379.8 1289.3 382.2 C 1257.4 384.5 1221.4 386.6 1221.0 386.6 C 1220.1 386.6 1285.7 382.3 1255.0 384.3 C 1239.0 385.4 1203.3 387.6 1176.5 389.0 C 1175.5 388.9 1174.6 388.8 1173.6 388.7 C 1197.1 387.5 1223.9 385.8 1225.0 386.1 C 1236.2 385.3 1259.3 384.0 1262.7 383.6 C 1259.0 383.8 1253.4 384.2 1253.4 384.1 C 1258.7 383.8 1266.4 383.3 1267.2 383.2 C 1240.8 384.9 1203.0 387.1 1172.2 388.6 C 1169.6 388.7 1167.0 388.8 1164.2 388.8 C 1164.8 388.8 1188.9 387.5 1209.1 386.3 C 1230.3 385.1 1186.3 387.6 1150.0 389.3 C 1144.2 389.5 1138.4 389.6 1132.4 389.8 C 1145.1 389.3 1159.8 388.6 1176.7 387.7 C 1196.4 386.7 1195.9 386.5 1215.1 385.3 C 1179.6 387.3 1135.0 389.4 1098.3 390.8 C 1084.9 391.2 1071.4 391.6 1057.4 391.9 C 1088.5 390.8 1116.5 389.6 1132.9 388.7 C 1146.2 388.2 1159.9 387.6 1164.7 387.2 C 1152.5 387.8 1184.2 386.2 1179.4 386.2 C 1162.3 387.3 1127.2 388.8 1114.4 389.5 C 1086.4 390.7 1055.1 391.7 1027.1 392.5 C 1023.5 392.6 1019.9 392.6 1016.2 392.7 C 1040.1 392.1 1062.6 391.3 1087.4 390.4 C 1076.2 390.5 1006.8 392.7 955.2 393.8 C 850.2 395.6 740.5 396.4 635.8 394.4 C 631.5 394.4 625.4 394.2 618.7 394.0 C 611.1 393.8 603.6 393.5 595.9 393.3 C 620.7 393.9 643.1 394.3 661.6 394.5 C 624.3 393.8 650.9 394.3 688.4 394.8 C 726.0 395.3 774.8 395.4 780.7 395.4 C 719.6 395.1 631.7 394.0 545.4 391.2 C 459.2 388.4 376.0 383.9 317.3 379.5 C 345.5 381.5 354.8 382.1 324.3 379.9 C 316.1 379.3 307.9 378.6 299.6 378.0 C 417.0 386.9 561.6 392.5 674.9 393.8 C 641.2 393.3 599.2 392.4 562.8 391.3 C 526.4 390.2 495.5 389.0 482.3 388.3 C 500.9 389.1 528.4 390.1 532.3 390.1 C 515.6 389.5 479.8 388.2 445.2 386.5 C 410.5 384.9 377.4 382.9 362.5 381.9 C 435.0 386.4 527.8 390.3 619.1 392.4 C 710.4 394.4 798.9 394.5 860.5 393.9 C 767.3 394.6 656.6 393.6 554.6 390.4 C 452.5 387.3 360.6 382.0 295.6 377.1 C 318.1 378.9 318.6 378.9 306.5 378.1 C 286.1 376.6 266.4 374.9 247.2 373.2 C 244.7 373.0 243.7 372.9 238.3 372.4 C 232.9 371.9 227.4 371.3 222.2 370.8 C 211.6 369.7 201.4 368.6 191.6 367.5 C 171.9 365.3 153.8 363.0 137.1 360.6 C 130.4 359.6 128.3 359.3 131.7 359.7 C 135.1 360.2 143.8 361.5 161.4 363.8 C 190.2 367.4 210.3 369.5 221.4 370.5 C 215.6 369.9 194.8 367.8 173.0 365.1 C 151.1 362.4 128.8 359.2 113.8 356.7 C 98.8 354.2 90.4 352.5 93.1 353.0 C 94.5 353.3 98.7 354.1 107.4 355.6 C 116.2 357.1 129.4 359.3 150.9 362.2 C 172.4 365.1 198.4 368.1 228.7 371.1 C 232.4 371.5 236.4 371.9 240.2 372.2 C 242.1 372.4 242.5 372.4 243.4 372.5 C 244.2 372.6 245.1 372.7 245.9 372.8 C 249.4 373.1 252.9 373.4 256.4 373.7 C 263.4 374.3 270.5 374.9 277.7 375.5 C 306.4 377.9 335.7 380.0 359.0 381.4 C 382.3 382.9 399.4 383.8 403.4 384.0 C 407.4 384.2 398.0 383.7 370.4 382.0 C 315.2 378.6 280.2 375.5 264.7 374.1 C 249.2 372.7 252.6 373.0 280.3 375.3 C 294.2 376.4 316.0 378.1 340.8 379.7 C 365.5 381.4 393.3 383.0 417.8 384.2 C 466.6 386.7 501.0 388.0 467.0 386.5 C 433.2 385.0 381.6 382.3 332.1 378.8 C 307.4 377.1 283.2 375.1 261.3 373.2 C 255.9 372.7 250.6 372.2 245.4 371.8 C 244.1 371.6 242.9 371.5 241.6 371.4 C 241.0 371.3 239.0 371.1 237.6 371.0 C 236.1 370.9 234.7 370.7 233.3 370.6 C 227.6 370.0 222.2 369.5 216.9 369.0 C 195.7 366.8 177.5 364.6 162.0 362.6 C 146.4 360.6 137.0 359.3 131.2 358.4 C 125.3 357.5 123.0 357.2 122.6 357.2 C 121.9 357.1 129.4 358.4 135.7 359.4 C 141.9 360.4 146.6 361.1 139.1 360.1 C 135.3 359.6 128.5 358.6 118.4 357.0 C 108.2 355.4 94.5 353.1 79.1 349.9 C 63.8 346.7 54.4 344.1 47.8 342.2 C 41.3 340.2 37.6 338.9 35.2 338.0 C 30.6 336.3 31.1 336.4 33.1 337.1 C 37.1 338.6 50.3 342.8 42.4 340.3 C 36.2 338.3 29.7 335.9 24.5 333.2 C 19.3 330.6 15.7 327.6 14.8 326.0 C 14.3 325.2 14.3 325.0 14.4 324.7 C 14.4 324.4 14.6 323.7 15.6 322.5 C 17.8 320.2 23.4 316.5 32.1 313.1 C 44.2 308.3 65.2 302.6 91.3 297.6 C 117.4 292.7 148.4 288.3 171.0 285.6 C 170.2 285.7 156.1 287.4 139.0 289.9 C 121.9 292.4 102.4 295.6 87.5 298.5 C 72.7 301.5 62.1 304.1 57.7 305.2 C 53.3 306.4 54.0 306.0 66.3 303.2 C 96.6 296.0 141.3 288.9 194.1 283.0 C 207.2 281.5 221.0 280.1 234.8 278.8 C 236.5 278.6 238.3 278.4 240.0 278.3 C 241.7 278.1 242.3 278.0 243.0 278.0 C 244.6 277.8 246.0 277.7 247.5 277.5 C 250.5 277.3 253.5 277.0 256.4 276.7 C 268.1 275.7 279.1 274.8 289.0 274.0 C 328.5 270.8 348.7 269.5 321.6 271.3 C 394.4 266.1 454.1 263.4 505.5 261.4 C 585.3 258.6 683.3 257.0 694.1 256.9 C 700.4 256.9 761.3 255.9 831.6 256.2 C 901.8 256.4 980.5 257.9 1022.6 259.4 C 1025.7 259.5 1065.1 260.5 1104.0 262.0 C 1143.0 263.4 1181.2 265.3 1187.3 265.5 C 1253.9 269.1 1279.7 271.3 1305.5 273.4 C 1318.4 274.4 1331.0 275.5 1347.3 276.9 C 1351.4 277.3 1355.6 277.7 1360.2 278.1 C 1361.4 278.2 1362.1 278.3 1364.7 278.5 C 1367.4 278.8 1370.2 279.1 1372.9 279.3 C 1378.4 279.9 1384.0 280.4 1389.6 281.0 C 1412.3 283.4 1436.4 286.2 1460.8 289.6 C 1501.5 295.3 1526.2 300.4 1543.3 304.6 C 1560.4 308.9 1569.8 312.3 1575.9 315.0 C 1582.1 317.7 1584.9 319.7 1586.6 321.1 C 1588.4 322.5 1588.9 323.3 1589.2 323.8 C 1590.2 325.3 1590.0 324.8 1589.1 326.1 C 1588.2 327.5 1585.8 329.6 1582.8 331.4 C 1576.6 335.0 1568.6 337.9 1561.0 340.4 C 1553.3 342.9 1545.7 345.0 1536.4 347.2 C 1527.0 349.5 1515.9 352.1 1498.1 355.4 C 1487.4 357.4 1472.6 359.8 1457.8 361.9 C 1443.0 364.1 1428.4 366.0 1420.9 367.1 C 1390.6 371.6 1373.7 374.4 1384.3 374.8 C 1384.3 374.8 1384.3 374.8 1384.3 374.8 Z M 1139.8 392.8 C 1160.8 391.9 1198.0 390.0 1219.2 388.8 C 1195.0 390.4 1164.4 392.0 1132.3 393.3 C 1134.7 393.1 1137.2 393.0 1139.8 392.8 C 1139.8 392.8 1139.8 392.8 1139.8 392.8 Z M 971.5 395.2 C 986.5 394.9 1004.5 394.6 1021.1 394.2 C 1036.8 393.7 1053.1 393.3 1076.5 392.4 C 1074.4 392.3 1035.7 393.5 1005.0 394.3 C 1005.0 394.3 1005.0 394.2 1005.0 394.2 C 1019.9 393.7 1037.4 393.2 1058.0 392.5 C 1065.0 392.3 1072.0 392.1 1079.1 391.8 C 1079.7 391.9 1068.8 392.4 1064.6 392.5 C 1070.0 392.5 1088.1 391.9 1111.2 391.1 C 1114.0 391.0 1116.8 390.9 1119.7 390.8 C 1122.9 390.8 1105.5 391.6 1124.9 390.8 C 1111.3 391.5 1075.4 392.7 1052.7 393.5 C 1065.4 392.9 1047.8 393.5 1023.8 394.1 C 999.8 394.8 969.2 395.5 957.1 395.6 C 961.9 395.5 966.6 395.4 971.5 395.2 Z M 781.0 403.7 C 767.5 403.6 754.1 403.6 740.2 403.5 C 760.1 403.6 775.4 403.6 789.5 403.6 C 786.7 403.6 783.9 403.7 781.0 403.7 Z M 244.8 266.0 C 242.9 266.2 241.5 266.4 236.8 266.8 C 232.1 267.3 227.2 267.8 222.3 268.3 C 212.6 269.3 202.7 270.4 192.8 271.5 C 173.1 273.7 153.5 276.2 135.3 278.9 C 99.0 284.2 68.8 290.2 48.2 295.9 C 27.6 301.7 16.4 307.2 10.4 312.1 C 4.4 317.0 3.5 321.8 3.4 322.8 C 2.2 329.2 6.4 335.0 12.9 339.5 C 7.8 336.0 4.0 331.9 3.2 326.6 C 2.5 321.2 5.5 316.2 9.9 312.5 C 18.8 305.0 34.8 299.1 57.7 293.3 C 80.6 287.6 110.1 282.3 143.5 277.6 C 160.2 275.3 177.8 273.1 195.9 271.0 C 204.9 270.0 214.0 269.1 223.2 268.1 C 227.8 267.7 232.5 267.2 237.0 266.8 C 241.6 266.3 242.9 266.2 244.8 266.0 C 244.8 266.0 244.8 266.0 244.8 266.0 Z M 14.1 326.3 C 14.5 327.0 13.8 326.3 13.6 325.2 C 13.4 324.5 13.5 323.9 14.5 322.6 C 15.5 321.2 17.5 319.5 20.1 317.9 C 25.1 314.7 32.0 312.0 37.0 310.2 C 42.0 308.4 44.9 307.6 43.8 307.9 C 42.8 308.2 37.7 309.6 30.7 312.5 C 24.8 314.9 18.8 318.1 15.8 320.8 C 12.9 323.5 13.0 324.4 13.4 325.7 C 13.8 326.9 15.8 329.1 17.3 330.2 C 18.8 331.3 18.9 331.5 17.1 330.1 C 14.8 328.3 13.7 326.7 13.3 325.8 C 13.0 324.8 13.0 324.4 13.6 323.2 C 15.0 320.7 20.8 316.2 31.4 312.0 C 47.8 305.5 73.9 299.3 110.4 293.3 C 71.1 300.0 44.2 307.0 29.0 313.5 C 21.3 316.8 16.7 320.1 14.8 322.3 C 13.0 324.6 13.1 324.6 14.1 326.3 C 14.1 326.3 14.1 326.3 14.1 326.3 Z M 159.3 286.4 C 124.9 290.9 90.6 296.5 65.6 302.4 C 87.3 297.3 115.5 292.2 151.4 287.4 C 154.0 287.0 156.6 286.7 159.3 286.4 Z M 206.6 281.0 C 166.4 285.4 134.0 290.0 119.1 292.4 C 111.6 293.6 108.2 294.2 110.0 293.9 C 111.9 293.5 118.8 292.3 134.9 289.9 C 149.3 287.8 165.0 285.7 182.6 283.6 C 190.2 282.7 198.1 281.9 206.6 281.0 Z M 249.0 276.9 C 248.7 276.9 247.0 277.1 243.7 277.3 C 243.3 277.4 242.9 277.4 242.4 277.4 C 242.0 277.5 241.8 277.5 240.6 277.6 C 238.4 277.8 235.8 278.1 233.1 278.3 C 227.8 278.8 221.6 279.4 214.7 280.2 C 221.7 279.4 229.9 278.6 238.6 277.8 C 242.9 277.3 244.0 277.3 246.1 277.1 C 248.1 276.9 250.2 276.7 252.4 276.5 C 260.9 275.7 269.9 274.9 278.1 274.2 C 294.6 272.9 307.9 271.9 306.6 272.1 C 288.2 273.5 268.5 275.1 249.0 276.9 C 249.0 276.9 249.0 276.9 249.0 276.9 Z M 287.7 262.1 C 270.0 263.5 254.8 264.7 282.6 262.4 C 293.2 261.5 304.0 260.6 315.3 259.8 C 306.0 260.5 296.9 261.3 287.7 262.1 Z M 748.4 394.4 C 739.0 394.4 703.6 394.0 683.2 393.8 C 681.0 394.3 761.4 394.7 748.4 394.4 C 748.4 394.4 748.4 394.4 748.4 394.4 Z M 881.4 394.0 C 872.4 394.1 836.9 394.3 816.0 394.4 C 813.8 394.9 894.4 394.1 881.4 394.0 C 881.4 394.0 881.4 394.0 881.4 394.0 Z M 1022.9 259.4 C 1022.8 259.4 1022.7 259.4 1022.6 259.4 C 1022.7 259.4 1022.8 259.4 1022.9 259.4 C 1022.9 259.4 1022.9 259.4 1022.9 259.4 Z M 1022.9 259.4 " fill="#FF3E47"></path></g></g><g><clipPath id="clip0x600000cbfda0"><path d="M 387.5 117.1 L 1133.6 263.3 L 1160.1 128.1 L 414.0 -18.2 Z M 387.5 117.1 "></path></clipPath><g clip-path="url(#clip0x600000cbfda0)"><text xml:space="preserve" font-family="MarkerFelt-Wide,Marker Felt" font-weight="bold" font-size="80.0" fill="#FF3E47" transform="matrix(0.98, 0.19, 0.19, -0.98, 428.9, 27.4)">Y</text><text xml:space="preserve" font-family="MarkerFelt-Wide,Marker Felt" font-weight="bold" font-size="80.0" fill="#FF3E47" transform="matrix(0.98, 0.19, 0.19, -0.98, 469.9, 35.5)">e</text><text xml:space="preserve" font-family="MarkerFelt-Wide,Marker Felt" font-weight="bold" font-size="80.0" fill="#FF3E47" transform="matrix(0.98, 0.19, 0.19, -0.98, 505.2, 42.4)">p</text><text xml:space="preserve" font-family="MarkerFelt-Wide,Marker Felt" font-weight="bold" font-size="80.0" fill="#FF3E47" transform="matrix(0.98, 0.19, 0.19, -0.98, 550.1, 51.2)">!</text><text xml:space="preserve" font-family="MarkerFelt-Wide,Marker Felt" font-weight="bold" font-size="80.0" fill="#FF3E47" transform="matrix(0.98, 0.19, 0.19, -0.98, 567.4, 54.6)"> </text><text xml:space="preserve" font-family="MarkerFelt-Wide,Marker Felt" font-weight="bold" font-size="80.0" fill="#FF3E47" transform="matrix(0.98, 0.19, 0.19, -0.98, 587.0, 58.4)">S</text><text xml:space="preserve" font-family="MarkerFelt-Wide,Marker Felt" font-weight="bold" font-size="80.0" fill="#FF3E47" transform="matrix(0.98, 0.19, 0.19, -0.98, 629.2, 66.7)">i</text><text xml:space="preserve" font-family="MarkerFelt-Wide,Marker Felt" font-weight="bold" font-size="80.0" fill="#FF3E47" transform="matrix(0.98, 0.19, 0.19, -0.98, 652.4, 71.2)">m</text><text xml:space="preserve" font-family="MarkerFelt-Wide,Marker Felt" font-weight="bold" font-size="80.0" fill="#FF3E47" transform="matrix(0.98, 0.19, 0.19, -0.98, 714.4, 83.4)">p</text><text xml:space="preserve" font-family="MarkerFelt-Wide,Marker Felt" font-weight="bold" font-size="80.0" fill="#FF3E47" transform="matrix(0.98, 0.19, 0.19, -0.98, 758.6, 92.0)">l</text><text xml:space="preserve" font-family="MarkerFelt-Wide,Marker Felt" font-weight="bold" font-size="80.0" fill="#FF3E47" transform="matrix(0.98, 0.19, 0.19, -0.98, 778.7, 96.0)">e</text><text xml:space="preserve" font-family="MarkerFelt-Wide,Marker Felt" font-weight="bold" font-size="80.0" fill="#FF3E47" transform="matrix(0.98, 0.19, 0.19, -0.98, 814.0, 102.9)"> </text><text xml:space="preserve" font-family="MarkerFelt-Wide,Marker Felt" font-weight="bold" font-size="80.0" fill="#FF3E47" transform="matrix(0.98, 0.19, 0.19, -0.98, 833.7, 106.8)">a</text><text xml:space="preserve" font-family="MarkerFelt-Wide,Marker Felt" font-weight="bold" font-size="80.0" fill="#FF3E47" transform="matrix(0.98, 0.19, 0.19, -0.98, 876.3, 115.1)">s</text><text xml:space="preserve" font-family="MarkerFelt-Wide,Marker Felt" font-weight="bold" font-size="80.0" fill="#FF3E47" transform="matrix(0.98, 0.19, 0.19, -0.98, 908.5, 121.4)"> </text><text xml:space="preserve" font-family="MarkerFelt-Wide,Marker Felt" font-weight="bold" font-size="80.0" fill="#FF3E47" transform="matrix(0.98, 0.19, 0.19, -0.98, 928.1, 125.3)">t</text><text xml:space="preserve" font-family="MarkerFelt-Wide,Marker Felt" font-weight="bold" font-size="80.0" fill="#FF3E47" transform="matrix(0.98, 0.19, 0.19, -0.98, 962.2, 131.9)">h</text><text xml:space="preserve" font-family="MarkerFelt-Wide,Marker Felt" font-weight="bold" font-size="80.0" fill="#FF3E47" transform="matrix(0.98, 0.19, 0.19, -0.98, 1004.9, 140.3)">a</text><text xml:space="preserve" font-family="MarkerFelt-Wide,Marker Felt" font-weight="bold" font-size="80.0" fill="#FF3E47" transform="matrix(0.98, 0.19, 0.19, -0.98, 1044.9, 148.2)">t</text><text xml:space="preserve" font-family="MarkerFelt-Wide,Marker Felt" font-weight="bold" font-size="80.0" fill="#FF3E47" transform="matrix(0.98, 0.19, 0.19, -0.98, 1076.3, 154.3)">…</text></g></g></g></svg>