<?xml version="1.0" encoding="UTF-8" standalone="no"?><svg xmlns="http://www.w3.org/2000/svg" xmlns:xlink="http://www.w3.org/1999/xlink" clip-rule="evenodd" stroke-miterlimit="10" viewBox="0 0 1920 1080"><desc>SVG generated by Keynote</desc><defs></defs><g transform="matrix(1.00, 0.00, -0.00, -1.00, 0.0, 1080.0)"><path d="M 0.0 1080.0 L 1920.0 1080.0 L 1920.0 0.0 L 0.0 0.0 Z M 0.0 1080.0 " fill="#FF3E47"></path><text xml:space="preserve" font-family="Futura-Medium,Futura" font-size="150.0" fill="#F0F1EC" transform="matrix(1.00, 0.00, -0.00, -1.00, 186.2, 481.7)">V</text><text xml:space="preserve" font-family="Futura-Medium,Futura" font-size="150.0" fill="#F0F1EC" transform="matrix(1.00, 0.00, -0.00, -1.00, 289.1, 481.7)">i</text><text xml:space="preserve" font-family="Futura-Medium,Futura" font-size="150.0" fill="#F0F1EC" transform="matrix(1.00, 0.00, -0.00, -1.00, 326.5, 481.7)">e</text><text xml:space="preserve" font-family="Futura-Medium,Futura" font-size="150.0" fill="#F0F1EC" transform="matrix(1.00, 0.00, -0.00, -1.00, 407.2, 481.7)">w</text><text xml:space="preserve" font-family="Futura-Medium,Futura" font-size="150.0" fill="#F0F1EC" transform="matrix(1.00, 0.00, -0.00, -1.00, 523.3, 481.7)">P</text><text xml:space="preserve" font-family="Futura-Medium,Futura" font-size="150.0" fill="#F0F1EC" transform="matrix(1.00, 0.00, -0.00, -1.00, 604.3, 481.7)">r</text><text xml:space="preserve" font-family="Futura-Medium,Futura" font-size="150.0" fill="#F0F1EC" transform="matrix(1.00, 0.00, -0.00, -1.00, 659.1, 481.7)">o</text><text xml:space="preserve" font-family="Futura-Medium,Futura" font-size="150.0" fill="#F0F1EC" transform="matrix(1.00, 0.00, -0.00, -1.00, 749.3, 481.7)">p</text><text xml:space="preserve" font-family="Futura-Medium,Futura" font-size="150.0" fill="#F0F1EC" transform="matrix(1.00, 0.00, -0.00, -1.00, 839.2, 481.7)">e</text><text xml:space="preserve" font-family="Futura-Medium,Futura" font-size="150.0" fill="#F0F1EC" transform="matrix(1.00, 0.00, -0.00, -1.00, 922.2, 481.7)">r</text><text xml:space="preserve" font-family="Futura-Medium,Futura" font-size="150.0" fill="#F0F1EC" transform="matrix(1.00, 0.00, -0.00, -1.00, 983.7, 481.7)">t</text><text xml:space="preserve" font-family="Futura-Medium,Futura" font-size="150.0" fill="#F0F1EC" transform="matrix(1.00, 0.00, -0.00, -1.00, 1024.8, 481.7)">y</text><text xml:space="preserve" font-family="Futura-Medium,Futura" font-size="150.0" fill="#F0F1EC" transform="matrix(1.00, 0.00, -0.00, -1.00, 1106.4, 481.7)">A</text><text xml:space="preserve" font-family="Futura-Medium,Futura" font-size="150.0" fill="#F0F1EC" transform="matrix(1.00, 0.00, -0.00, -1.00, 1217.4, 481.7)">n</text><text xml:space="preserve" font-family="Futura-Medium,Futura" font-size="150.0" fill="#F0F1EC" transform="matrix(1.00, 0.00, -0.00, -1.00, 1299.7, 481.7)">i</text><text xml:space="preserve" font-family="Futura-Medium,Futura" font-size="150.0" fill="#F0F1EC" transform="matrix(1.00, 0.00, -0.00, -1.00, 1337.1, 481.7)">m</text><text xml:space="preserve" font-family="Futura-Medium,Futura" font-size="150.0" fill="#F0F1EC" transform="matrix(1.00, 0.00, -0.00, -1.00, 1455.7, 481.7)">a</text><text xml:space="preserve" font-family="Futura-Medium,Futura" font-size="150.0" fill="#F0F1EC" transform="matrix(1.00, 0.00, -0.00, -1.00, 1545.6, 481.7)">t</text><text xml:space="preserve" font-family="Futura-Medium,Futura" font-size="150.0" fill="#F0F1EC" transform="matrix(1.00, 0.00, -0.00, -1.00, 1587.7, 481.7)">o</text><text xml:space="preserve" font-family="Futura-Medium,Futura" font-size="150.0" fill="#F0F1EC" transform="matrix(1.00, 0.00, -0.00, -1.00, 1677.9, 481.7)">r</text></g></svg>