<?xml version="1.0" encoding="UTF-8" standalone="no"?><svg xmlns="http://www.w3.org/2000/svg" xmlns:xlink="http://www.w3.org/1999/xlink" clip-rule="evenodd" stroke-miterlimit="10" viewBox="0 0 1920 1080"><desc>SVG generated by Keynote</desc><defs></defs><g transform="matrix(1.00, 0.00, -0.00, -1.00, 0.0, 1080.0)"><path d="M 0.0 1080.0 L 1920.0 1080.0 L 1920.0 0.0 L 0.0 0.0 Z M 0.0 1080.0 " fill="#FF3E47"></path><g><clipPath id="clip0x600000eb2480"><path d="M 663.0 459.1 L 1257.0 459.1 L 1257.0 1053.0 L 663.0 1053.0 Z M 663.0 459.1 "></path></clipPath><g clip-path="url(#clip0x600000eb2480)"><image xlink:href="../../270564AA-1C8B-462A-8044-7EFC2D75E7DD/assets/E1F2ED529EE0CCDD0BB2D7AD6002DCE4.jpeg" width="640.00" height="640.00" transform="matrix(0.93, 0.00, -0.00, -0.93, 663.0, 1053.0)"></image></g></g><g><clipPath id="clip0x608000cb9500"><path d="M 662.0 285.7 L 1258.0 285.7 L 1258.0 394.9 L 662.0 394.9 Z M 662.0 285.7 "></path></clipPath><g clip-path="url(#clip0x608000cb9500)"><path d="M 663.0 394.0 L 1257.0 394.0 L 1257.0 287.0 L 663.0 287.0 Z M 663.0 393.9 " fill="#EAE7D4"></path></g></g><g><clipPath id="clip0x608000cb9740"><path d="M 650.8 286.7 L 1269.2 286.7 L 1269.2 393.9 L 650.8 393.9 Z M 650.8 286.7 "></path></clipPath><g clip-path="url(#clip0x608000cb9740)"><text xml:space="preserve" font-family="Futura-Medium,Futura" font-size="50.0" fill="#383838" transform="matrix(1.00, 0.00, -0.00, -1.00, 817.2, 321.4)">L</text><text xml:space="preserve" font-family="Futura-Medium,Futura" font-size="50.0" fill="#383838" transform="matrix(1.00, 0.00, -0.00, -1.00, 839.4, 321.4)">ú</text><text xml:space="preserve" font-family="Futura-Medium,Futura" font-size="50.0" fill="#383838" transform="matrix(1.00, 0.00, -0.00, -1.00, 866.6, 321.4)">c</text><text xml:space="preserve" font-family="Futura-Medium,Futura" font-size="50.0" fill="#383838" transform="matrix(1.00, 0.00, -0.00, -1.00, 890.4, 321.4)">i</text><text xml:space="preserve" font-family="Futura-Medium,Futura" font-size="50.0" fill="#383838" transform="matrix(1.00, 0.00, -0.00, -1.00, 902.9, 321.4)">o</text><text xml:space="preserve" font-family="Futura-Medium,Futura" font-size="50.0" fill="#383838" transform="matrix(1.00, 0.00, -0.00, -1.00, 932.9, 321.4)"> </text><text xml:space="preserve" font-family="Futura-Medium,Futura" font-size="50.0" fill="#383838" transform="matrix(1.00, 0.00, -0.00, -1.00, 948.3, 321.4)">M</text><text xml:space="preserve" font-family="Futura-Medium,Futura" font-size="50.0" fill="#383838" transform="matrix(1.00, 0.00, -0.00, -1.00, 996.4, 321.4)">a</text><text xml:space="preserve" font-family="Futura-Medium,Futura" font-size="50.0" fill="#383838" transform="matrix(1.00, 0.00, -0.00, -1.00, 1026.4, 321.4)">c</text><text xml:space="preserve" font-family="Futura-Medium,Futura" font-size="50.0" fill="#383838" transform="matrix(1.00, 0.00, -0.00, -1.00, 1050.2, 321.4)">i</text><text xml:space="preserve" font-family="Futura-Medium,Futura" font-size="50.0" fill="#383838" transform="matrix(1.00, 0.00, -0.00, -1.00, 1062.7, 321.4)">e</text><text xml:space="preserve" font-family="Futura-Medium,Futura" font-size="50.0" fill="#383838" transform="matrix(1.00, 0.00, -0.00, -1.00, 1090.3, 321.4)">l</text></g></g><g><clipPath id="clip0x608000cb9da0"><path d="M 662.0 144.3 L 1258.0 144.3 L 1258.0 241.9 L 662.0 241.9 Z M 662.0 144.3 "></path></clipPath><g clip-path="url(#clip0x608000cb9da0)"><path d="M 663.0 241.0 L 1257.0 241.0 L 1257.0 145.0 L 663.0 145.0 Z M 663.0 240.9 " fill="#EAE7D4"></path></g></g><g><clipPath id="clip0x608000cb9fe0"><path d="M 652.7 145.3 L 1267.3 145.3 L 1267.3 240.9 L 652.7 240.9 Z M 652.7 145.3 "></path></clipPath><g clip-path="url(#clip0x608000cb9fe0)"><text xml:space="preserve" font-family="Futura-Medium,Futura" font-size="44.0" fill="#383838" transform="matrix(1.00, 0.00, -0.00, -1.00, 770.1, 175.7)">t</text><text xml:space="preserve" font-family="Futura-Medium,Futura" font-size="44.0" fill="#383838" transform="matrix(1.00, 0.00, -0.00, -1.00, 782.2, 175.7)">w</text><text xml:space="preserve" font-family="Futura-Medium,Futura" font-size="44.0" fill="#383838" transform="matrix(1.00, 0.00, -0.00, -1.00, 816.2, 175.7)">i</text><text xml:space="preserve" font-family="Futura-Medium,Futura" font-size="44.0" fill="#383838" transform="matrix(1.00, 0.00, -0.00, -1.00, 827.2, 175.7)">t</text><text xml:space="preserve" font-family="Futura-Medium,Futura" font-size="44.0" fill="#383838" transform="matrix(1.00, 0.00, -0.00, -1.00, 839.2, 175.7)">t</text><text xml:space="preserve" font-family="Futura-Medium,Futura" font-size="44.0" fill="#383838" transform="matrix(1.00, 0.00, -0.00, -1.00, 851.7, 175.7)">e</text><text xml:space="preserve" font-family="Futura-Medium,Futura" font-size="44.0" fill="#383838" transform="matrix(1.00, 0.00, -0.00, -1.00, 876.0, 175.7)">r</text><text xml:space="preserve" font-family="Futura-Medium,Futura" font-size="44.0" fill="#383838" transform="matrix(1.00, 0.00, -0.00, -1.00, 890.1, 175.7)">.</text><text xml:space="preserve" font-family="Futura-Medium,Futura" font-size="44.0" fill="#383838" transform="matrix(1.00, 0.00, -0.00, -1.00, 903.7, 175.7)">c</text><text xml:space="preserve" font-family="Futura-Medium,Futura" font-size="44.0" fill="#383838" transform="matrix(1.00, 0.00, -0.00, -1.00, 924.7, 175.7)">o</text><text xml:space="preserve" font-family="Futura-Medium,Futura" font-size="44.0" fill="#383838" transform="matrix(1.00, 0.00, -0.00, -1.00, 951.1, 175.7)">m</text><text xml:space="preserve" font-family="Futura-Medium,Futura" font-size="44.0" fill="#383838" transform="matrix(1.00, 0.00, -0.00, -1.00, 985.9, 175.7)">/</text><text xml:space="preserve" font-family="Futura-Medium,Futura" font-size="44.0" fill="#383838" transform="matrix(1.00, 0.00, -0.00, -1.00, 1008.7, 175.7)">l</text><text xml:space="preserve" font-family="Futura-Medium,Futura" font-size="44.0" fill="#383838" transform="matrix(1.00, 0.00, -0.00, -1.00, 1019.7, 175.7)">u</text><text xml:space="preserve" font-family="Futura-Medium,Futura" font-size="44.0" fill="#383838" transform="matrix(1.00, 0.00, -0.00, -1.00, 1043.6, 175.7)">c</text><text xml:space="preserve" font-family="Futura-Medium,Futura" font-size="44.0" fill="#383838" transform="matrix(1.00, 0.00, -0.00, -1.00, 1064.6, 175.7)">i</text><text xml:space="preserve" font-family="Futura-Medium,Futura" font-size="44.0" fill="#383838" transform="matrix(1.00, 0.00, -0.00, -1.00, 1075.6, 175.7)">o</text><text xml:space="preserve" font-family="Futura-Medium,Futura" font-size="44.0" fill="#383838" transform="matrix(1.00, 0.00, -0.00, -1.00, 1102.0, 175.7)">f</text><text xml:space="preserve" font-family="Futura-Medium,Futura" font-size="44.0" fill="#383838" transform="matrix(1.00, 0.00, -0.00, -1.00, 1115.1, 175.7)">m</text><path d="M 107.1 69.6 L 486.8 69.6 " fill="none" stroke="#383838" stroke-width="3.44" transform="matrix(1.00, 0.00, 0.00, -1.00, 663.0, 240.9)"></path></g></g><g><clipPath id="clip0x608000cba9a0"><path d="M 662.0 26.0 L 1258.0 26.0 L 1258.0 100.5 L 662.0 100.5 Z M 662.0 26.0 "></path></clipPath><g clip-path="url(#clip0x608000cba9a0)"><path d="M 663.0 100.0 L 1257.0 100.0 L 1257.0 27.0 L 663.0 27.0 Z M 663.0 99.5 " fill="#EAE7D4"></path></g></g><g><clipPath id="clip0x608000cbabe0"><path d="M 656.6 27.0 L 1263.4 27.0 L 1263.4 99.5 L 656.6 99.5 Z M 656.6 27.0 "></path></clipPath><g clip-path="url(#clip0x608000cbabe0)"><text xml:space="preserve" font-family="Futura-Medium,Futura" font-size="32.0" fill="#383838" transform="matrix(1.00, 0.00, -0.00, -1.00, 769.3, 50.8)">g</text><text xml:space="preserve" font-family="Futura-Medium,Futura" font-size="32.0" fill="#383838" transform="matrix(1.00, 0.00, -0.00, -1.00, 788.4, 50.8)">o</text><text xml:space="preserve" font-family="Futura-Medium,Futura" font-size="32.0" fill="#383838" transform="matrix(1.00, 0.00, -0.00, -1.00, 807.7, 50.8)">o</text><text xml:space="preserve" font-family="Futura-Medium,Futura" font-size="32.0" fill="#383838" transform="matrix(1.00, 0.00, -0.00, -1.00, 826.9, 50.8)">g</text><text xml:space="preserve" font-family="Futura-Medium,Futura" font-size="32.0" fill="#383838" transform="matrix(1.00, 0.00, -0.00, -1.00, 846.0, 50.8)">l</text><text xml:space="preserve" font-family="Futura-Medium,Futura" font-size="32.0" fill="#383838" transform="matrix(1.00, 0.00, -0.00, -1.00, 854.0, 50.8)">e</text><text xml:space="preserve" font-family="Futura-Medium,Futura" font-size="32.0" fill="#383838" transform="matrix(1.00, 0.00, -0.00, -1.00, 871.7, 50.8)">.</text><text xml:space="preserve" font-family="Futura-Medium,Futura" font-size="32.0" fill="#383838" transform="matrix(1.00, 0.00, -0.00, -1.00, 881.6, 50.8)">c</text><text xml:space="preserve" font-family="Futura-Medium,Futura" font-size="32.0" fill="#383838" transform="matrix(1.00, 0.00, -0.00, -1.00, 896.8, 50.8)">o</text><text xml:space="preserve" font-family="Futura-Medium,Futura" font-size="32.0" fill="#383838" transform="matrix(1.00, 0.00, -0.00, -1.00, 916.1, 50.8)">m</text><text xml:space="preserve" font-family="Futura-Medium,Futura" font-size="32.0" fill="#383838" transform="matrix(1.00, 0.00, -0.00, -1.00, 941.4, 50.8)">/</text><text xml:space="preserve" font-family="Futura-Medium,Futura" font-size="32.0" fill="#383838" transform="matrix(1.00, 0.00, -0.00, -1.00, 958.0, 50.8)">+</text><text xml:space="preserve" font-family="Futura-Medium,Futura" font-size="32.0" fill="#383838" transform="matrix(1.00, 0.00, -0.00, -1.00, 977.7, 50.8)">L</text><text xml:space="preserve" font-family="Futura-Medium,Futura" font-size="32.0" fill="#383838" transform="matrix(1.00, 0.00, -0.00, -1.00, 992.0, 50.8)">u</text><text xml:space="preserve" font-family="Futura-Medium,Futura" font-size="32.0" fill="#383838" transform="matrix(1.00, 0.00, -0.00, -1.00, 1009.4, 50.8)">c</text><text xml:space="preserve" font-family="Futura-Medium,Futura" font-size="32.0" fill="#383838" transform="matrix(1.00, 0.00, -0.00, -1.00, 1024.6, 50.8)">i</text><text xml:space="preserve" font-family="Futura-Medium,Futura" font-size="32.0" fill="#383838" transform="matrix(1.00, 0.00, -0.00, -1.00, 1032.6, 50.8)">o</text><text xml:space="preserve" font-family="Futura-Medium,Futura" font-size="32.0" fill="#383838" transform="matrix(1.00, 0.00, -0.00, -1.00, 1051.8, 50.8)">M</text><text xml:space="preserve" font-family="Futura-Medium,Futura" font-size="32.0" fill="#383838" transform="matrix(1.00, 0.00, -0.00, -1.00, 1082.6, 50.8)">a</text><text xml:space="preserve" font-family="Futura-Medium,Futura" font-size="32.0" fill="#383838" transform="matrix(1.00, 0.00, -0.00, -1.00, 1101.8, 50.8)">c</text><text xml:space="preserve" font-family="Futura-Medium,Futura" font-size="32.0" fill="#383838" transform="matrix(1.00, 0.00, -0.00, -1.00, 1117.0, 50.8)">i</text><text xml:space="preserve" font-family="Futura-Medium,Futura" font-size="32.0" fill="#383838" transform="matrix(1.00, 0.00, -0.00, -1.00, 1125.0, 50.8)">e</text><text xml:space="preserve" font-family="Futura-Medium,Futura" font-size="32.0" fill="#383838" transform="matrix(1.00, 0.00, -0.00, -1.00, 1142.7, 50.8)">l</text><path d="M 106.3 51.9 L 487.7 51.9 " fill="none" stroke="#383838" stroke-width="2.50" transform="matrix(1.00, 0.00, 0.00, -1.00, 663.0, 99.5)"></path></g></g></g></svg>